%TF.GenerationSoftware,KiCad,Pcbnew,10.0.4*%
%TF.CreationDate,2026-09-13T18:01:11+02:00*%
%TF.ProjectId,FPGA_module,46504741-5f6d-46f6-9475-6c652e6b6963,rev?*%
%TF.SameCoordinates,Original*%
%TF.FileFunction,Soldermask,Top*%
%TF.FilePolarity,Negative*%
%FSLAX46Y46*%
G04 Gerber Fmt 4.6, Leading zero omitted, Abs format (unit mm)*
G04 Created by KiCad (PCBNEW 10.0.4) date 2026-09-13 18:01:11*
%MOMM*%
%LPD*%
G01*
G04 APERTURE LIST*
G04 Aperture macros list*
%AMRoundRect*
0 Rectangle with rounded corners*
0 $1 Rounding radius*
0 $2 $3 $4 $5 $6 $7 $8 $9 X,Y pos of 4 corners*
0 Add a 4 corners polygon primitive as box body*
4,1,4,$2,$3,$4,$5,$6,$7,$8,$9,$2,$3,0*
0 Add four circle primitives for the rounded corners*
1,1,$1+$1,$2,$3*
1,1,$1+$1,$4,$5*
1,1,$1+$1,$6,$7*
1,1,$1+$1,$8,$9*
0 Add four rect primitives between the rounded corners*
20,1,$1+$1,$2,$3,$4,$5,0*
20,1,$1+$1,$4,$5,$6,$7,0*
20,1,$1+$1,$6,$7,$8,$9,0*
20,1,$1+$1,$8,$9,$2,$3,0*%
G04 Aperture macros list end*
%ADD10RoundRect,0.250000X-0.250000X-0.475000X0.250000X-0.475000X0.250000X0.475000X-0.250000X0.475000X0*%
%ADD11RoundRect,0.250000X-0.262500X-0.450000X0.262500X-0.450000X0.262500X0.450000X-0.262500X0.450000X0*%
%ADD12RoundRect,0.250000X-0.550000X1.500000X-0.550000X-1.500000X0.550000X-1.500000X0.550000X1.500000X0*%
%ADD13RoundRect,0.250000X-0.475000X0.250000X-0.475000X-0.250000X0.475000X-0.250000X0.475000X0.250000X0*%
%ADD14RoundRect,0.250000X-0.450000X0.262500X-0.450000X-0.262500X0.450000X-0.262500X0.450000X0.262500X0*%
%ADD15RoundRect,0.250000X-0.275000X-0.250000X0.275000X-0.250000X0.275000X0.250000X-0.275000X0.250000X0*%
%ADD16RoundRect,0.250000X-0.850000X-0.275000X0.850000X-0.275000X0.850000X0.275000X-0.850000X0.275000X0*%
%ADD17RoundRect,0.250000X0.625000X-0.375000X0.625000X0.375000X-0.625000X0.375000X-0.625000X-0.375000X0*%
%ADD18RoundRect,0.250000X0.475000X-0.250000X0.475000X0.250000X-0.475000X0.250000X-0.475000X-0.250000X0*%
%ADD19C,1.600000*%
%ADD20RoundRect,0.250000X1.500000X0.550000X-1.500000X0.550000X-1.500000X-0.550000X1.500000X-0.550000X0*%
%ADD21RoundRect,0.250000X0.450000X-0.262500X0.450000X0.262500X-0.450000X0.262500X-0.450000X-0.262500X0*%
%ADD22R,2.000000X0.610000*%
%ADD23R,3.600000X2.680000*%
%ADD24RoundRect,0.250000X0.250000X-0.275000X0.250000X0.275000X-0.250000X0.275000X-0.250000X-0.275000X0*%
%ADD25RoundRect,0.250000X0.275000X-0.850000X0.275000X0.850000X-0.275000X0.850000X-0.275000X-0.850000X0*%
%ADD26R,2.000000X1.600000*%
%ADD27O,2.000000X1.600000*%
%ADD28C,0.800000*%
%ADD29C,6.400000*%
%ADD30RoundRect,0.250000X0.262500X0.450000X-0.262500X0.450000X-0.262500X-0.450000X0.262500X-0.450000X0*%
%ADD31R,0.610000X2.000000*%
%ADD32R,2.680000X3.600000*%
%ADD33C,2.050000*%
%ADD34C,2.250000*%
%ADD35RoundRect,0.150000X-0.150000X0.512500X-0.150000X-0.512500X0.150000X-0.512500X0.150000X0.512500X0*%
%ADD36RoundRect,0.093750X0.093750X0.106250X-0.093750X0.106250X-0.093750X-0.106250X0.093750X-0.106250X0*%
%ADD37R,1.000000X1.600000*%
%ADD38RoundRect,0.250000X-0.375000X-0.625000X0.375000X-0.625000X0.375000X0.625000X-0.375000X0.625000X0*%
%ADD39RoundRect,0.243750X-0.243750X-0.456250X0.243750X-0.456250X0.243750X0.456250X-0.243750X0.456250X0*%
%ADD40RoundRect,0.250000X0.550000X-0.400000X0.550000X0.400000X-0.550000X0.400000X-0.550000X-0.400000X0*%
%ADD41RoundRect,0.250000X0.550000X-0.750000X0.550000X0.750000X-0.550000X0.750000X-0.550000X-0.750000X0*%
%ADD42R,1.600000X1.300000*%
%ADD43R,1.600000X2.000000*%
%ADD44RoundRect,0.100000X-0.100000X0.637500X-0.100000X-0.637500X0.100000X-0.637500X0.100000X0.637500X0*%
%ADD45RoundRect,0.243750X0.243750X0.456250X-0.243750X0.456250X-0.243750X-0.456250X0.243750X-0.456250X0*%
%ADD46RoundRect,0.218750X-0.218750X-0.381250X0.218750X-0.381250X0.218750X0.381250X-0.218750X0.381250X0*%
%ADD47RoundRect,0.243750X-0.456250X0.243750X-0.456250X-0.243750X0.456250X-0.243750X0.456250X0.243750X0*%
%ADD48RoundRect,0.087500X-0.087500X0.425000X-0.087500X-0.425000X0.087500X-0.425000X0.087500X0.425000X0*%
%ADD49RoundRect,0.250000X0.600000X0.600000X-0.600000X0.600000X-0.600000X-0.600000X0.600000X-0.600000X0*%
%ADD50C,1.700000*%
%ADD51RoundRect,0.150000X0.150000X-0.587500X0.150000X0.587500X-0.150000X0.587500X-0.150000X-0.587500X0*%
G04 APERTURE END LIST*
%TO.C,J6*%
G36*
X142000000Y-79022400D02*
G01*
X144090000Y-79022400D01*
X144090000Y-80902400D01*
X142000000Y-80902400D01*
X142000000Y-79022400D01*
G37*
%TO.C,J13*%
G36*
X142000000Y-102437400D02*
G01*
X144090000Y-102437400D01*
X144090000Y-104317400D01*
X142000000Y-104317400D01*
X142000000Y-102437400D01*
G37*
%TO.C,J9*%
G36*
X66840000Y-64379400D02*
G01*
X68720000Y-64379400D01*
X68720000Y-66469400D01*
X66840000Y-66469400D01*
X66840000Y-64379400D01*
G37*
%TO.C,J7*%
G36*
X142000000Y-84222400D02*
G01*
X144090000Y-84222400D01*
X144090000Y-86102400D01*
X142000000Y-86102400D01*
X142000000Y-84222400D01*
G37*
%TO.C,J14*%
G36*
X142000000Y-107637400D02*
G01*
X144090000Y-107637400D01*
X144090000Y-109517400D01*
X142000000Y-109517400D01*
X142000000Y-107637400D01*
G37*
%TO.C,J12*%
G36*
X142000000Y-97237400D02*
G01*
X144090000Y-97237400D01*
X144090000Y-99117400D01*
X142000000Y-99117400D01*
X142000000Y-97237400D01*
G37*
%TO.C,J11*%
G36*
X142000000Y-92037400D02*
G01*
X144090000Y-92037400D01*
X144090000Y-93917400D01*
X142000000Y-93917400D01*
X142000000Y-92037400D01*
G37*
%TO.C,J15*%
G36*
X141974000Y-73749000D02*
G01*
X144064000Y-73749000D01*
X144064000Y-75629000D01*
X141974000Y-75629000D01*
X141974000Y-73749000D01*
G37*
%TD*%
D10*
%TO.C,C50*%
X114201000Y-115837000D03*
X116101000Y-115837000D03*
%TD*%
D11*
%TO.C,R91*%
X135561800Y-92979800D03*
X137386800Y-92979800D03*
%TD*%
%TO.C,L4*%
X103975000Y-138000000D03*
X105800000Y-138000000D03*
%TD*%
%TO.C,R67*%
X135551000Y-74689000D03*
X137376000Y-74689000D03*
%TD*%
D12*
%TO.C,C116*%
X108600000Y-140800000D03*
X108600000Y-146200000D03*
%TD*%
D13*
%TO.C,C98*%
X92926000Y-133302000D03*
X92926000Y-135202000D03*
%TD*%
D14*
%TO.C,R30*%
X131550400Y-121666200D03*
X131550400Y-123491200D03*
%TD*%
D15*
%TO.C,J6*%
X141465000Y-79962400D03*
D16*
X142990000Y-78487400D03*
X142990000Y-81437400D03*
%TD*%
D11*
%TO.C,R70*%
X135561800Y-79939800D03*
X137386800Y-79939800D03*
%TD*%
D17*
%TO.C,F4*%
X132700000Y-137300000D03*
X132700000Y-134500000D03*
%TD*%
D15*
%TO.C,J13*%
X141465000Y-103377400D03*
D16*
X142990000Y-101902400D03*
X142990000Y-104852400D03*
%TD*%
D18*
%TO.C,C74*%
X69685000Y-77657000D03*
X69685000Y-75757000D03*
%TD*%
D19*
%TO.C,U13*%
X93268000Y-121903000D03*
X93268000Y-112903000D03*
X93268000Y-103903000D03*
X67768000Y-103903000D03*
X67768000Y-121903000D03*
%TD*%
D20*
%TO.C,C36*%
X116802000Y-107455000D03*
X111202000Y-107455000D03*
%TD*%
D21*
%TO.C,R106*%
X65798800Y-70722800D03*
X65798800Y-68897800D03*
%TD*%
D17*
%TO.C,F3*%
X110500000Y-137300000D03*
X110500000Y-134500000D03*
%TD*%
D22*
%TO.C,J4*%
X57400000Y-115800000D03*
X57400000Y-116800000D03*
X57400000Y-117800000D03*
X57400000Y-118800000D03*
X57400000Y-119800000D03*
X57400000Y-120800000D03*
X57400000Y-121800000D03*
X57400000Y-122800000D03*
X57400000Y-123800000D03*
X57400000Y-124800000D03*
X57400000Y-125800000D03*
X57400000Y-126800000D03*
X57400000Y-127800000D03*
X57400000Y-128800000D03*
X57400000Y-129800000D03*
X57400000Y-130800000D03*
X57400000Y-131800000D03*
X57400000Y-132800000D03*
X57400000Y-133800000D03*
X57400000Y-134800000D03*
D23*
X54600000Y-112810000D03*
X54600000Y-137790000D03*
%TD*%
D24*
%TO.C,J9*%
X67780000Y-67004400D03*
D25*
X66305000Y-65479400D03*
X69255000Y-65479400D03*
%TD*%
D14*
%TO.C,R80*%
X67754600Y-72301400D03*
X67754600Y-74126400D03*
%TD*%
D26*
%TO.C,U6*%
X102578000Y-67069000D03*
D27*
X102578000Y-69609000D03*
X102578000Y-72149000D03*
X102578000Y-74689000D03*
X102578000Y-77229000D03*
X102578000Y-79769000D03*
X102578000Y-82309000D03*
X102578000Y-84849000D03*
X102578000Y-87389000D03*
X102578000Y-89929000D03*
X102578000Y-92469000D03*
X102578000Y-95009000D03*
X102578000Y-97549000D03*
X102578000Y-100089000D03*
X102578000Y-102629000D03*
X102578000Y-105169000D03*
X102578000Y-107709000D03*
X102578000Y-110249000D03*
X102578000Y-112789000D03*
X102578000Y-115329000D03*
X102578000Y-117869000D03*
X102578000Y-120409000D03*
X102578000Y-122949000D03*
X102578000Y-125489000D03*
X125394900Y-125489000D03*
X125394900Y-122949000D03*
X125394900Y-120409000D03*
X125394900Y-117869000D03*
X125394900Y-115329000D03*
X125394900Y-112789000D03*
X125394900Y-110249000D03*
X125394900Y-107709000D03*
X125394900Y-105169000D03*
X125394900Y-102629000D03*
X125394900Y-100089000D03*
X125394900Y-97549000D03*
X125394900Y-95009000D03*
X125394900Y-92469000D03*
X125394900Y-89929000D03*
X125394900Y-87389000D03*
X125394900Y-84849000D03*
X125394900Y-82309000D03*
X125394900Y-79769000D03*
X125394900Y-77229000D03*
X125394900Y-74689000D03*
X125394900Y-72149000D03*
X125394900Y-69609000D03*
D26*
X125394900Y-67069000D03*
%TD*%
D11*
%TO.C,R101*%
X103138700Y-134556800D03*
X104963700Y-134556800D03*
%TD*%
D13*
%TO.C,C35*%
X119948000Y-103711000D03*
X119948000Y-105611000D03*
%TD*%
D11*
%TO.C,L5*%
X126175000Y-138000000D03*
X128000000Y-138000000D03*
%TD*%
%TO.C,R84*%
X66092400Y-81369900D03*
X67917400Y-81369900D03*
%TD*%
D28*
%TO.C,H3*%
X52600000Y-145000000D03*
X53302944Y-143302944D03*
X53302944Y-146697056D03*
X55000000Y-142600000D03*
D29*
X55000000Y-145000000D03*
D28*
X55000000Y-147400000D03*
X56697056Y-143302944D03*
X56697056Y-146697056D03*
X57400000Y-145000000D03*
%TD*%
D30*
%TO.C,R85*%
X67913600Y-83300300D03*
X66088600Y-83300300D03*
%TD*%
D13*
%TO.C,C92*%
X139296400Y-98191600D03*
X139296400Y-100091600D03*
%TD*%
D31*
%TO.C,J5*%
X65200000Y-142700000D03*
X66200000Y-142700000D03*
X67200000Y-142700000D03*
X68200000Y-142700000D03*
X69200000Y-142700000D03*
X70200000Y-142700000D03*
X71200000Y-142700000D03*
X72200000Y-142700000D03*
X73200000Y-142700000D03*
X74200000Y-142700000D03*
X75200000Y-142700000D03*
X76200000Y-142700000D03*
X77200000Y-142700000D03*
X78200000Y-142700000D03*
X79200000Y-142700000D03*
X80200000Y-142700000D03*
X81200000Y-142700000D03*
X82200000Y-142700000D03*
X83200000Y-142700000D03*
X84200000Y-142700000D03*
D32*
X62210000Y-145500000D03*
X87190000Y-145500000D03*
%TD*%
D11*
%TO.C,R92*%
X135561800Y-98179800D03*
X137386800Y-98179800D03*
%TD*%
D33*
%TO.C,J1*%
X91275000Y-67323000D03*
D34*
X88735000Y-64783000D03*
X88735000Y-69863000D03*
X93815000Y-64783000D03*
X93815000Y-69863000D03*
%TD*%
D35*
%TO.C,U20*%
X64031000Y-80663500D03*
X63081000Y-80663500D03*
X62131000Y-80663500D03*
X62131000Y-82938500D03*
X64031000Y-82938500D03*
%TD*%
D18*
%TO.C,C73*%
X71666200Y-77671000D03*
X71666200Y-75771000D03*
%TD*%
D36*
%TO.C,U10*%
X81342100Y-113743800D03*
X81342100Y-113093800D03*
X81342100Y-112443800D03*
X79567100Y-112443800D03*
X79567100Y-113093800D03*
X79567100Y-113743800D03*
D37*
X80454600Y-113093800D03*
%TD*%
D15*
%TO.C,J7*%
X141465000Y-85162400D03*
D16*
X142990000Y-83687400D03*
X142990000Y-86637400D03*
%TD*%
D38*
%TO.C,F2*%
X85430000Y-136944400D03*
X88230000Y-136944400D03*
%TD*%
D39*
%TO.C,D3*%
X106466500Y-134556800D03*
X108341500Y-134556800D03*
%TD*%
D30*
%TO.C,R82*%
X67915500Y-79430700D03*
X66090500Y-79430700D03*
%TD*%
D40*
%TO.C,R81*%
X60538800Y-73892400D03*
D41*
X63438800Y-75142400D03*
D40*
X60538800Y-76392400D03*
%TD*%
D12*
%TO.C,C110*%
X101200000Y-140700000D03*
X101200000Y-146300000D03*
%TD*%
D18*
%TO.C,C46*%
X112636400Y-90157600D03*
X112636400Y-88257600D03*
%TD*%
D42*
%TO.C,R75*%
X72121200Y-92920800D03*
D43*
X75021200Y-94170800D03*
D42*
X72121200Y-95420800D03*
%TD*%
D39*
%TO.C,D4*%
X128564500Y-134607600D03*
X130439500Y-134607600D03*
%TD*%
D12*
%TO.C,C117*%
X130800000Y-140800000D03*
X130800000Y-146200000D03*
%TD*%
D13*
%TO.C,C94*%
X139296400Y-92959200D03*
X139296400Y-94859200D03*
%TD*%
D11*
%TO.C,R102*%
X125185900Y-134607600D03*
X127010900Y-134607600D03*
%TD*%
D15*
%TO.C,J14*%
X141465000Y-108577400D03*
D16*
X142990000Y-107102400D03*
X142990000Y-110052400D03*
%TD*%
D11*
%TO.C,R94*%
X135561800Y-108579800D03*
X137386800Y-108579800D03*
%TD*%
D30*
%TO.C,R31*%
X134224500Y-67069000D03*
X132399500Y-67069000D03*
%TD*%
D18*
%TO.C,C51*%
X139296400Y-81905200D03*
X139296400Y-80005200D03*
%TD*%
D33*
%TO.C,J2*%
X78421403Y-67323000D03*
D34*
X75881403Y-64783000D03*
X75881403Y-69863000D03*
X80961403Y-64783000D03*
X80961403Y-69863000D03*
%TD*%
D21*
%TO.C,R79*%
X69710400Y-70697400D03*
X69710400Y-68872400D03*
%TD*%
D44*
%TO.C,U22*%
X132753000Y-98935900D03*
X132103000Y-98935900D03*
X131453000Y-98935900D03*
X130803000Y-98935900D03*
X130803000Y-104660900D03*
X131453000Y-104660900D03*
X132103000Y-104660900D03*
X132753000Y-104660900D03*
%TD*%
D18*
%TO.C,C45*%
X116700400Y-90157600D03*
X116700400Y-88257600D03*
%TD*%
%TO.C,C44*%
X119951600Y-102014400D03*
X119951600Y-100114400D03*
%TD*%
D45*
%TO.C,D5*%
X130820500Y-67069000D03*
X128945500Y-67069000D03*
%TD*%
D19*
%TO.C,C61*%
X85915600Y-133744000D03*
X85915600Y-128744000D03*
%TD*%
D46*
%TO.C,FB1*%
X119848000Y-107455000D03*
X121973000Y-107455000D03*
%TD*%
D38*
%TO.C,F1*%
X85426292Y-139269476D03*
X88226292Y-139269476D03*
%TD*%
D15*
%TO.C,J12*%
X141465000Y-98177400D03*
D16*
X142990000Y-96702400D03*
X142990000Y-99652400D03*
%TD*%
D13*
%TO.C,C91*%
X139296400Y-103373200D03*
X139296400Y-105273200D03*
%TD*%
D18*
%TO.C,C76*%
X58128000Y-82751000D03*
X58128000Y-80851000D03*
%TD*%
D13*
%TO.C,C48*%
X117970400Y-100114400D03*
X117970400Y-102014400D03*
%TD*%
D12*
%TO.C,C97*%
X116000000Y-140700000D03*
X116000000Y-146300000D03*
%TD*%
D47*
%TO.C,D1*%
X131550400Y-125224500D03*
X131550400Y-127099500D03*
%TD*%
D11*
%TO.C,R71*%
X135561800Y-85139800D03*
X137386800Y-85139800D03*
%TD*%
D12*
%TO.C,C96*%
X93800000Y-140700000D03*
X93800000Y-146300000D03*
%TD*%
D48*
%TO.C,U18*%
X67729200Y-75909600D03*
X67079200Y-75909600D03*
X66429200Y-75909600D03*
X66429200Y-77584600D03*
X67729200Y-77584600D03*
%TD*%
D11*
%TO.C,R93*%
X135561800Y-103379800D03*
X137386800Y-103379800D03*
%TD*%
D15*
%TO.C,J11*%
X141465000Y-92977400D03*
D16*
X142990000Y-91502400D03*
X142990000Y-94452400D03*
%TD*%
D49*
%TO.C,J3*%
X143116400Y-128664000D03*
D50*
X140576400Y-128664000D03*
X143116400Y-126124000D03*
X140576400Y-126124000D03*
X143116400Y-123584000D03*
X140576400Y-123584000D03*
%TD*%
D12*
%TO.C,C111*%
X123400000Y-140700000D03*
X123400000Y-146300000D03*
%TD*%
D28*
%TO.C,H2*%
X140600000Y-66000000D03*
X141302944Y-64302944D03*
X141302944Y-67697056D03*
X143000000Y-63600000D03*
D29*
X143000000Y-66000000D03*
D28*
X143000000Y-68400000D03*
X144697056Y-64302944D03*
X144697056Y-67697056D03*
X145400000Y-66000000D03*
%TD*%
%TO.C,H1*%
X52600000Y-66000000D03*
X53302944Y-64302944D03*
X53302944Y-67697056D03*
X55000000Y-63600000D03*
D29*
X55000000Y-66000000D03*
D28*
X55000000Y-68400000D03*
X56697056Y-64302944D03*
X56697056Y-67697056D03*
X57400000Y-66000000D03*
%TD*%
D21*
%TO.C,R107*%
X65798800Y-74122600D03*
X65798800Y-72297600D03*
%TD*%
D18*
%TO.C,C42*%
X115989200Y-102014400D03*
X115989200Y-100114400D03*
%TD*%
D15*
%TO.C,J15*%
X141439000Y-74689000D03*
D16*
X142964000Y-73214000D03*
X142964000Y-76164000D03*
%TD*%
D51*
%TO.C,D2*%
X61978600Y-70720500D03*
X63878600Y-70720500D03*
X62928600Y-68845500D03*
%TD*%
D18*
%TO.C,C77*%
X60160000Y-82751000D03*
X60160000Y-80851000D03*
%TD*%
D13*
%TO.C,C34*%
X121948000Y-103711000D03*
X121948000Y-105611000D03*
%TD*%
D18*
%TO.C,C102*%
X139281000Y-76721000D03*
X139281000Y-74821000D03*
%TD*%
%TO.C,C52*%
X139296400Y-87086800D03*
X139296400Y-85186800D03*
%TD*%
D28*
%TO.C,H4*%
X140600000Y-145000000D03*
X141302944Y-143302944D03*
X141302944Y-146697056D03*
X143000000Y-142600000D03*
D29*
X143000000Y-145000000D03*
D28*
X143000000Y-147400000D03*
X144697056Y-143302944D03*
X144697056Y-146697056D03*
X145400000Y-145000000D03*
%TD*%
D13*
%TO.C,C89*%
X139296400Y-108570000D03*
X139296400Y-110470000D03*
%TD*%
%TO.C,C43*%
X114668400Y-88257600D03*
X114668400Y-90157600D03*
%TD*%
D18*
%TO.C,C70*%
X67754600Y-70752000D03*
X67754600Y-68852000D03*
%TD*%
M02*
