%TF.GenerationSoftware,KiCad,Pcbnew,10.0.4*%
%TF.CreationDate,2026-09-13T18:01:11+02:00*%
%TF.ProjectId,FPGA_module,46504741-5f6d-46f6-9475-6c652e6b6963,rev?*%
%TF.SameCoordinates,Original*%
%TF.FileFunction,Profile,NP*%
%FSLAX46Y46*%
G04 Gerber Fmt 4.6, Leading zero omitted, Abs format (unit mm)*
G04 Created by KiCad (PCBNEW 10.0.4) date 2026-09-13 18:01:11*
%MOMM*%
%LPD*%
G01*
G04 APERTURE LIST*
%TA.AperFunction,Profile*%
%ADD10C,0.050000*%
%TD*%
G04 APERTURE END LIST*
D10*
X50000000Y-63000000D02*
G75*
G02*
X52000000Y-61000000I2000000J0D01*
G01*
X50000000Y-148000000D02*
X50000000Y-63000000D01*
X52000000Y-61000000D02*
X146000000Y-61000000D01*
X52000000Y-150000000D02*
G75*
G02*
X50000000Y-148000000I0J2000000D01*
G01*
X76809600Y-110667800D02*
X76809600Y-112090200D01*
X76809600Y-110667800D02*
G75*
G02*
X77216000Y-110261400I406400J0D01*
G01*
X76809600Y-114096800D02*
G75*
G02*
X77622400Y-114096800I406400J0D01*
G01*
X76809600Y-115900200D02*
X76809600Y-114096800D01*
X77216000Y-116306600D02*
G75*
G02*
X76809600Y-115900200I0J406400D01*
G01*
X77216000Y-116306600D02*
X79171800Y-116306600D01*
X77622400Y-111480600D02*
X77622400Y-112090200D01*
X77622400Y-111480600D02*
G75*
G02*
X78028800Y-111074200I406400J0D01*
G01*
X77622400Y-112090200D02*
G75*
G02*
X76809600Y-112090200I-406400J0D01*
G01*
X77622400Y-114096800D02*
X77622400Y-115087400D01*
X78028800Y-115493800D02*
G75*
G02*
X77622400Y-115087400I0J406400D01*
G01*
X79146400Y-110261400D02*
X77216000Y-110261400D01*
X79146400Y-110261400D02*
G75*
G02*
X79146400Y-111074200I0J-406400D01*
G01*
X79146400Y-111074200D02*
X78028800Y-111074200D01*
X79171800Y-115493800D02*
X78028800Y-115493800D01*
X79171800Y-115493800D02*
G75*
G02*
X79171800Y-116306600I0J-406400D01*
G01*
X81711800Y-111074200D02*
G75*
G02*
X81711800Y-110261400I0J406400D01*
G01*
X81711800Y-111074200D02*
X82867500Y-111074200D01*
X81737200Y-115493800D02*
X82854800Y-115493800D01*
X81737200Y-116306600D02*
G75*
G02*
X81737200Y-115493800I0J406400D01*
G01*
X81737200Y-116306600D02*
X83667600Y-116306600D01*
X82867500Y-111074200D02*
G75*
G02*
X83273900Y-111480600I0J-406400D01*
G01*
X83261200Y-114071400D02*
G75*
G02*
X84074000Y-114071400I406400J0D01*
G01*
X83261200Y-115087400D02*
G75*
G02*
X82854800Y-115493800I-406400J0D01*
G01*
X83261200Y-115087400D02*
X83261200Y-114071400D01*
X83273900Y-112115600D02*
X83273900Y-111480600D01*
X83680300Y-110261400D02*
X81711800Y-110261400D01*
X83680300Y-110261400D02*
G75*
G02*
X84086700Y-110667800I0J-406400D01*
G01*
X84074000Y-114071400D02*
X84074000Y-115900200D01*
X84074000Y-115900200D02*
G75*
G02*
X83667600Y-116306600I-406400J0D01*
G01*
X84086700Y-112115600D02*
G75*
G02*
X83273900Y-112115600I-406400J0D01*
G01*
X84086700Y-112115600D02*
X84086700Y-110667800D01*
X146000000Y-61000000D02*
G75*
G02*
X148000000Y-63000000I0J-2000000D01*
G01*
X146000000Y-150000000D02*
X52000000Y-150000000D01*
X148000000Y-63000000D02*
X148000000Y-148000000D01*
X148000000Y-148000000D02*
G75*
G02*
X146000000Y-150000000I-2000000J0D01*
G01*
M02*
