%TF.GenerationSoftware,KiCad,Pcbnew,10.0.4*%
%TF.CreationDate,2026-09-13T18:01:10+02:00*%
%TF.ProjectId,FPGA_module,46504741-5f6d-46f6-9475-6c652e6b6963,rev?*%
%TF.SameCoordinates,Original*%
%TF.FileFunction,Copper,L1,Top*%
%TF.FilePolarity,Positive*%
%FSLAX46Y46*%
G04 Gerber Fmt 4.6, Leading zero omitted, Abs format (unit mm)*
G04 Created by KiCad (PCBNEW 10.0.4) date 2026-09-13 18:01:10*
%MOMM*%
%LPD*%
G01*
G04 APERTURE LIST*
G04 Aperture macros list*
%AMRoundRect*
0 Rectangle with rounded corners*
0 $1 Rounding radius*
0 $2 $3 $4 $5 $6 $7 $8 $9 X,Y pos of 4 corners*
0 Add a 4 corners polygon primitive as box body*
4,1,4,$2,$3,$4,$5,$6,$7,$8,$9,$2,$3,0*
0 Add four circle primitives for the rounded corners*
1,1,$1+$1,$2,$3*
1,1,$1+$1,$4,$5*
1,1,$1+$1,$6,$7*
1,1,$1+$1,$8,$9*
0 Add four rect primitives between the rounded corners*
20,1,$1+$1,$2,$3,$4,$5,0*
20,1,$1+$1,$4,$5,$6,$7,0*
20,1,$1+$1,$6,$7,$8,$9,0*
20,1,$1+$1,$8,$9,$2,$3,0*%
G04 Aperture macros list end*
%TA.AperFunction,HeatsinkPad*%
%ADD10C,0.600000*%
%TD*%
%TA.AperFunction,HeatsinkPad*%
%ADD11R,2.600000X2.600000*%
%TD*%
%TA.AperFunction,SMDPad,CuDef*%
%ADD12RoundRect,0.250000X-0.250000X-0.475000X0.250000X-0.475000X0.250000X0.475000X-0.250000X0.475000X0*%
%TD*%
%TA.AperFunction,SMDPad,CuDef*%
%ADD13RoundRect,0.250000X-0.262500X-0.450000X0.262500X-0.450000X0.262500X0.450000X-0.262500X0.450000X0*%
%TD*%
%TA.AperFunction,SMDPad,CuDef*%
%ADD14RoundRect,0.250000X-0.550000X1.500000X-0.550000X-1.500000X0.550000X-1.500000X0.550000X1.500000X0*%
%TD*%
%TA.AperFunction,SMDPad,CuDef*%
%ADD15RoundRect,0.250000X-0.475000X0.250000X-0.475000X-0.250000X0.475000X-0.250000X0.475000X0.250000X0*%
%TD*%
%TA.AperFunction,SMDPad,CuDef*%
%ADD16RoundRect,0.250000X-0.450000X0.262500X-0.450000X-0.262500X0.450000X-0.262500X0.450000X0.262500X0*%
%TD*%
%TA.AperFunction,SMDPad,CuDef*%
%ADD17RoundRect,0.250000X-0.275000X-0.250000X0.275000X-0.250000X0.275000X0.250000X-0.275000X0.250000X0*%
%TD*%
%TA.AperFunction,SMDPad,CuDef*%
%ADD18RoundRect,0.250000X-0.850000X-0.275000X0.850000X-0.275000X0.850000X0.275000X-0.850000X0.275000X0*%
%TD*%
%TA.AperFunction,SMDPad,CuDef*%
%ADD19RoundRect,0.250000X0.625000X-0.375000X0.625000X0.375000X-0.625000X0.375000X-0.625000X-0.375000X0*%
%TD*%
%TA.AperFunction,SMDPad,CuDef*%
%ADD20RoundRect,0.250000X0.475000X-0.250000X0.475000X0.250000X-0.475000X0.250000X-0.475000X-0.250000X0*%
%TD*%
%TA.AperFunction,ComponentPad*%
%ADD21C,1.600000*%
%TD*%
%TA.AperFunction,SMDPad,CuDef*%
%ADD22RoundRect,0.250000X1.500000X0.550000X-1.500000X0.550000X-1.500000X-0.550000X1.500000X-0.550000X0*%
%TD*%
%TA.AperFunction,SMDPad,CuDef*%
%ADD23RoundRect,0.250000X0.450000X-0.262500X0.450000X0.262500X-0.450000X0.262500X-0.450000X-0.262500X0*%
%TD*%
%TA.AperFunction,SMDPad,CuDef*%
%ADD24R,2.000000X0.610000*%
%TD*%
%TA.AperFunction,SMDPad,CuDef*%
%ADD25R,3.600000X2.680000*%
%TD*%
%TA.AperFunction,SMDPad,CuDef*%
%ADD26RoundRect,0.250000X0.250000X-0.275000X0.250000X0.275000X-0.250000X0.275000X-0.250000X-0.275000X0*%
%TD*%
%TA.AperFunction,SMDPad,CuDef*%
%ADD27RoundRect,0.250000X0.275000X-0.850000X0.275000X0.850000X-0.275000X0.850000X-0.275000X-0.850000X0*%
%TD*%
%TA.AperFunction,ComponentPad*%
%ADD28R,2.000000X1.600000*%
%TD*%
%TA.AperFunction,ComponentPad*%
%ADD29O,2.000000X1.600000*%
%TD*%
%TA.AperFunction,ComponentPad*%
%ADD30C,0.800000*%
%TD*%
%TA.AperFunction,ComponentPad*%
%ADD31C,6.400000*%
%TD*%
%TA.AperFunction,SMDPad,CuDef*%
%ADD32RoundRect,0.250000X0.262500X0.450000X-0.262500X0.450000X-0.262500X-0.450000X0.262500X-0.450000X0*%
%TD*%
%TA.AperFunction,SMDPad,CuDef*%
%ADD33R,0.610000X2.000000*%
%TD*%
%TA.AperFunction,SMDPad,CuDef*%
%ADD34R,2.680000X3.600000*%
%TD*%
%TA.AperFunction,ComponentPad*%
%ADD35C,2.050000*%
%TD*%
%TA.AperFunction,ComponentPad*%
%ADD36C,2.250000*%
%TD*%
%TA.AperFunction,SMDPad,CuDef*%
%ADD37RoundRect,0.150000X-0.150000X0.512500X-0.150000X-0.512500X0.150000X-0.512500X0.150000X0.512500X0*%
%TD*%
%TA.AperFunction,SMDPad,CuDef*%
%ADD38RoundRect,0.093750X0.093750X0.106250X-0.093750X0.106250X-0.093750X-0.106250X0.093750X-0.106250X0*%
%TD*%
%TA.AperFunction,HeatsinkPad*%
%ADD39R,1.000000X1.600000*%
%TD*%
%TA.AperFunction,SMDPad,CuDef*%
%ADD40RoundRect,0.250000X-0.375000X-0.625000X0.375000X-0.625000X0.375000X0.625000X-0.375000X0.625000X0*%
%TD*%
%TA.AperFunction,SMDPad,CuDef*%
%ADD41RoundRect,0.243750X-0.243750X-0.456250X0.243750X-0.456250X0.243750X0.456250X-0.243750X0.456250X0*%
%TD*%
%TA.AperFunction,SMDPad,CuDef*%
%ADD42RoundRect,0.250000X0.550000X-0.400000X0.550000X0.400000X-0.550000X0.400000X-0.550000X-0.400000X0*%
%TD*%
%TA.AperFunction,SMDPad,CuDef*%
%ADD43RoundRect,0.250000X0.550000X-0.750000X0.550000X0.750000X-0.550000X0.750000X-0.550000X-0.750000X0*%
%TD*%
%TA.AperFunction,SMDPad,CuDef*%
%ADD44R,1.600000X1.300000*%
%TD*%
%TA.AperFunction,SMDPad,CuDef*%
%ADD45R,1.600000X2.000000*%
%TD*%
%TA.AperFunction,SMDPad,CuDef*%
%ADD46RoundRect,0.100000X-0.100000X0.637500X-0.100000X-0.637500X0.100000X-0.637500X0.100000X0.637500X0*%
%TD*%
%TA.AperFunction,SMDPad,CuDef*%
%ADD47RoundRect,0.243750X0.243750X0.456250X-0.243750X0.456250X-0.243750X-0.456250X0.243750X-0.456250X0*%
%TD*%
%TA.AperFunction,SMDPad,CuDef*%
%ADD48RoundRect,0.218750X-0.218750X-0.381250X0.218750X-0.381250X0.218750X0.381250X-0.218750X0.381250X0*%
%TD*%
%TA.AperFunction,SMDPad,CuDef*%
%ADD49RoundRect,0.243750X-0.456250X0.243750X-0.456250X-0.243750X0.456250X-0.243750X0.456250X0.243750X0*%
%TD*%
%TA.AperFunction,SMDPad,CuDef*%
%ADD50RoundRect,0.087500X-0.087500X0.425000X-0.087500X-0.425000X0.087500X-0.425000X0.087500X0.425000X0*%
%TD*%
%TA.AperFunction,ComponentPad*%
%ADD51RoundRect,0.250000X0.600000X0.600000X-0.600000X0.600000X-0.600000X-0.600000X0.600000X-0.600000X0*%
%TD*%
%TA.AperFunction,ComponentPad*%
%ADD52C,1.700000*%
%TD*%
%TA.AperFunction,SMDPad,CuDef*%
%ADD53RoundRect,0.150000X0.150000X-0.587500X0.150000X0.587500X-0.150000X0.587500X-0.150000X-0.587500X0*%
%TD*%
%TA.AperFunction,ComponentPad*%
%ADD54C,0.600000*%
%TD*%
%TA.AperFunction,SMDPad,CuDef*%
%ADD55R,2.950000X4.900000*%
%TD*%
%TA.AperFunction,ViaPad*%
%ADD56C,0.600000*%
%TD*%
%TA.AperFunction,ViaPad*%
%ADD57C,0.800000*%
%TD*%
%TA.AperFunction,Conductor*%
%ADD58C,0.200000*%
%TD*%
%TA.AperFunction,Conductor*%
%ADD59C,0.600000*%
%TD*%
%TA.AperFunction,Conductor*%
%ADD60C,0.375000*%
%TD*%
%TA.AperFunction,Conductor*%
%ADD61C,0.400000*%
%TD*%
%TA.AperFunction,Conductor*%
%ADD62C,0.800000*%
%TD*%
G04 APERTURE END LIST*
D10*
%TO.P,U9,25,GND_25*%
%TO.N,GND*%
X114299398Y-94646263D03*
X114299398Y-95546263D03*
X114299398Y-96446263D03*
X115199398Y-94646263D03*
D11*
X115199398Y-95546263D03*
D10*
X115199398Y-95546263D03*
X115199398Y-96446263D03*
X116099398Y-94646263D03*
X116099398Y-95546263D03*
X116099398Y-96446263D03*
%TD*%
D12*
%TO.P,C50,1*%
%TO.N,+3V3*%
X114201000Y-115837000D03*
%TO.P,C50,2*%
%TO.N,GND*%
X116101000Y-115837000D03*
%TD*%
D13*
%TO.P,R91,1*%
%TO.N,Net-(U22-1Y0)*%
X135561800Y-92979800D03*
%TO.P,R91,2*%
%TO.N,Net-(J11-In)*%
X137386800Y-92979800D03*
%TD*%
%TO.P,L4,1,1_1*%
%TO.N,Net-(C105-Pad1)*%
X103975000Y-138000000D03*
%TO.P,L4,2,2_2*%
%TO.N,Net-(C112-Pad1)*%
X105800000Y-138000000D03*
%TD*%
%TO.P,R67,1*%
%TO.N,Net-(U9-CLK_2)*%
X135551000Y-74689000D03*
%TO.P,R67,2*%
%TO.N,Net-(J15-In)*%
X137376000Y-74689000D03*
%TD*%
D14*
%TO.P,C116,1*%
%TO.N,Net-(C112-Pad1)*%
X108600000Y-140800000D03*
%TO.P,C116,2*%
%TO.N,GND*%
X108600000Y-146200000D03*
%TD*%
D15*
%TO.P,C98,1*%
%TO.N,GND*%
X92926000Y-133302000D03*
%TO.P,C98,2*%
%TO.N,/Power_supply/VBUS1_Fused*%
X92926000Y-135202000D03*
%TD*%
D16*
%TO.P,R30,1*%
%TO.N,GND*%
X131550400Y-121666200D03*
%TO.P,R30,2*%
%TO.N,Net-(D1-K)*%
X131550400Y-123491200D03*
%TD*%
D17*
%TO.P,J6,1,In_1*%
%TO.N,Net-(J6-In)*%
X141465000Y-79962400D03*
D18*
%TO.P,J6,2,Ext_2*%
%TO.N,GND*%
X142990000Y-78487400D03*
X142990000Y-81437400D03*
%TD*%
D13*
%TO.P,R70,1*%
%TO.N,Net-(U9-CLK_4)*%
X135561800Y-79939800D03*
%TO.P,R70,2*%
%TO.N,Net-(J6-In)*%
X137386800Y-79939800D03*
%TD*%
D19*
%TO.P,F4,1*%
%TO.N,Net-(C113-Pad1)*%
X132700000Y-137300000D03*
%TO.P,F4,2*%
%TO.N,+3V3*%
X132700000Y-134500000D03*
%TD*%
D17*
%TO.P,J13,1,In_1*%
%TO.N,Net-(J13-In)*%
X141465000Y-103377400D03*
D18*
%TO.P,J13,2,Ext_2*%
%TO.N,GND*%
X142990000Y-101902400D03*
X142990000Y-104852400D03*
%TD*%
D20*
%TO.P,C74,1*%
%TO.N,+3V3*%
X69685000Y-77657000D03*
%TO.P,C74,2*%
%TO.N,GND*%
X69685000Y-75757000D03*
%TD*%
D21*
%TO.P,U13,1,VC_1*%
%TO.N,Net-(U13-VC)*%
X93268000Y-121903000D03*
%TO.P,U13,2,REF_2*%
%TO.N,unconnected-(U13-REF-Pad2)*%
X93268000Y-112903000D03*
%TO.P,U13,3,VCC_3*%
%TO.N,+5V*%
X93268000Y-103903000D03*
%TO.P,U13,4,OUT_4*%
%TO.N,Net-(U13-OUT)*%
X67768000Y-103903000D03*
%TO.P,U13,5,GND_5*%
%TO.N,GND*%
X67768000Y-121903000D03*
%TD*%
D22*
%TO.P,C36,1*%
%TO.N,+5V*%
X116802000Y-107455000D03*
%TO.P,C36,2*%
%TO.N,GND*%
X111202000Y-107455000D03*
%TD*%
D23*
%TO.P,R106,1*%
%TO.N,Net-(C70-Pad1)*%
X65798800Y-70722800D03*
%TO.P,R106,2*%
%TO.N,+3V3*%
X65798800Y-68897800D03*
%TD*%
D19*
%TO.P,F3,1*%
%TO.N,Net-(C112-Pad1)*%
X110500000Y-137300000D03*
%TO.P,F3,2*%
%TO.N,+5V*%
X110500000Y-134500000D03*
%TD*%
D24*
%TO.P,J4,1,Pin_1_1*%
%TO.N,GND*%
X57400000Y-115800000D03*
%TO.P,J4,2,Pin_2_2*%
X57400000Y-116800000D03*
%TO.P,J4,3,Pin_3_3*%
%TO.N,unconnected-(J4-Pin_3-Pad3)*%
X57400000Y-117800000D03*
%TO.P,J4,4,Pin_4_4*%
%TO.N,unconnected-(J4-Pin_4-Pad4)*%
X57400000Y-118800000D03*
%TO.P,J4,5,Pin_5_5*%
%TO.N,unconnected-(J4-Pin_5-Pad5)*%
X57400000Y-119800000D03*
%TO.P,J4,6,Pin_6_6*%
%TO.N,unconnected-(J4-Pin_6-Pad6)*%
X57400000Y-120800000D03*
%TO.P,J4,7,Pin_7_7*%
%TO.N,unconnected-(J4-Pin_7-Pad7)*%
X57400000Y-121800000D03*
%TO.P,J4,8,Pin_8_8*%
%TO.N,unconnected-(J4-Pin_8-Pad8)*%
X57400000Y-122800000D03*
%TO.P,J4,9,Pin_9_9*%
%TO.N,GND*%
X57400000Y-123800000D03*
%TO.P,J4,10,Pin_10_10*%
X57400000Y-124800000D03*
%TO.P,J4,11,Pin_11_11*%
%TO.N,unconnected-(J4-Pin_11-Pad11)*%
X57400000Y-125800000D03*
%TO.P,J4,12,Pin_12_12*%
%TO.N,unconnected-(J4-Pin_12-Pad12)*%
X57400000Y-126800000D03*
%TO.P,J4,13,Pin_13_13*%
%TO.N,unconnected-(J4-Pin_13-Pad13)*%
X57400000Y-127800000D03*
%TO.P,J4,14,Pin_14_14*%
%TO.N,/FPGA_core/SDA*%
X57400000Y-128800000D03*
%TO.P,J4,15,Pin_15_15*%
%TO.N,/FPGA_core/SCL*%
X57400000Y-129800000D03*
%TO.P,J4,16,Pin_16_16*%
%TO.N,unconnected-(J4-Pin_16-Pad16)*%
X57400000Y-130800000D03*
%TO.P,J4,17,Pin_17_17*%
%TO.N,unconnected-(J4-Pin_17-Pad17)*%
X57400000Y-131800000D03*
%TO.P,J4,18,Pin_18_18*%
%TO.N,+5V*%
X57400000Y-132800000D03*
%TO.P,J4,19,Pin_19_19*%
%TO.N,VBUS*%
X57400000Y-133800000D03*
%TO.P,J4,20,Pin_20_20*%
X57400000Y-134800000D03*
D25*
%TO.P,J4,MP*%
%TO.N,N/C*%
X54600000Y-112810000D03*
X54600000Y-137790000D03*
%TD*%
D26*
%TO.P,J9,1,In_1*%
%TO.N,Net-(D2-COM)*%
X67780000Y-67004400D03*
D27*
%TO.P,J9,2,Ext_2*%
%TO.N,GND*%
X66305000Y-65479400D03*
X69255000Y-65479400D03*
%TD*%
D16*
%TO.P,R80,1*%
%TO.N,Net-(C70-Pad1)*%
X67754600Y-72301400D03*
%TO.P,R80,2*%
%TO.N,Net-(U18-+)*%
X67754600Y-74126400D03*
%TD*%
D28*
%TO.P,U6,1,PIN38_IOB31B_TF_CS_1*%
%TO.N,unconnected-(U6-PIN38_IOB31B_TF_CS-Pad1)*%
X102578000Y-67069000D03*
D29*
%TO.P,U6,2,PIN37_IOB31A_TF_MOSI_2*%
%TO.N,unconnected-(U6-PIN37_IOB31A_TF_MOSI-Pad2)*%
X102578000Y-69609000D03*
%TO.P,U6,3,PIN36_IOB29B_TF_SCLK_3*%
%TO.N,unconnected-(U6-PIN36_IOB29B_TF_SCLK-Pad3)*%
X102578000Y-72149000D03*
%TO.P,U6,4,PIN39_IOB33A_TF_MISO_4*%
%TO.N,unconnected-(U6-PIN39_IOB33A_TF_MISO-Pad4)*%
X102578000Y-74689000D03*
%TO.P,U6,5,PIN25_IOB8A_5*%
%TO.N,CH_A*%
X102578000Y-77229000D03*
%TO.P,U6,6,PIN26_IOB8B_6*%
%TO.N,unconnected-(U6-PIN26_IOB8B-Pad6)*%
X102578000Y-79769000D03*
%TO.P,U6,7,PIN27_IOB11A_7*%
%TO.N,CH_B*%
X102578000Y-82309000D03*
%TO.P,U6,8,PIN28_IOB11B_8*%
%TO.N,unconnected-(U6-PIN28_IOB11B-Pad8)*%
X102578000Y-84849000D03*
%TO.P,U6,9,PIN29_IOB13A_9*%
%TO.N,unconnected-(U6-PIN29_IOB13A-Pad9)*%
X102578000Y-87389000D03*
%TO.P,U6,10,PIN30_IOB13B1_10*%
%TO.N,unconnected-(U6-PIN30_IOB13B1-Pad10)*%
X102578000Y-89929000D03*
%TO.P,U6,11,PIN33_IOB23A_RGB_DE_11*%
%TO.N,Net-(U6-PIN33_IOB23A_RGB_DE)*%
X102578000Y-92469000D03*
%TO.P,U6,12,PIN34_IOB23B_RGB_VS_12*%
%TO.N,unconnected-(U6-PIN34_IOB23B_RGB_VS-Pad12)*%
X102578000Y-95009000D03*
%TO.P,U6,13,PIN40_IOB33B_RGB_HS_13*%
%TO.N,unconnected-(U6-PIN40_IOB33B_RGB_HS-Pad13)*%
X102578000Y-97549000D03*
%TO.P,U6,14,PIN35_IOB29A_RGB_CK_14*%
%TO.N,/FPGA_core/REF_100MHz*%
X102578000Y-100089000D03*
%TO.P,U6,15,PIN41_IOB41A_RGB_B7_15*%
%TO.N,/FPGA_core/Ref_Ctrl*%
X102578000Y-102629000D03*
%TO.P,U6,16,PIN42_IOB41B_RGB_B6_16*%
%TO.N,/FPGA_core/REF_10MHz*%
X102578000Y-105169000D03*
%TO.P,U6,17,PIN51_IOR17B_RGB_B5_17*%
%TO.N,/FPGA_core/Ext_Ref_Sens*%
X102578000Y-107709000D03*
%TO.P,U6,18,PIN53_IOR15B_RGB_B4_18*%
%TO.N,unconnected-(U6-PIN53_IOR15B_RGB_B4-Pad18)*%
X102578000Y-110249000D03*
%TO.P,U6,19,PIN54_IOR15A_RGB_B3_19*%
%TO.N,MOSI*%
X102578000Y-112789000D03*
%TO.P,U6,20,PIN55_IOR14B_RGB_G7_20*%
%TO.N,SCK*%
X102578000Y-115329000D03*
%TO.P,U6,21,PIN56_IOR14A_RGB_G6_21*%
%TO.N,FPGA_CS*%
X102578000Y-117869000D03*
%TO.P,U6,22,PIN57_IOR13A_RGB_G5_22*%
%TO.N,MISO*%
X102578000Y-120409000D03*
%TO.P,U6,23,HDMI_CK_N_23*%
%TO.N,unconnected-(U6-HDMI_CK_N-Pad23)*%
X102578000Y-122949000D03*
%TO.P,U6,24,HDMI_CK_P_24*%
%TO.N,unconnected-(U6-HDMI_CK_P-Pad24)*%
X102578000Y-125489000D03*
%TO.P,U6,25,+3V3_25*%
%TO.N,unconnected-(U6-+3V3-Pad25)*%
X125394900Y-125489000D03*
%TO.P,U6,26,GND_26*%
%TO.N,GND*%
X125394900Y-122949000D03*
%TO.P,U6,27,PIN32_IOB15B_RGBINIT_27*%
%TO.N,unconnected-(U6-PIN32_IOB15B_RGBINIT-Pad27)*%
X125394900Y-120409000D03*
%TO.P,U6,28,PIN31_IOB15A_RGBINIT_28*%
%TO.N,unconnected-(U6-PIN31_IOB15A_RGBINIT-Pad28)*%
X125394900Y-117869000D03*
%TO.P,U6,29,PIN49_IOR24A_SPILCD_RS_29*%
%TO.N,FPGA_Int*%
X125394900Y-115329000D03*
%TO.P,U6,30,PIN48_IOR24B_SPILCD_CS_30*%
%TO.N,unconnected-(U6-PIN48_IOR24B_SPILCD_CS-Pad30)*%
X125394900Y-112789000D03*
%TO.P,U6,31,+5V_31*%
%TO.N,Net-(U6-+5V)*%
X125394900Y-110249000D03*
%TO.P,U6,32,HDMI_D0_N_32*%
%TO.N,unconnected-(U6-HDMI_D0_N-Pad32)*%
X125394900Y-107709000D03*
%TO.P,U6,33,HDMI_D0_P_33*%
%TO.N,unconnected-(U6-HDMI_D0_P-Pad33)*%
X125394900Y-105169000D03*
%TO.P,U6,34,HDMI_D1_N_34*%
%TO.N,unconnected-(U6-HDMI_D1_N-Pad34)*%
X125394900Y-102629000D03*
%TO.P,U6,35,HDMI_D1_P_35*%
%TO.N,unconnected-(U6-HDMI_D1_P-Pad35)*%
X125394900Y-100089000D03*
%TO.P,U6,36,HDMI_D2_N_36*%
%TO.N,unconnected-(U6-HDMI_D2_N-Pad36)*%
X125394900Y-97549000D03*
%TO.P,U6,37,HDMI_D2_P_37*%
%TO.N,unconnected-(U6-HDMI_D2_P-Pad37)*%
X125394900Y-95009000D03*
%TO.P,U6,38,PIN76_IOT37B_SPILCD_MCLK_38*%
%TO.N,unconnected-(U6-PIN76_IOT37B_SPILCD_MCLK-Pad38)*%
X125394900Y-92469000D03*
%TO.P,U6,39,PIN77_IOT37A_SPILCD_MO_39*%
%TO.N,unconnected-(U6-PIN77_IOT37A_SPILCD_MO-Pad39)*%
X125394900Y-89929000D03*
%TO.P,U6,40,PIN79_IOT12B_1V8_40*%
%TO.N,unconnected-(U6-PIN79_IOT12B_1V8-Pad40)*%
X125394900Y-87389000D03*
%TO.P,U6,41,PIN80_IOT12A_1V8_41*%
%TO.N,unconnected-(U6-PIN80_IOT12A_1V8-Pad41)*%
X125394900Y-84849000D03*
%TO.P,U6,42,PIN81_IOT11B_1V8_42*%
%TO.N,unconnected-(U6-PIN81_IOT11B_1V8-Pad42)*%
X125394900Y-82309000D03*
%TO.P,U6,43,PIN82_IOT11A_1V8_43*%
%TO.N,unconnected-(U6-PIN82_IOT11A_1V8-Pad43)*%
X125394900Y-79769000D03*
%TO.P,U6,44,PIN83_IOT10B_1V8_44*%
%TO.N,unconnected-(U6-PIN83_IOT10B_1V8-Pad44)*%
X125394900Y-77229000D03*
%TO.P,U6,45,PIN84_IOT10A_1V8_45*%
%TO.N,unconnected-(U6-PIN84_IOT10A_1V8-Pad45)*%
X125394900Y-74689000D03*
%TO.P,U6,46,PIN85_IOT8B_1V8_46*%
%TO.N,unconnected-(U6-PIN85_IOT8B_1V8-Pad46)*%
X125394900Y-72149000D03*
%TO.P,U6,47,PIN86_IOT8A_BL_PWM_1V8_47*%
%TO.N,unconnected-(U6-PIN86_IOT8A_BL_PWM_1V8-Pad47)*%
X125394900Y-69609000D03*
D28*
%TO.P,U6,48,PIN63_IOR5A_RGBINIT_48*%
%TO.N,Net-(D5-A)*%
X125394900Y-67069000D03*
%TD*%
D13*
%TO.P,R101,1*%
%TO.N,GND*%
X103138700Y-134556800D03*
%TO.P,R101,2*%
%TO.N,Net-(D3-K)*%
X104963700Y-134556800D03*
%TD*%
D15*
%TO.P,C35,1*%
%TO.N,GND*%
X119948000Y-103711000D03*
%TO.P,C35,2*%
%TO.N,+5V*%
X119948000Y-105611000D03*
%TD*%
D13*
%TO.P,L5,1,1_1*%
%TO.N,Net-(C106-Pad1)*%
X126175000Y-138000000D03*
%TO.P,L5,2,2_2*%
%TO.N,Net-(C113-Pad1)*%
X128000000Y-138000000D03*
%TD*%
%TO.P,R84,1*%
%TO.N,Net-(R82-Pad2)*%
X66092400Y-81369900D03*
%TO.P,R84,2*%
%TO.N,+3V3*%
X67917400Y-81369900D03*
%TD*%
D30*
%TO.P,H3,1,1_1*%
%TO.N,GND*%
X52600000Y-145000000D03*
X53302944Y-143302944D03*
X53302944Y-146697056D03*
X55000000Y-142600000D03*
D31*
X55000000Y-145000000D03*
D30*
X55000000Y-147400000D03*
X56697056Y-143302944D03*
X56697056Y-146697056D03*
X57400000Y-145000000D03*
%TD*%
D32*
%TO.P,R85,1*%
%TO.N,GND*%
X67913600Y-83300300D03*
%TO.P,R85,2*%
%TO.N,Net-(R82-Pad2)*%
X66088600Y-83300300D03*
%TD*%
D15*
%TO.P,C92,1*%
%TO.N,Net-(J12-In)*%
X139296400Y-98191600D03*
%TO.P,C92,2*%
%TO.N,GND*%
X139296400Y-100091600D03*
%TD*%
D33*
%TO.P,J5,1,Pin_1_1*%
%TO.N,GND*%
X65200000Y-142700000D03*
%TO.P,J5,2,Pin_2_2*%
X66200000Y-142700000D03*
%TO.P,J5,3,Pin_3_3*%
%TO.N,SCK*%
X67200000Y-142700000D03*
%TO.P,J5,4,Pin_4_4*%
%TO.N,MOSI*%
X68200000Y-142700000D03*
%TO.P,J5,5,Pin_5_5*%
%TO.N,MISO*%
X69200000Y-142700000D03*
%TO.P,J5,6,Pin_6_6*%
%TO.N,FPGA_CS*%
X70200000Y-142700000D03*
%TO.P,J5,7,Pin_7_7*%
%TO.N,unconnected-(J5-Pin_7-Pad7)*%
X71200000Y-142700000D03*
%TO.P,J5,8,Pin_8_8*%
%TO.N,FPGA_Int*%
X72200000Y-142700000D03*
%TO.P,J5,9,Pin_9_9*%
%TO.N,GND*%
X73200000Y-142700000D03*
%TO.P,J5,10,Pin_10_10*%
X74200000Y-142700000D03*
%TO.P,J5,11,Pin_11_11*%
%TO.N,10MHz_GPSDO_CLK4*%
X75200000Y-142700000D03*
%TO.P,J5,12,Pin_12_12*%
%TO.N,unconnected-(J5-Pin_12-Pad12)*%
X76200000Y-142700000D03*
%TO.P,J5,13,Pin_13_13*%
%TO.N,Net-(J5-Pin_13)*%
X77200000Y-142700000D03*
%TO.P,J5,14,Pin_14_14*%
%TO.N,/FPGA_core/SDA*%
X78200000Y-142700000D03*
%TO.P,J5,15,Pin_15_15*%
%TO.N,/FPGA_core/SCL*%
X79200000Y-142700000D03*
%TO.P,J5,16,Pin_16_16*%
%TO.N,RXD*%
X80200000Y-142700000D03*
%TO.P,J5,17,Pin_17_17*%
%TO.N,TXD*%
X81200000Y-142700000D03*
%TO.P,J5,18,Pin_18_18*%
%TO.N,unconnected-(J5-Pin_18-Pad18)*%
X82200000Y-142700000D03*
%TO.P,J5,19,Pin_19_19*%
%TO.N,VBUS*%
X83200000Y-142700000D03*
%TO.P,J5,20,Pin_20_20*%
X84200000Y-142700000D03*
D34*
%TO.P,J5,MP*%
%TO.N,N/C*%
X62210000Y-145500000D03*
X87190000Y-145500000D03*
%TD*%
D13*
%TO.P,R92,1*%
%TO.N,Net-(U22-1Y1)*%
X135561800Y-98179800D03*
%TO.P,R92,2*%
%TO.N,Net-(J12-In)*%
X137386800Y-98179800D03*
%TD*%
D35*
%TO.P,J1,1,In_1*%
%TO.N,CH_A*%
X91275000Y-67323000D03*
D36*
%TO.P,J1,2,Ext_2*%
%TO.N,GND*%
X88735000Y-64783000D03*
X88735000Y-69863000D03*
X93815000Y-64783000D03*
X93815000Y-69863000D03*
%TD*%
D37*
%TO.P,U20,1,NC_1*%
%TO.N,unconnected-(U20-NC-Pad1)*%
X64031000Y-80663500D03*
%TO.P,U20,2*%
%TO.N,Net-(R82-Pad2)*%
X63081000Y-80663500D03*
%TO.P,U20,3,GND_3*%
%TO.N,GND*%
X62131000Y-80663500D03*
%TO.P,U20,4*%
%TO.N,Net-(R112-Pad1)*%
X62131000Y-82938500D03*
%TO.P,U20,5,VCC_5*%
%TO.N,+3V3*%
X64031000Y-82938500D03*
%TD*%
D20*
%TO.P,C73,1*%
%TO.N,+3V3*%
X71666200Y-77671000D03*
%TO.P,C73,2*%
%TO.N,GND*%
X71666200Y-75771000D03*
%TD*%
D38*
%TO.P,U10,1,SCL_1*%
%TO.N,/FPGA_core/SCL*%
X81342100Y-113743800D03*
%TO.P,U10,2,GND_2*%
%TO.N,GND*%
X81342100Y-113093800D03*
%TO.P,U10,3,ALERT_3*%
%TO.N,unconnected-(U10-ALERT-Pad3)*%
X81342100Y-112443800D03*
%TO.P,U10,4,ADD0_4*%
%TO.N,+3V3*%
X79567100Y-112443800D03*
%TO.P,U10,5,V+_5*%
X79567100Y-113093800D03*
%TO.P,U10,6,SDA_6*%
%TO.N,/FPGA_core/SDA*%
X79567100Y-113743800D03*
D39*
%TO.P,U10,7*%
%TO.N,N/C*%
X80454600Y-113093800D03*
%TD*%
D17*
%TO.P,J7,1,In_1*%
%TO.N,Net-(J7-In)*%
X141465000Y-85162400D03*
D18*
%TO.P,J7,2,Ext_2*%
%TO.N,GND*%
X142990000Y-83687400D03*
X142990000Y-86637400D03*
%TD*%
D40*
%TO.P,F2,1*%
%TO.N,VBUS*%
X85430000Y-136944400D03*
%TO.P,F2,2*%
%TO.N,/Power_supply/VBUS2_Fused*%
X88230000Y-136944400D03*
%TD*%
D41*
%TO.P,D3,1,K_1*%
%TO.N,Net-(D3-K)*%
X106466500Y-134556800D03*
%TO.P,D3,2,A_2*%
%TO.N,+5V*%
X108341500Y-134556800D03*
%TD*%
D32*
%TO.P,R82,1*%
%TO.N,+3V3*%
X67915500Y-79430700D03*
%TO.P,R82,2*%
%TO.N,Net-(R82-Pad2)*%
X66090500Y-79430700D03*
%TD*%
D42*
%TO.P,R81,1,E_1*%
%TO.N,GND*%
X60538800Y-73892400D03*
D43*
%TO.P,R81,2,S_2*%
%TO.N,Net-(R81-S)*%
X63438800Y-75142400D03*
D42*
%TO.P,R81,3,A_3*%
%TO.N,+3V3*%
X60538800Y-76392400D03*
%TD*%
D14*
%TO.P,C110,1*%
%TO.N,Net-(C105-Pad1)*%
X101200000Y-140700000D03*
%TO.P,C110,2*%
%TO.N,GND*%
X101200000Y-146300000D03*
%TD*%
D20*
%TO.P,C46,1*%
%TO.N,+3V3*%
X112636400Y-90157600D03*
%TO.P,C46,2*%
%TO.N,GND*%
X112636400Y-88257600D03*
%TD*%
D44*
%TO.P,R75,1,E_1*%
%TO.N,GND*%
X72121200Y-92920800D03*
D45*
%TO.P,R75,2,S_2*%
%TO.N,Net-(R75-S)*%
X75021200Y-94170800D03*
D44*
%TO.P,R75,3,A_3*%
%TO.N,+3V3*%
X72121200Y-95420800D03*
%TD*%
D41*
%TO.P,D4,1,K_1*%
%TO.N,Net-(D4-K)*%
X128564500Y-134607600D03*
%TO.P,D4,2,A_2*%
%TO.N,+3V3*%
X130439500Y-134607600D03*
%TD*%
D14*
%TO.P,C117,1*%
%TO.N,Net-(C113-Pad1)*%
X130800000Y-140800000D03*
%TO.P,C117,2*%
%TO.N,GND*%
X130800000Y-146200000D03*
%TD*%
D15*
%TO.P,C94,1*%
%TO.N,Net-(J11-In)*%
X139296400Y-92959200D03*
%TO.P,C94,2*%
%TO.N,GND*%
X139296400Y-94859200D03*
%TD*%
D13*
%TO.P,R102,1*%
%TO.N,GND*%
X125185900Y-134607600D03*
%TO.P,R102,2*%
%TO.N,Net-(D4-K)*%
X127010900Y-134607600D03*
%TD*%
D17*
%TO.P,J14,1,In_1*%
%TO.N,Net-(J14-In)*%
X141465000Y-108577400D03*
D18*
%TO.P,J14,2,Ext_2*%
%TO.N,GND*%
X142990000Y-107102400D03*
X142990000Y-110052400D03*
%TD*%
D13*
%TO.P,R94,1*%
%TO.N,Net-(U22-1Y3)*%
X135561800Y-108579800D03*
%TO.P,R94,2*%
%TO.N,Net-(J14-In)*%
X137386800Y-108579800D03*
%TD*%
D32*
%TO.P,R31,1*%
%TO.N,GND*%
X134224500Y-67069000D03*
%TO.P,R31,2*%
%TO.N,Net-(D5-K)*%
X132399500Y-67069000D03*
%TD*%
D20*
%TO.P,C51,1*%
%TO.N,GND*%
X139296400Y-81905200D03*
%TO.P,C51,2*%
%TO.N,Net-(J6-In)*%
X139296400Y-80005200D03*
%TD*%
D35*
%TO.P,J2,1,In_1*%
%TO.N,CH_B*%
X78421403Y-67323000D03*
D36*
%TO.P,J2,2,Ext_2*%
%TO.N,GND*%
X75881403Y-64783000D03*
X75881403Y-69863000D03*
X80961403Y-64783000D03*
X80961403Y-69863000D03*
%TD*%
D23*
%TO.P,R79,1*%
%TO.N,GND*%
X69710400Y-70697400D03*
%TO.P,R79,2*%
%TO.N,Net-(D2-COM)*%
X69710400Y-68872400D03*
%TD*%
D46*
%TO.P,U22,1,CLKIN_1*%
%TO.N,10MHz_GPSDO_CLK2*%
X132753000Y-98935900D03*
%TO.P,U22,2,OE_2*%
%TO.N,Net-(U22-OE)*%
X132103000Y-98935900D03*
%TO.P,U22,3,1Y0_3*%
%TO.N,Net-(U22-1Y0)*%
X131453000Y-98935900D03*
%TO.P,U22,4,GND_4*%
%TO.N,GND*%
X130803000Y-98935900D03*
%TO.P,U22,5,1Y1_5*%
%TO.N,Net-(U22-1Y1)*%
X130803000Y-104660900D03*
%TO.P,U22,6,V_{DD}_6*%
%TO.N,Net-(U22-OE)*%
X131453000Y-104660900D03*
%TO.P,U22,7,1Y2_7*%
%TO.N,Net-(U22-1Y2)*%
X132103000Y-104660900D03*
%TO.P,U22,8,1Y3_8*%
%TO.N,Net-(U22-1Y3)*%
X132753000Y-104660900D03*
%TD*%
D20*
%TO.P,C45,1*%
%TO.N,+3V3*%
X116700400Y-90157600D03*
%TO.P,C45,2*%
%TO.N,GND*%
X116700400Y-88257600D03*
%TD*%
%TO.P,C44,1*%
%TO.N,GND*%
X119951600Y-102014400D03*
%TO.P,C44,2*%
%TO.N,+3V3*%
X119951600Y-100114400D03*
%TD*%
D47*
%TO.P,D5,1,K_1*%
%TO.N,Net-(D5-K)*%
X130820500Y-67069000D03*
%TO.P,D5,2,A_2*%
%TO.N,Net-(D5-A)*%
X128945500Y-67069000D03*
%TD*%
D21*
%TO.P,C61,1*%
%TO.N,GND*%
X85915600Y-133744000D03*
%TO.P,C61,2*%
%TO.N,Net-(C61-Pad2)*%
X85915600Y-128744000D03*
%TD*%
D48*
%TO.P,FB1,1*%
%TO.N,+5V*%
X119848000Y-107455000D03*
%TO.P,FB1,2*%
%TO.N,Net-(U6-+5V)*%
X121973000Y-107455000D03*
%TD*%
D40*
%TO.P,F1,1*%
%TO.N,VBUS*%
X85426292Y-139269476D03*
%TO.P,F1,2*%
%TO.N,/Power_supply/VBUS1_Fused*%
X88226292Y-139269476D03*
%TD*%
D17*
%TO.P,J12,1,In_1*%
%TO.N,Net-(J12-In)*%
X141465000Y-98177400D03*
D18*
%TO.P,J12,2,Ext_2*%
%TO.N,GND*%
X142990000Y-96702400D03*
X142990000Y-99652400D03*
%TD*%
D15*
%TO.P,C91,1*%
%TO.N,Net-(J13-In)*%
X139296400Y-103373200D03*
%TO.P,C91,2*%
%TO.N,GND*%
X139296400Y-105273200D03*
%TD*%
D20*
%TO.P,C76,1*%
%TO.N,+3V3*%
X58128000Y-82751000D03*
%TO.P,C76,2*%
%TO.N,GND*%
X58128000Y-80851000D03*
%TD*%
D15*
%TO.P,C48,1*%
%TO.N,+3V3*%
X117970400Y-100114400D03*
%TO.P,C48,2*%
%TO.N,GND*%
X117970400Y-102014400D03*
%TD*%
D14*
%TO.P,C97,1*%
%TO.N,/Power_supply/VBUS2_Fused*%
X116000000Y-140700000D03*
%TO.P,C97,2*%
%TO.N,GND*%
X116000000Y-146300000D03*
%TD*%
D49*
%TO.P,D1,1,K_1*%
%TO.N,Net-(D1-K)*%
X131550400Y-125224500D03*
%TO.P,D1,2,A_2*%
%TO.N,GPS_CLK_Out*%
X131550400Y-127099500D03*
%TD*%
D13*
%TO.P,R71,1*%
%TO.N,Net-(U9-CLK_6)*%
X135561800Y-85139800D03*
%TO.P,R71,2*%
%TO.N,Net-(J7-In)*%
X137386800Y-85139800D03*
%TD*%
D14*
%TO.P,C96,1*%
%TO.N,/Power_supply/VBUS1_Fused*%
X93800000Y-140700000D03*
%TO.P,C96,2*%
%TO.N,GND*%
X93800000Y-146300000D03*
%TD*%
D50*
%TO.P,U18,1,+_1*%
%TO.N,Net-(U18-+)*%
X67729200Y-75909600D03*
%TO.P,U18,2,V-_2*%
%TO.N,GND*%
X67079200Y-75909600D03*
%TO.P,U18,3,-_3*%
%TO.N,Net-(R81-S)*%
X66429200Y-75909600D03*
%TO.P,U18,4*%
%TO.N,Net-(R82-Pad2)*%
X66429200Y-77584600D03*
%TO.P,U18,5,V+_5*%
%TO.N,+3V3*%
X67729200Y-77584600D03*
%TD*%
D13*
%TO.P,R93,1*%
%TO.N,Net-(U22-1Y2)*%
X135561800Y-103379800D03*
%TO.P,R93,2*%
%TO.N,Net-(J13-In)*%
X137386800Y-103379800D03*
%TD*%
D17*
%TO.P,J11,1,In_1*%
%TO.N,Net-(J11-In)*%
X141465000Y-92977400D03*
D18*
%TO.P,J11,2,Ext_2*%
%TO.N,GND*%
X142990000Y-91502400D03*
X142990000Y-94452400D03*
%TD*%
D51*
%TO.P,J3,1,Pin_1_1*%
%TO.N,Net-(J3-Pin_1)*%
X143116400Y-128664000D03*
D52*
%TO.P,J3,2,Pin_2_2*%
%TO.N,GPS_CLK_Out*%
X140576400Y-128664000D03*
%TO.P,J3,3,Pin_3_3*%
%TO.N,Net-(J3-Pin_3)*%
X143116400Y-126124000D03*
%TO.P,J3,4,Pin_4_4*%
%TO.N,GPS_Ext_Int*%
X140576400Y-126124000D03*
%TO.P,J3,5,Pin_5_5*%
%TO.N,Net-(J3-Pin_5)*%
X143116400Y-123584000D03*
%TO.P,J3,6,Pin_6_6*%
%TO.N,GND*%
X140576400Y-123584000D03*
%TD*%
D14*
%TO.P,C111,1*%
%TO.N,Net-(C106-Pad1)*%
X123400000Y-140700000D03*
%TO.P,C111,2*%
%TO.N,GND*%
X123400000Y-146300000D03*
%TD*%
D30*
%TO.P,H2,1,1_1*%
%TO.N,GND*%
X140600000Y-66000000D03*
X141302944Y-64302944D03*
X141302944Y-67697056D03*
X143000000Y-63600000D03*
D31*
X143000000Y-66000000D03*
D30*
X143000000Y-68400000D03*
X144697056Y-64302944D03*
X144697056Y-67697056D03*
X145400000Y-66000000D03*
%TD*%
%TO.P,H1,1,1_1*%
%TO.N,GND*%
X52600000Y-66000000D03*
X53302944Y-64302944D03*
X53302944Y-67697056D03*
X55000000Y-63600000D03*
D31*
X55000000Y-66000000D03*
D30*
X55000000Y-68400000D03*
X56697056Y-64302944D03*
X56697056Y-67697056D03*
X57400000Y-66000000D03*
%TD*%
D23*
%TO.P,R107,1*%
%TO.N,GND*%
X65798800Y-74122600D03*
%TO.P,R107,2*%
%TO.N,Net-(C70-Pad1)*%
X65798800Y-72297600D03*
%TD*%
D20*
%TO.P,C42,1*%
%TO.N,GND*%
X115989200Y-102014400D03*
%TO.P,C42,2*%
%TO.N,+3V3*%
X115989200Y-100114400D03*
%TD*%
D17*
%TO.P,J15,1,In_1*%
%TO.N,Net-(J15-In)*%
X141439000Y-74689000D03*
D18*
%TO.P,J15,2,Ext_2*%
%TO.N,GND*%
X142964000Y-73214000D03*
X142964000Y-76164000D03*
%TD*%
D53*
%TO.P,D2,1,A_1*%
%TO.N,GND*%
X61978600Y-70720500D03*
%TO.P,D2,2,K_2*%
%TO.N,+3V3*%
X63878600Y-70720500D03*
%TO.P,D2,3,COM_3*%
%TO.N,Net-(D2-COM)*%
X62928600Y-68845500D03*
%TD*%
D20*
%TO.P,C77,1*%
%TO.N,+3V3*%
X60160000Y-82751000D03*
%TO.P,C77,2*%
%TO.N,GND*%
X60160000Y-80851000D03*
%TD*%
D15*
%TO.P,C34,1*%
%TO.N,GND*%
X121948000Y-103711000D03*
%TO.P,C34,2*%
%TO.N,Net-(U6-+5V)*%
X121948000Y-105611000D03*
%TD*%
D20*
%TO.P,C102,1*%
%TO.N,GND*%
X139281000Y-76721000D03*
%TO.P,C102,2*%
%TO.N,Net-(J15-In)*%
X139281000Y-74821000D03*
%TD*%
%TO.P,C52,1*%
%TO.N,GND*%
X139296400Y-87086800D03*
%TO.P,C52,2*%
%TO.N,Net-(J7-In)*%
X139296400Y-85186800D03*
%TD*%
D30*
%TO.P,H4,1,1_1*%
%TO.N,GND*%
X140600000Y-145000000D03*
X141302944Y-143302944D03*
X141302944Y-146697056D03*
X143000000Y-142600000D03*
D31*
X143000000Y-145000000D03*
D30*
X143000000Y-147400000D03*
X144697056Y-143302944D03*
X144697056Y-146697056D03*
X145400000Y-145000000D03*
%TD*%
D15*
%TO.P,C89,1*%
%TO.N,Net-(J14-In)*%
X139296400Y-108570000D03*
%TO.P,C89,2*%
%TO.N,GND*%
X139296400Y-110470000D03*
%TD*%
%TO.P,C43,1*%
%TO.N,GND*%
X114668400Y-88257600D03*
%TO.P,C43,2*%
%TO.N,+3V3*%
X114668400Y-90157600D03*
%TD*%
D20*
%TO.P,C70,1*%
%TO.N,Net-(C70-Pad1)*%
X67754600Y-70752000D03*
%TO.P,C70,2*%
%TO.N,Net-(D2-COM)*%
X67754600Y-68852000D03*
%TD*%
D54*
%TO.P,U24,9,GND_9*%
%TO.N,GND*%
X119100000Y-133900000D03*
X119100000Y-135200000D03*
X119100000Y-136500000D03*
X119100000Y-137800000D03*
D55*
X119750000Y-135850000D03*
D54*
X120400000Y-133900000D03*
X120400000Y-135200000D03*
X120400000Y-136500000D03*
X120400000Y-137800000D03*
%TD*%
%TO.P,U23,9,GND_9*%
%TO.N,GND*%
X97300000Y-133950000D03*
X97300000Y-135250000D03*
X97300000Y-136550000D03*
X97300000Y-137850000D03*
D55*
X97950000Y-135900000D03*
D54*
X98600000Y-133950000D03*
X98600000Y-135250000D03*
X98600000Y-136550000D03*
X98600000Y-137850000D03*
%TD*%
D56*
%TO.N,GND*%
X133947000Y-129934000D03*
X112357000Y-137427000D03*
%TO.N,+3V3*%
X121247000Y-125616000D03*
%TO.N,GND*%
X115913000Y-124981000D03*
X136360000Y-115329000D03*
X131788000Y-117869000D03*
X130391000Y-74689000D03*
X130391000Y-77483000D03*
X121755000Y-85230000D03*
X121882000Y-75705000D03*
X107785000Y-75324000D03*
X105626000Y-79007000D03*
X105499000Y-83960000D03*
X84417000Y-133744000D03*
X78194000Y-135522000D03*
X79210000Y-139459000D03*
%TO.N,VBUS*%
X75527000Y-138189000D03*
%TO.N,GND*%
X128740000Y-120282000D03*
X129248000Y-129934000D03*
%TO.N,+3V3*%
X115786000Y-130315000D03*
%TO.N,GND*%
X119469000Y-112789000D03*
X118961000Y-121679000D03*
X117183000Y-115837000D03*
%TO.N,+3V3*%
X114135000Y-117488000D03*
%TO.N,GND*%
X114439800Y-114059000D03*
%TO.N,/FPGA_core/SCL*%
X113347600Y-114059000D03*
X111087000Y-114059000D03*
D57*
%TO.N,Net-(C105-Pad1)*%
X98006000Y-143904000D03*
X98006000Y-143091200D03*
D56*
%TO.N,Net-(C112-Pad1)*%
X106769000Y-140983000D03*
%TO.N,Net-(U9-CLK_2)*%
X110198000Y-94247000D03*
%TO.N,GND*%
X67800000Y-61700000D03*
X64935200Y-65490400D03*
X107658000Y-132220000D03*
X131550400Y-120472400D03*
X58000000Y-61700000D03*
X51000000Y-105200000D03*
X147200000Y-75200000D03*
X119400000Y-61700000D03*
X71691600Y-74786800D03*
X73215600Y-144361200D03*
X127470000Y-96279000D03*
X110833000Y-121425000D03*
X73489891Y-135534400D03*
X147200000Y-139200000D03*
X91600000Y-61700000D03*
X118224400Y-97168000D03*
X136741000Y-139586000D03*
X100419000Y-70879000D03*
X109400000Y-61700000D03*
X51000000Y-83400000D03*
X59194800Y-123812600D03*
X99657000Y-144031000D03*
X95593000Y-138824000D03*
X86800000Y-149200000D03*
X100419000Y-101359000D03*
X129248000Y-146317000D03*
X51000000Y-135000000D03*
X95516800Y-126124000D03*
X142990000Y-100802400D03*
X133439000Y-77737000D03*
X51000000Y-146800000D03*
X100419000Y-81039000D03*
X93600000Y-61700000D03*
X76800000Y-149200000D03*
X71800000Y-61700000D03*
X81140400Y-122110800D03*
X141290000Y-86662400D03*
X128800000Y-149200000D03*
X90513000Y-140348000D03*
X121400000Y-61700000D03*
X108800000Y-149200000D03*
X136995000Y-110249000D03*
X125184000Y-132220000D03*
X51000000Y-95400000D03*
X147200000Y-143200000D03*
X147200000Y-127200000D03*
X88201600Y-141160800D03*
X59779000Y-140094000D03*
X132540000Y-110282000D03*
X51000000Y-123000000D03*
X145200000Y-61700000D03*
X113400000Y-61700000D03*
X116632416Y-132176055D03*
X120800000Y-149200000D03*
X101600000Y-61700000D03*
X59194800Y-115786200D03*
X100419000Y-93739000D03*
X114516000Y-70879000D03*
X127216000Y-132220000D03*
X139296400Y-95956400D03*
X56096000Y-97803000D03*
X147200000Y-81200000D03*
X91148000Y-110376000D03*
X93688000Y-88786000D03*
X51016000Y-79388000D03*
X69710400Y-74786800D03*
X136741000Y-137681000D03*
X87600000Y-61700000D03*
X51000000Y-81400000D03*
X66200000Y-140916000D03*
X85966400Y-121552000D03*
X72263000Y-124206000D03*
X51000000Y-97400000D03*
X82258000Y-113093800D03*
X54699000Y-105346800D03*
X51000000Y-69600000D03*
X97091600Y-123787200D03*
X127470000Y-111519000D03*
X51000000Y-131000000D03*
X102800000Y-149200000D03*
X58800000Y-149200000D03*
X98133000Y-65291000D03*
X147200000Y-93200000D03*
X117564000Y-146317000D03*
X145758000Y-124854000D03*
X123533000Y-73419000D03*
X65582800Y-76758800D03*
X64732000Y-115202000D03*
X81800000Y-61700000D03*
X123533000Y-107709000D03*
X127470000Y-81039000D03*
X133439000Y-91072000D03*
X100546000Y-132601000D03*
X100419000Y-88659000D03*
X127470000Y-108979000D03*
X135471000Y-67069000D03*
X125400000Y-61700000D03*
X51000000Y-129000000D03*
X133200000Y-61700000D03*
X110579000Y-125743000D03*
X104356000Y-88659000D03*
X127470000Y-101359000D03*
X147200000Y-83200000D03*
X80226000Y-78880000D03*
X141290000Y-83662400D03*
X80480000Y-109106000D03*
X147200000Y-107200000D03*
X51000000Y-117200000D03*
X100419000Y-83579000D03*
X60414000Y-93612000D03*
X111087000Y-128664000D03*
X93180000Y-94628000D03*
X99657000Y-141999000D03*
X127200000Y-61700000D03*
X103847251Y-132220000D03*
X51016000Y-87389000D03*
X70701000Y-113932000D03*
X51000000Y-103200000D03*
X96990000Y-98819000D03*
X96863000Y-111646000D03*
X51000000Y-127000000D03*
X118072000Y-94780400D03*
X75527000Y-113043000D03*
X134572000Y-110282000D03*
X61800000Y-61700000D03*
X127470000Y-121679000D03*
X51000000Y-75400000D03*
X131200000Y-61700000D03*
X106642000Y-145555000D03*
X123533000Y-117869000D03*
X147200000Y-89200000D03*
X147200000Y-97200000D03*
X51000000Y-91400000D03*
X141290000Y-78462400D03*
X147200000Y-85200000D03*
X110502800Y-76390800D03*
X141290000Y-91502400D03*
X130508000Y-110282000D03*
X79972000Y-126378000D03*
X122999600Y-98946000D03*
X112800000Y-149200000D03*
X132871200Y-120828000D03*
X141290000Y-94502400D03*
X73152000Y-117805200D03*
X103600000Y-61700000D03*
X147200000Y-121200000D03*
X107404000Y-128029000D03*
X92800000Y-149200000D03*
X129121000Y-139205000D03*
X65200000Y-140916000D03*
X90640000Y-78880000D03*
X84671000Y-67323000D03*
X141290000Y-110002400D03*
X147200000Y-111200000D03*
X77178000Y-122822000D03*
X71717000Y-127775000D03*
X126111000Y-140500000D03*
X109563000Y-132220000D03*
X142990000Y-95602400D03*
X147200000Y-99200000D03*
X51000000Y-113200000D03*
X118681600Y-93154800D03*
X139296400Y-83002400D03*
X142990000Y-82562400D03*
X86957000Y-84468000D03*
X89600000Y-61700000D03*
X141290000Y-96702400D03*
X121882000Y-142126000D03*
X133439000Y-70879000D03*
X145758000Y-127267000D03*
X100419000Y-91199000D03*
X141290000Y-104802400D03*
X114516000Y-68339000D03*
X139296400Y-101188800D03*
X89192200Y-146621800D03*
X51800000Y-62200000D03*
X77940000Y-117488000D03*
X87846000Y-114592400D03*
X126454000Y-145809000D03*
X66800000Y-149200000D03*
X104356000Y-96279000D03*
X136995000Y-99708000D03*
X104356000Y-68339000D03*
X147200000Y-63200000D03*
X136741000Y-141491000D03*
X64478000Y-135131600D03*
X74041000Y-123063000D03*
X147200000Y-105200000D03*
X147200000Y-119200000D03*
X51003200Y-132994400D03*
X63800000Y-61700000D03*
X88800000Y-149200000D03*
X64800000Y-149200000D03*
X65621000Y-127648000D03*
X68800000Y-149200000D03*
X121882000Y-146317000D03*
X51000000Y-145000000D03*
X65200000Y-144400000D03*
X121932800Y-102552800D03*
X104356000Y-70879000D03*
X147200000Y-91250000D03*
X132423000Y-138824000D03*
X108674000Y-107455000D03*
X128486000Y-83325000D03*
X51000000Y-115200000D03*
X107785000Y-82309000D03*
X147200000Y-117200000D03*
X65798800Y-75124831D03*
X74511000Y-83325000D03*
X85687000Y-74943000D03*
X132804000Y-143523000D03*
X51000000Y-63600000D03*
X80302200Y-99530200D03*
X51000000Y-141000000D03*
X83600000Y-61700000D03*
X104356000Y-73419000D03*
X139296400Y-106370400D03*
X95720000Y-84595000D03*
X110071000Y-146190000D03*
X133439000Y-86246000D03*
X65800000Y-61700000D03*
X51000000Y-139000000D03*
X87795200Y-103314800D03*
X82258000Y-136538000D03*
X139281000Y-77864000D03*
X117691000Y-127902000D03*
X83172400Y-122110800D03*
X123400000Y-61700000D03*
X102705000Y-132220000D03*
X59200000Y-124800000D03*
X121170800Y-80658000D03*
X117437000Y-138697000D03*
X96401483Y-106433834D03*
X87973000Y-98438000D03*
X112357000Y-138824000D03*
X100419000Y-73419000D03*
X107150000Y-146190000D03*
X60287000Y-87389000D03*
X90513000Y-146952000D03*
X51000000Y-111200000D03*
X107785000Y-121044000D03*
X69050000Y-83325000D03*
X140890000Y-107102400D03*
X141290000Y-81462400D03*
X142964000Y-71895000D03*
X88989000Y-106820000D03*
X123533000Y-121679000D03*
X60414000Y-131153200D03*
X99600000Y-61700000D03*
X119342000Y-109360000D03*
X141567000Y-115329000D03*
X83401000Y-128791000D03*
X97600000Y-61700000D03*
X147200000Y-65200000D03*
X103213000Y-147050000D03*
X100419000Y-79769000D03*
X64859000Y-109106000D03*
X127470000Y-117869000D03*
X51000000Y-119200000D03*
X127470000Y-70879000D03*
X134800000Y-149200000D03*
X139296400Y-111552000D03*
X75501600Y-102248000D03*
X64732000Y-122949000D03*
X111861600Y-86995000D03*
X147200000Y-133200000D03*
X80226000Y-128791000D03*
X51000000Y-65600000D03*
X70800000Y-149200000D03*
X66200000Y-144400000D03*
X141290000Y-99702400D03*
X51016000Y-93358000D03*
X80226000Y-132728000D03*
X133947000Y-132220000D03*
X138800000Y-149200000D03*
X123533000Y-68339000D03*
X147200000Y-129200000D03*
X136995000Y-94628000D03*
X147200000Y-125200000D03*
X123533000Y-103899000D03*
X142964000Y-90183000D03*
X76466800Y-96507600D03*
X147200000Y-69200000D03*
X90513000Y-143650000D03*
X140800000Y-149200000D03*
X141200000Y-61700000D03*
X74206200Y-144361200D03*
X123533000Y-70879000D03*
X116800000Y-149200000D03*
X90800000Y-149200000D03*
X56223000Y-85865000D03*
X138077200Y-101188800D03*
X107658000Y-136411000D03*
X147200000Y-135250000D03*
X97371000Y-69863000D03*
X98800000Y-149200000D03*
X127470000Y-73419000D03*
X54000000Y-61700000D03*
X111400000Y-61700000D03*
X85433000Y-113093800D03*
X51016000Y-73546000D03*
X139200000Y-61700000D03*
X136995000Y-89675000D03*
X123533000Y-101359000D03*
X78800000Y-149200000D03*
X129629000Y-94120000D03*
X80226000Y-87008000D03*
X141290000Y-101902400D03*
X85864800Y-114592400D03*
X138011000Y-127267000D03*
X73800000Y-61700000D03*
X147200000Y-123200000D03*
X122800000Y-149200000D03*
X74511000Y-88532000D03*
X127470000Y-98819000D03*
X80800000Y-149200000D03*
X114800000Y-149200000D03*
X51000000Y-137000000D03*
X117157600Y-93612000D03*
X110800000Y-149200000D03*
X147200000Y-109200000D03*
X124800000Y-149200000D03*
X104356000Y-111519000D03*
X132423000Y-146317000D03*
X147200000Y-141200000D03*
X51000000Y-89400000D03*
X79718000Y-107074000D03*
X142800000Y-149200000D03*
X130800000Y-149200000D03*
X117400000Y-61700000D03*
X117970400Y-103289400D03*
X136741000Y-133998000D03*
X107400000Y-61700000D03*
X147200000Y-79200000D03*
X115328800Y-77737000D03*
X104483000Y-140348000D03*
X136360000Y-117869000D03*
X113042800Y-85042600D03*
X51000000Y-101200000D03*
X96401483Y-108440434D03*
X133439000Y-81166000D03*
X119646800Y-86449200D03*
X104356000Y-108979000D03*
X143091000Y-118885000D03*
X51000000Y-107200000D03*
X55700000Y-115800000D03*
X75781000Y-74816000D03*
X96800000Y-149200000D03*
X79800000Y-61700000D03*
X130010000Y-89675000D03*
X136741000Y-147333000D03*
X133566000Y-113551000D03*
X51000000Y-109200000D03*
X100419000Y-96279000D03*
X147200000Y-113200000D03*
X51000000Y-71600000D03*
X52800000Y-149200000D03*
X115887600Y-80658000D03*
X56800000Y-149200000D03*
X99784000Y-146317000D03*
X62800000Y-149200000D03*
X136233000Y-132220000D03*
X71508691Y-135534400D03*
X127470000Y-103899000D03*
X115400000Y-61700000D03*
X100800000Y-149200000D03*
X94800000Y-149200000D03*
X60000000Y-61700000D03*
X130762000Y-100274400D03*
X90513000Y-141745000D03*
X74800000Y-149200000D03*
X73406000Y-119989600D03*
X123533000Y-124219000D03*
X142990000Y-87762400D03*
X60972800Y-70773600D03*
X60800000Y-149200000D03*
X147200000Y-71200000D03*
X81877000Y-117488000D03*
X111087000Y-132220000D03*
X70472400Y-146317000D03*
X58128000Y-79769000D03*
X107531000Y-111519000D03*
X147200000Y-67200000D03*
X64478000Y-136538000D03*
X74536400Y-107074000D03*
X142990000Y-105902400D03*
X115989200Y-103289400D03*
X89624000Y-89929000D03*
X147200000Y-95200000D03*
X51000000Y-125000000D03*
X147200000Y-87200000D03*
X136995000Y-105042000D03*
X95339000Y-146317000D03*
X127470000Y-124219000D03*
X129248000Y-132220000D03*
X142990000Y-111302400D03*
X90513000Y-145555000D03*
X54800000Y-149200000D03*
X75800000Y-61700000D03*
X90568765Y-137300000D03*
X118800000Y-149200000D03*
X133439000Y-73800000D03*
X138011000Y-122441000D03*
X129200000Y-61700000D03*
X84290000Y-91072000D03*
X64224000Y-91453000D03*
X147200000Y-103200000D03*
X93815000Y-143396000D03*
X147200000Y-77200000D03*
X108547000Y-143396000D03*
X138011000Y-124854000D03*
X147200000Y-131200000D03*
X114389000Y-146317000D03*
X72800000Y-149200000D03*
X144800000Y-149200000D03*
X147200000Y-115200000D03*
X51000000Y-67600000D03*
X69710400Y-71789600D03*
X52540000Y-133871000D03*
X126800000Y-149200000D03*
X136741000Y-143396000D03*
X135200000Y-61700000D03*
X123533000Y-111519000D03*
X69800000Y-61700000D03*
X105753000Y-132220000D03*
X147200000Y-73200000D03*
X143200000Y-61700000D03*
X90640000Y-114236800D03*
X130812800Y-97531200D03*
X59194800Y-116802200D03*
X127470000Y-115329000D03*
X95600000Y-61700000D03*
X108166000Y-116599000D03*
X51000000Y-85400000D03*
X147200000Y-101200000D03*
X51000000Y-77400000D03*
X142990000Y-77362400D03*
X132800000Y-149200000D03*
X107785000Y-77229000D03*
X137200000Y-61700000D03*
X70421600Y-106566000D03*
X111595000Y-97803000D03*
X95466000Y-73419000D03*
X51000000Y-121200000D03*
X112357000Y-143015000D03*
X118122800Y-88278000D03*
X146600000Y-61900000D03*
X116040000Y-143396000D03*
X59144000Y-73927000D03*
X136741000Y-136284000D03*
X62128400Y-79388000D03*
X60414000Y-135903000D03*
X51000000Y-99200000D03*
X60160000Y-79769000D03*
X127470000Y-68339000D03*
X127470000Y-78499000D03*
X147200000Y-147200000D03*
X82800000Y-149200000D03*
X100419000Y-111519000D03*
X68161000Y-95390000D03*
X65878000Y-133469778D03*
X56000000Y-61700000D03*
X67018000Y-88532000D03*
X147200000Y-145200000D03*
X70624800Y-65490400D03*
X55334000Y-75705000D03*
X146600000Y-148800000D03*
X105400000Y-61700000D03*
X107023000Y-139205000D03*
X77800000Y-61700000D03*
X51300000Y-148600000D03*
X147200000Y-137200000D03*
X100419000Y-68339000D03*
X100419000Y-98819000D03*
X131788000Y-115329000D03*
X136741000Y-145301000D03*
X110502800Y-78372000D03*
X109182000Y-123838000D03*
X110502800Y-74409600D03*
X136800000Y-149200000D03*
X106800000Y-149200000D03*
X92291000Y-146317000D03*
X81699200Y-96507600D03*
X55700000Y-116800000D03*
X113627000Y-128664000D03*
X127470000Y-91199000D03*
X85600000Y-61700000D03*
X84800000Y-149200000D03*
X128740000Y-145428000D03*
X104800000Y-149200000D03*
X107848400Y-106172000D03*
X81851600Y-107074000D03*
X51000000Y-143000000D03*
X70510400Y-92913200D03*
X76568400Y-107074000D03*
X113627000Y-132220000D03*
X131407000Y-132220000D03*
X100419000Y-114059000D03*
X64859000Y-103137000D03*
X139281000Y-88151000D03*
X108547000Y-88659000D03*
X89928800Y-101451000D03*
X107404000Y-125743000D03*
X119723000Y-88278000D03*
X133226800Y-127279600D03*
X92799000Y-138189000D03*
D57*
%TO.N,/Power_supply/VBUS1_Fused*%
X92926000Y-136538000D03*
X92265600Y-137198400D03*
D56*
%TO.N,Net-(U9-CLK_4)*%
X111468000Y-96279000D03*
%TO.N,Net-(C113-Pad1)*%
X128994000Y-140805200D03*
%TO.N,+3V3*%
X122885200Y-97078800D03*
X117183000Y-77864000D03*
X117945000Y-90183000D03*
X117183000Y-98438000D03*
X112280800Y-95542400D03*
X141821000Y-118885000D03*
X114313773Y-98437027D03*
X74511000Y-97930000D03*
X114414400Y-92648500D03*
X69685000Y-79515000D03*
X116903600Y-92648500D03*
X64376400Y-68894000D03*
X60287000Y-84595000D03*
X83769200Y-107086400D03*
X92037000Y-101105000D03*
X135090000Y-99708000D03*
X64097000Y-129553000D03*
X80467200Y-111252000D03*
X68923000Y-135776000D03*
X132677000Y-131077000D03*
X70447000Y-96914000D03*
X132700000Y-132982000D03*
X77305000Y-130213400D03*
X61049000Y-77864000D03*
X77686000Y-102502000D03*
%TO.N,Net-(U13-VC)*%
X88506400Y-122923600D03*
X90894000Y-122923600D03*
%TO.N,+5V*%
X112357000Y-134506000D03*
X55588000Y-132474000D03*
X83909000Y-117996000D03*
X144361000Y-118885000D03*
X116040000Y-109868000D03*
X116675000Y-109233000D03*
X78829000Y-131077000D03*
X79718000Y-131077000D03*
X112357000Y-133490000D03*
%TO.N,/FPGA_core/SDA*%
X113055400Y-93370400D03*
X112357000Y-99327000D03*
X78194000Y-140805200D03*
X70231000Y-139992003D03*
X59144000Y-128791000D03*
X67653000Y-133617000D03*
X75451802Y-121260869D03*
%TO.N,/FPGA_core/SCL*%
X70231000Y-139192000D03*
X113246000Y-99327000D03*
X74431689Y-121251316D03*
X67653000Y-134506000D03*
X59779000Y-129807000D03*
X79217530Y-140764000D03*
D57*
%TO.N,VBUS*%
X83655000Y-138189000D03*
D56*
X85100000Y-142700000D03*
X55588000Y-135268000D03*
X55588000Y-134252000D03*
D57*
X83655000Y-137173000D03*
D56*
%TO.N,MOSI*%
X68135600Y-140906800D03*
X103698335Y-128346135D03*
%TO.N,SCK*%
X67170400Y-140906800D03*
X99113920Y-128432000D03*
%TO.N,MISO*%
X100965001Y-128232642D03*
X69202400Y-140865600D03*
D57*
%TO.N,Net-(C106-Pad1)*%
X119697600Y-143091200D03*
X119697600Y-143904000D03*
D56*
%TO.N,10MHz_GPSDO_CLK4*%
X75196800Y-144361200D03*
%TO.N,Net-(J5-Pin_13)*%
X78981600Y-144259600D03*
%TO.N,RXD*%
X81800800Y-148577600D03*
%TO.N,TXD*%
X81800800Y-147714000D03*
%TO.N,Net-(R112-Pad1)*%
X87211000Y-101867000D03*
X98006000Y-106185000D03*
D57*
%TO.N,/Power_supply/VBUS2_Fused*%
X115379600Y-136487200D03*
X115379600Y-137401600D03*
D56*
%TO.N,Net-(R75-S)*%
X74993600Y-95745600D03*
%TO.N,10MHz_GPSDO_CLK2*%
X132804000Y-97549000D03*
%TO.N,Net-(U22-OE)*%
X131524000Y-106116400D03*
X131524000Y-103449400D03*
X132032000Y-100274400D03*
%TO.N,Net-(U9-CLK_6)*%
X115151000Y-99200000D03*
%TO.N,GPS_Ext_Int*%
X138011000Y-130188000D03*
%TO.N,Net-(U21-1Y2)*%
X106578400Y-102768400D03*
X114703200Y-79349600D03*
%TO.N,/GPSDO/OCXO_VC_Sense*%
X86957000Y-126505000D03*
X68669000Y-127394000D03*
%TO.N,Net-(U23-VCC)*%
X101968400Y-135395000D03*
X101968400Y-133134400D03*
%TO.N,/GPSDO/OCXO_VC*%
X93484800Y-118605600D03*
X87973000Y-119393000D03*
%TO.N,Net-(U21-1Y3)*%
X105537000Y-128524000D03*
X108458000Y-97536000D03*
%TO.N,Net-(R86-Pad1)*%
X119723000Y-84468000D03*
X108813600Y-86119000D03*
%TO.N,Net-(U24-VCC)*%
X123863200Y-135369600D03*
X123863200Y-133185200D03*
%TO.N,Net-(U21-OE)*%
X113868200Y-82067400D03*
X114350800Y-85090000D03*
%TO.N,Net-(U21-1Y1)*%
X120485000Y-83579000D03*
X113042800Y-82080400D03*
%TO.N,Net-(U8-AIN1)*%
X64389000Y-131953000D03*
X82042000Y-144780000D03*
%TO.N,GPS_CLK_Buff*%
X107823000Y-96520000D03*
X110540800Y-119151400D03*
X110540800Y-96570800D03*
X113766600Y-119176800D03*
%TD*%
%TO.N,/FPGA_core/SCL*%
D58*
X111087000Y-114059000D02*
X113347600Y-114059000D01*
%TO.N,MISO*%
X100838000Y-120777000D02*
X100838000Y-128105641D01*
X100838000Y-128105641D02*
X100965001Y-128232642D01*
X101206000Y-120409000D02*
X100838000Y-120777000D01*
X102578000Y-120409000D02*
X101206000Y-120409000D01*
%TO.N,GND*%
X116101000Y-115837000D02*
X117183000Y-115837000D01*
%TO.N,+3V3*%
X114201000Y-117422000D02*
X114135000Y-117488000D01*
X114201000Y-115837000D02*
X114201000Y-117422000D01*
%TO.N,Net-(U22-1Y0)*%
X131453000Y-98935900D02*
X131453000Y-95265400D01*
X133738600Y-92979800D02*
X135561800Y-92979800D01*
X131453000Y-95265400D02*
X133738600Y-92979800D01*
%TO.N,Net-(J11-In)*%
X141465000Y-92977400D02*
X139314600Y-92977400D01*
X139314600Y-92977400D02*
X139296400Y-92959200D01*
X141440000Y-93002400D02*
X141465000Y-92977400D01*
X139275800Y-92979800D02*
X139296400Y-92959200D01*
X137411800Y-92954800D02*
X137386800Y-92979800D01*
X137386800Y-92979800D02*
X139275800Y-92979800D01*
%TO.N,Net-(C105-Pad1)*%
D59*
X98006000Y-143091200D02*
X98006000Y-143904000D01*
X101776400Y-138000000D02*
X103975000Y-138000000D01*
X99279600Y-140700000D02*
X101200000Y-140700000D01*
X101200000Y-138576400D02*
X101776400Y-138000000D01*
X101200000Y-140700000D02*
X101200000Y-138576400D01*
X98006000Y-141973600D02*
X99279600Y-140700000D01*
X98006000Y-143091200D02*
X98006000Y-141973600D01*
%TO.N,Net-(C112-Pad1)*%
D58*
X106952000Y-140800000D02*
X106769000Y-140983000D01*
X108600000Y-140800000D02*
X106952000Y-140800000D01*
D59*
X109232800Y-137300000D02*
X110500000Y-137300000D01*
X108600000Y-138067200D02*
X108532800Y-138000000D01*
X105800000Y-138000000D02*
X108532800Y-138000000D01*
X108600000Y-140800000D02*
X108600000Y-138067200D01*
X108532800Y-138000000D02*
X109232800Y-137300000D01*
%TO.N,Net-(U9-CLK_2)*%
D60*
X123025000Y-76721000D02*
X123025000Y-87138257D01*
X123025000Y-87138257D02*
X118901057Y-91262200D01*
X118901057Y-91262200D02*
X111252000Y-91262200D01*
X111252000Y-91262200D02*
X110198000Y-92316200D01*
X110198000Y-92316200D02*
X110198000Y-94247000D01*
X123787000Y-75959000D02*
X123025000Y-76721000D01*
X133312000Y-75959000D02*
X123787000Y-75959000D01*
X134582000Y-74689000D02*
X133312000Y-75959000D01*
X135551000Y-74689000D02*
X134582000Y-74689000D01*
%TO.N,Net-(J15-In)*%
D58*
X139149000Y-74689000D02*
X139281000Y-74821000D01*
D60*
X141439000Y-74689000D02*
X139413000Y-74689000D01*
X137376000Y-74689000D02*
X139149000Y-74689000D01*
D58*
X139413000Y-74689000D02*
X139281000Y-74821000D01*
%TO.N,GND*%
X119948000Y-103711000D02*
X119948000Y-102018000D01*
X142990000Y-83687400D02*
X142990000Y-82562400D01*
X123383000Y-146317000D02*
X123400000Y-146300000D01*
D61*
X73200000Y-144345600D02*
X73215600Y-144361200D01*
X66200000Y-142700000D02*
X66200000Y-144400000D01*
X57400000Y-123800000D02*
X59182200Y-123800000D01*
D58*
X116700400Y-88257600D02*
X114668400Y-88257600D01*
X112039400Y-86995000D02*
X111861600Y-86995000D01*
X142990000Y-107102400D02*
X140890000Y-107102400D01*
X142964000Y-76164000D02*
X142964000Y-77336400D01*
X139296400Y-101188800D02*
X139296400Y-100091600D01*
D61*
X65200000Y-142700000D02*
X65200000Y-144400000D01*
X57400000Y-116800000D02*
X55700000Y-116800000D01*
D58*
X82258000Y-113093800D02*
X85433000Y-113093800D01*
X110061000Y-146200000D02*
X110071000Y-146190000D01*
X64946200Y-65479400D02*
X64935200Y-65490400D01*
X59178600Y-73892400D02*
X59144000Y-73927000D01*
X65798800Y-74122600D02*
X65798800Y-75124831D01*
X142990000Y-104852400D02*
X142990000Y-105902400D01*
X141340000Y-110052400D02*
X141290000Y-110002400D01*
X71666200Y-74812200D02*
X71691600Y-74786800D01*
D61*
X57400000Y-115800000D02*
X55700000Y-115800000D01*
D58*
X117970400Y-102014400D02*
X117970400Y-103289400D01*
X142990000Y-101902400D02*
X141290000Y-101902400D01*
X129248000Y-146317000D02*
X130683000Y-146317000D01*
X58128000Y-80851000D02*
X58128000Y-79769000D01*
X61025900Y-70720500D02*
X60972800Y-70773600D01*
X99801000Y-146300000D02*
X99784000Y-146317000D01*
X139281000Y-76721000D02*
X139281000Y-77864000D01*
D61*
X74200000Y-144355000D02*
X74206200Y-144361200D01*
D58*
X72121200Y-92920800D02*
X70518000Y-92920800D01*
X67913600Y-83300300D02*
X69025300Y-83300300D01*
D61*
X111202000Y-107455000D02*
X108674000Y-107455000D01*
D58*
X108600000Y-146200000D02*
X107160000Y-146200000D01*
X60160000Y-80851000D02*
X60160000Y-79769000D01*
X130917000Y-146317000D02*
X130800000Y-146200000D01*
X142990000Y-78487400D02*
X142990000Y-77362400D01*
X117547000Y-146300000D02*
X117564000Y-146317000D01*
X130803000Y-98935900D02*
X130803000Y-97541000D01*
D61*
X65200000Y-140916000D02*
X65200000Y-142700000D01*
D58*
X115989200Y-102014400D02*
X115989200Y-103289400D01*
D61*
X57400000Y-115800000D02*
X59181000Y-115800000D01*
D58*
X132423000Y-146317000D02*
X130917000Y-146317000D01*
X69255000Y-65479400D02*
X70613800Y-65479400D01*
X141315000Y-86637400D02*
X141290000Y-86662400D01*
X92308000Y-146300000D02*
X92291000Y-146317000D01*
X142964000Y-77336400D02*
X142990000Y-77362400D01*
X139296400Y-95956400D02*
X139296400Y-94859200D01*
X141340000Y-99652400D02*
X141290000Y-99702400D01*
X142990000Y-90209000D02*
X142964000Y-90183000D01*
X108600000Y-146200000D02*
X110061000Y-146200000D01*
X142990000Y-94452400D02*
X141340000Y-94452400D01*
X62131000Y-79390600D02*
X62128400Y-79388000D01*
X69685000Y-75757000D02*
X69685000Y-74812200D01*
X71652200Y-75757000D02*
X71666200Y-75771000D01*
X62131000Y-80663500D02*
X62131000Y-79390600D01*
X142990000Y-107102400D02*
X142990000Y-105902400D01*
X141315000Y-83687400D02*
X141290000Y-83662400D01*
X116000000Y-146300000D02*
X117547000Y-146300000D01*
X141340000Y-104852400D02*
X141290000Y-104802400D01*
D61*
X59192600Y-116800000D02*
X59194800Y-116802200D01*
D58*
X61978600Y-70720500D02*
X61025900Y-70720500D01*
X95322000Y-146300000D02*
X95339000Y-146317000D01*
X142990000Y-91502400D02*
X142990000Y-90209000D01*
X142990000Y-81437400D02*
X142990000Y-82562400D01*
X119948000Y-103711000D02*
X121948000Y-103711000D01*
X121948000Y-102568000D02*
X121932800Y-102552800D01*
X142990000Y-99652400D02*
X142990000Y-100802400D01*
X125185900Y-134607600D02*
X125185900Y-132221900D01*
X112636400Y-88257600D02*
X112636400Y-87592000D01*
X81342100Y-113093800D02*
X82258000Y-113093800D01*
X142964000Y-73214000D02*
X142964000Y-71895000D01*
X142990000Y-99652400D02*
X141340000Y-99652400D01*
X112636400Y-88257600D02*
X114668400Y-88257600D01*
X71666200Y-75771000D02*
X71666200Y-74812200D01*
X142990000Y-78487400D02*
X141315000Y-78487400D01*
X142990000Y-104852400D02*
X141340000Y-104852400D01*
X142990000Y-81437400D02*
X141315000Y-81437400D01*
X142990000Y-110052400D02*
X142990000Y-111302400D01*
X69710400Y-70697400D02*
X69710400Y-71789600D01*
X139296400Y-83002400D02*
X139296400Y-81905200D01*
X142990000Y-110052400D02*
X141340000Y-110052400D01*
X142990000Y-94452400D02*
X142990000Y-95602400D01*
X130683000Y-146317000D02*
X130800000Y-146200000D01*
X112636400Y-87592000D02*
X112039400Y-86995000D01*
X116000000Y-146300000D02*
X114406000Y-146300000D01*
X67079200Y-75909600D02*
X67079200Y-76532400D01*
X130803000Y-100233400D02*
X130762000Y-100274400D01*
X130803000Y-97541000D02*
X130812800Y-97531200D01*
X141315000Y-81437400D02*
X141290000Y-81462400D01*
X141315000Y-78487400D02*
X141290000Y-78462400D01*
X107160000Y-146200000D02*
X107150000Y-146190000D01*
X121948000Y-103711000D02*
X121948000Y-102568000D01*
X93800000Y-146300000D02*
X95322000Y-146300000D01*
X142990000Y-96702400D02*
X141290000Y-96702400D01*
X142990000Y-83687400D02*
X141315000Y-83687400D01*
D61*
X57400000Y-116800000D02*
X59192600Y-116800000D01*
D58*
X70613800Y-65479400D02*
X70624800Y-65490400D01*
X101200000Y-146300000D02*
X99801000Y-146300000D01*
X142990000Y-101902400D02*
X142990000Y-100802400D01*
X130803000Y-98935900D02*
X130803000Y-100233400D01*
D61*
X57400000Y-124800000D02*
X59200000Y-124800000D01*
D58*
X114406000Y-146300000D02*
X114389000Y-146317000D01*
X66305000Y-65479400D02*
X64946200Y-65479400D01*
D61*
X74200000Y-142700000D02*
X74200000Y-144355000D01*
X59182200Y-123800000D02*
X59194800Y-123812600D01*
D58*
X131550400Y-121666200D02*
X131550400Y-120472400D01*
X142990000Y-86637400D02*
X142990000Y-87762400D01*
X116700400Y-88257600D02*
X118102400Y-88257600D01*
X141340000Y-94452400D02*
X141290000Y-94502400D01*
X125185900Y-132221900D02*
X125184000Y-132220000D01*
X118102400Y-88257600D02*
X118122800Y-88278000D01*
D61*
X73200000Y-142700000D02*
X73200000Y-144345600D01*
D58*
X67079200Y-76532400D02*
X66852800Y-76758800D01*
X139296400Y-88135600D02*
X139281000Y-88151000D01*
X66852800Y-76758800D02*
X65582800Y-76758800D01*
X139296400Y-111552000D02*
X139296400Y-110470000D01*
X60538800Y-73892400D02*
X59178600Y-73892400D01*
X139296400Y-106370400D02*
X139296400Y-105273200D01*
X69685000Y-74812200D02*
X69710400Y-74786800D01*
X119951600Y-102014400D02*
X117970400Y-102014400D01*
X142990000Y-86637400D02*
X141315000Y-86637400D01*
X69025300Y-83300300D02*
X69050000Y-83325000D01*
X139296400Y-87086800D02*
X139296400Y-88135600D01*
X70518000Y-92920800D02*
X70510400Y-92913200D01*
X119948000Y-102018000D02*
X119951600Y-102014400D01*
X134224500Y-67069000D02*
X135471000Y-67069000D01*
D61*
X59181000Y-115800000D02*
X59194800Y-115786200D01*
D58*
X142990000Y-91502400D02*
X141290000Y-91502400D01*
X121882000Y-146317000D02*
X123383000Y-146317000D01*
X93800000Y-146300000D02*
X92308000Y-146300000D01*
D61*
X66200000Y-140916000D02*
X66200000Y-142700000D01*
D58*
X142990000Y-96702400D02*
X142990000Y-95602400D01*
X115989200Y-102014400D02*
X117970400Y-102014400D01*
%TO.N,/Power_supply/VBUS1_Fused*%
D62*
X90194524Y-139269476D02*
X88226292Y-139269476D01*
D61*
X92926000Y-135202000D02*
X92926000Y-136538000D01*
D62*
X93800000Y-140700000D02*
X93800000Y-137412000D01*
X93800000Y-137412000D02*
X92926000Y-136538000D01*
X92926000Y-136538000D02*
X90194524Y-139269476D01*
%TO.N,Net-(D1-K)*%
D58*
X131550400Y-125224500D02*
X131550400Y-123491200D01*
%TO.N,Net-(J6-In)*%
D60*
X141465000Y-79962400D02*
X139339200Y-79962400D01*
D58*
X139339200Y-79962400D02*
X139296400Y-80005200D01*
X139231000Y-79939800D02*
X139296400Y-80005200D01*
D60*
X137386800Y-79939800D02*
X139231000Y-79939800D01*
%TO.N,Net-(U9-CLK_4)*%
X120739000Y-91961000D02*
X124041000Y-88659000D01*
X111468000Y-92443200D02*
X111950200Y-91961000D01*
X127978000Y-88659000D02*
X135561800Y-81075200D01*
X124041000Y-88659000D02*
X127978000Y-88659000D01*
X135561800Y-81075200D02*
X135561800Y-79939800D01*
X111468000Y-96279000D02*
X111468000Y-92443200D01*
X111950200Y-91961000D02*
X120739000Y-91961000D01*
%TO.N,Net-(C113-Pad1)*%
D59*
X130822800Y-137300000D02*
X132700000Y-137300000D01*
X129462400Y-138000000D02*
X130162400Y-137300000D01*
X130800000Y-140800000D02*
X130800000Y-137322800D01*
D61*
X130794800Y-140805200D02*
X130800000Y-140800000D01*
D59*
X130162400Y-137300000D02*
X130822800Y-137300000D01*
D61*
X128994000Y-140805200D02*
X130794800Y-140805200D01*
D59*
X128000000Y-138000000D02*
X129462400Y-138000000D01*
X130800000Y-137322800D02*
X130822800Y-137300000D01*
%TO.N,+3V3*%
D60*
X64031000Y-81989000D02*
X64031000Y-82938500D01*
D58*
X67729200Y-78292000D02*
X67915500Y-78478300D01*
X71652200Y-77657000D02*
X71666200Y-77671000D01*
D60*
X60160000Y-82751000D02*
X60160000Y-84468000D01*
D61*
X116700400Y-90157600D02*
X112636400Y-90157600D01*
D58*
X70949200Y-95420800D02*
X70447000Y-95923000D01*
D61*
X114922400Y-100114400D02*
X115989200Y-100114400D01*
D58*
X60538800Y-76392400D02*
X60538800Y-77353800D01*
X79567100Y-112152100D02*
X80467200Y-111252000D01*
D60*
X60160000Y-82751000D02*
X60160000Y-82182000D01*
D58*
X69685000Y-77657000D02*
X69685000Y-79515000D01*
D60*
X60541000Y-81801000D02*
X63843000Y-81801000D01*
D58*
X69685000Y-77657000D02*
X71652200Y-77657000D01*
X67729200Y-77584600D02*
X68342600Y-77584600D01*
D60*
X60160000Y-82182000D02*
X60541000Y-81801000D01*
D58*
X63878600Y-69391800D02*
X64376400Y-68894000D01*
X67915500Y-81368000D02*
X67917400Y-81369900D01*
X79567100Y-112443800D02*
X79567100Y-113093800D01*
X69600700Y-79430700D02*
X69685000Y-79515000D01*
D61*
X116700400Y-90157600D02*
X116671711Y-90186289D01*
D58*
X67915500Y-79430700D02*
X69600700Y-79430700D01*
X67915500Y-79430700D02*
X67915500Y-81368000D01*
X130547100Y-134500000D02*
X130439500Y-134607600D01*
D61*
X117970400Y-100114400D02*
X117995800Y-100089000D01*
D60*
X60160000Y-84468000D02*
X60287000Y-84595000D01*
D58*
X63878600Y-70720500D02*
X63878600Y-69391800D01*
X67729200Y-77584600D02*
X67729200Y-78292000D01*
D61*
X117183000Y-98438000D02*
X117182028Y-98437028D01*
D58*
X132700000Y-134500000D02*
X130547100Y-134500000D01*
D59*
X132700000Y-131100000D02*
X132677000Y-131077000D01*
D58*
X80467200Y-110388400D02*
X83769200Y-107086400D01*
X80467200Y-111252000D02*
X80467200Y-110388400D01*
X65798800Y-68897800D02*
X64380200Y-68897800D01*
X68415000Y-77657000D02*
X69685000Y-77657000D01*
X64380200Y-68897800D02*
X64376400Y-68894000D01*
X72121200Y-95420800D02*
X70949200Y-95420800D01*
X67915500Y-78478300D02*
X67915500Y-79430700D01*
D61*
X114313773Y-98437027D02*
X114313773Y-99505773D01*
X115989200Y-100114400D02*
X117970400Y-100114400D01*
D58*
X68342600Y-77584600D02*
X68415000Y-77657000D01*
D61*
X117970400Y-100114400D02*
X119951600Y-100114400D01*
D58*
X70447000Y-95923000D02*
X70447000Y-96914000D01*
D62*
X132700000Y-134500000D02*
X132700000Y-131100000D01*
D61*
X114639711Y-90186289D02*
X114668400Y-90157600D01*
D58*
X60538800Y-77353800D02*
X61049000Y-77864000D01*
D61*
X116725800Y-90183000D02*
X116700400Y-90157600D01*
X117945000Y-90183000D02*
X116725800Y-90183000D01*
D60*
X58128000Y-82751000D02*
X60160000Y-82751000D01*
D61*
X114313773Y-99505773D02*
X114922400Y-100114400D01*
D60*
X63843000Y-81801000D02*
X64031000Y-81989000D01*
D58*
X79567100Y-112443800D02*
X79567100Y-112152100D01*
%TO.N,Net-(J13-In)*%
X137411800Y-103354800D02*
X137386800Y-103379800D01*
X141465000Y-103377400D02*
X139300600Y-103377400D01*
X139300600Y-103377400D02*
X139296400Y-103373200D01*
X139289800Y-103379800D02*
X139296400Y-103373200D01*
X141440000Y-103402400D02*
X141465000Y-103377400D01*
X137386800Y-103379800D02*
X139289800Y-103379800D01*
%TO.N,Net-(U13-VC)*%
X88506400Y-122923600D02*
X90894000Y-122923600D01*
%TO.N,+5V*%
X110443200Y-134556800D02*
X110500000Y-134500000D01*
D61*
X55914000Y-132800000D02*
X55588000Y-132474000D01*
X57400000Y-132800000D02*
X55914000Y-132800000D01*
D62*
X116675000Y-108598000D02*
X116675000Y-109233000D01*
D59*
X112357000Y-133490000D02*
X112357000Y-134506000D01*
D58*
X119948000Y-106468000D02*
X119848000Y-106568000D01*
D59*
X112351000Y-134500000D02*
X112357000Y-134506000D01*
D62*
X116675000Y-108598000D02*
X116675000Y-107582000D01*
X110500000Y-134500000D02*
X112351000Y-134500000D01*
D58*
X119848000Y-106568000D02*
X119848000Y-107455000D01*
D59*
X116802000Y-107455000D02*
X119848000Y-107455000D01*
X116675000Y-107582000D02*
X116802000Y-107455000D01*
D58*
X108341500Y-134556800D02*
X110443200Y-134556800D01*
X119948000Y-105611000D02*
X119948000Y-106468000D01*
%TO.N,Net-(C70-Pad1)*%
X65798800Y-70722800D02*
X67725400Y-70722800D01*
X67725400Y-70722800D02*
X67754600Y-70752000D01*
X67754600Y-72301400D02*
X67754600Y-70752000D01*
X65798800Y-72297600D02*
X65798800Y-70722800D01*
%TO.N,/FPGA_core/SDA*%
X75451802Y-121222602D02*
X75451802Y-121260869D01*
X72953498Y-120651316D02*
X74880516Y-120651316D01*
X80207000Y-116770000D02*
X75716131Y-121260869D01*
X75716131Y-121260869D02*
X75451802Y-121260869D01*
X113080800Y-98603200D02*
X113080800Y-93395800D01*
X80207000Y-114583699D02*
X80207000Y-116770000D01*
X74880516Y-120651316D02*
X75451802Y-121222602D01*
X78194000Y-142694000D02*
X78200000Y-142700000D01*
X67653000Y-133617000D02*
X66929000Y-134341000D01*
X57409000Y-128791000D02*
X57400000Y-128800000D01*
X79567100Y-113943799D02*
X80207000Y-114583699D01*
X66929000Y-134341000D02*
X66929000Y-136779000D01*
X79567100Y-113743800D02*
X79567100Y-113943799D01*
X67653000Y-133617000D02*
X67253000Y-133217000D01*
X67253000Y-133217000D02*
X67253000Y-126351814D01*
X113080800Y-93395800D02*
X113055400Y-93370400D01*
X78194000Y-140805200D02*
X78194000Y-142694000D01*
X70142003Y-139992003D02*
X70231000Y-139992003D01*
X112357000Y-99327000D02*
X113080800Y-98603200D01*
X66929000Y-136779000D02*
X70142003Y-139992003D01*
X59144000Y-128791000D02*
X57409000Y-128791000D01*
X67253000Y-126351814D02*
X72953498Y-120651316D01*
%TO.N,/FPGA_core/SCL*%
X67653000Y-136868000D02*
X69977000Y-139192000D01*
X59772000Y-129800000D02*
X57400000Y-129800000D01*
X79200000Y-140781530D02*
X79217530Y-140764000D01*
X68288000Y-133871000D02*
X68288000Y-133363000D01*
X67653000Y-126517500D02*
X72910900Y-121259600D01*
X74431689Y-121269289D02*
X74431689Y-121251316D01*
X67653000Y-134506000D02*
X68288000Y-133871000D01*
X59779000Y-129807000D02*
X59772000Y-129800000D01*
X81342100Y-113743800D02*
X81342100Y-114085500D01*
X75031600Y-121869200D02*
X74431689Y-121269289D01*
X75692000Y-121869200D02*
X75031600Y-121869200D01*
X80619600Y-114808000D02*
X80619600Y-116941600D01*
X67653000Y-132728000D02*
X67653000Y-126517500D01*
X80619600Y-116941600D02*
X75692000Y-121869200D01*
X69977000Y-139192000D02*
X70231000Y-139192000D01*
X68288000Y-133363000D02*
X67653000Y-132728000D01*
X67653000Y-134506000D02*
X67653000Y-136868000D01*
X79200000Y-142700000D02*
X79200000Y-140781530D01*
X72910900Y-121259600D02*
X74423405Y-121259600D01*
X81342100Y-114085500D02*
X80619600Y-114808000D01*
X74423405Y-121259600D02*
X74431689Y-121251316D01*
%TO.N,VBUS*%
D62*
X83655000Y-139459000D02*
X83655000Y-137046000D01*
X83655000Y-140602000D02*
X83655000Y-139459000D01*
D59*
X83655000Y-139459000D02*
X83844524Y-139269476D01*
X84200000Y-141147000D02*
X84200000Y-142700000D01*
D61*
X57400000Y-134800000D02*
X56056000Y-134800000D01*
X56040000Y-133800000D02*
X55588000Y-134252000D01*
D58*
X85100000Y-142700000D02*
X84200000Y-142700000D01*
D59*
X83200000Y-142700000D02*
X83200000Y-141057000D01*
D62*
X83844524Y-139269476D02*
X85426292Y-139269476D01*
D59*
X83200000Y-141057000D02*
X83655000Y-140602000D01*
X83655000Y-137046000D02*
X83756600Y-136944400D01*
D61*
X56056000Y-134800000D02*
X55588000Y-135268000D01*
X57400000Y-133800000D02*
X56040000Y-133800000D01*
D62*
X83756600Y-136944400D02*
X85430000Y-136944400D01*
D59*
X83655000Y-140602000D02*
X84200000Y-141147000D01*
%TO.N,Net-(D2-COM)*%
D58*
X67754600Y-68852000D02*
X67754600Y-67878000D01*
X62928600Y-67954200D02*
X62928600Y-68845500D01*
X69710400Y-68872400D02*
X67775000Y-68872400D01*
X67775000Y-68872400D02*
X67754600Y-68852000D01*
X67754600Y-67878000D02*
X63004800Y-67878000D01*
X63004800Y-67878000D02*
X62928600Y-67954200D01*
X67754600Y-67029800D02*
X67780000Y-67004400D01*
X67754600Y-67878000D02*
X67754600Y-67029800D01*
%TO.N,Net-(U18-+)*%
X67729200Y-74151800D02*
X67754600Y-74126400D01*
X67729200Y-75909600D02*
X67729200Y-74151800D01*
%TO.N,unconnected-(U6-PIN38_IOB31B_TF_CS-Pad1)*%
X101791550Y-66730000D02*
X102791550Y-66730000D01*
%TO.N,CH_A*%
D60*
X97624684Y-75575000D02*
X97624684Y-77229000D01*
X96378684Y-77229000D02*
X96200684Y-77229000D01*
X99404684Y-75575000D02*
X99404684Y-76873000D01*
X95087655Y-77229000D02*
X94577000Y-77229000D01*
X97624684Y-77585000D02*
X97624684Y-78883000D01*
X102578000Y-77229000D02*
X100650684Y-77229000D01*
X91275000Y-73927000D02*
X91275000Y-67323000D01*
X99938684Y-75219000D02*
X99760684Y-75219000D01*
X98158684Y-75219000D02*
X97980684Y-75219000D01*
X98514684Y-77229000D02*
X98514684Y-75575000D01*
X96734684Y-78883000D02*
X96734684Y-77585000D01*
X97268684Y-79239000D02*
X97090684Y-79239000D01*
X99048684Y-79239000D02*
X98870684Y-79239000D01*
X98514684Y-78883000D02*
X98514684Y-77229000D01*
X94577000Y-77229000D02*
X91275000Y-73927000D01*
X99404684Y-76873000D02*
X99404684Y-77229000D01*
X99404684Y-77229000D02*
X99404684Y-78883000D01*
X96200684Y-77229000D02*
X95087655Y-77229000D01*
X97624684Y-77229000D02*
X97624684Y-77585000D01*
X100294684Y-76873000D02*
X100294684Y-75575000D01*
X97624684Y-78883000D02*
G75*
G02*
X97268684Y-79238984I-355984J0D01*
G01*
X96734684Y-77585000D02*
G75*
G03*
X96378684Y-77229016I-355984J0D01*
G01*
X98514684Y-75575000D02*
G75*
G03*
X98158684Y-75219016I-355984J0D01*
G01*
X97980684Y-75219000D02*
G75*
G03*
X97624700Y-75575000I16J-356000D01*
G01*
X99404684Y-78883000D02*
G75*
G02*
X99048684Y-79238984I-355984J0D01*
G01*
X98870684Y-79239000D02*
G75*
G02*
X98514700Y-78883000I16J356000D01*
G01*
X97090684Y-79239000D02*
G75*
G02*
X96734700Y-78883000I16J356000D01*
G01*
X99760684Y-75219000D02*
G75*
G03*
X99404700Y-75575000I16J-356000D01*
G01*
X100294684Y-75575000D02*
G75*
G03*
X99938684Y-75219016I-355984J0D01*
G01*
X100650684Y-77229000D02*
G75*
G02*
X100294700Y-76873000I16J356000D01*
G01*
%TO.N,CH_B*%
X87338000Y-82309000D02*
X102578000Y-82309000D01*
X78421403Y-73392403D02*
X87338000Y-82309000D01*
X78421403Y-67323000D02*
X78421403Y-73392403D01*
%TO.N,unconnected-(U6-PIN28_IOB11B-Pad8)*%
D58*
X101939200Y-84852800D02*
X101943000Y-84849000D01*
X102574200Y-84852800D02*
X102578000Y-84849000D01*
%TO.N,MOSI*%
X104648000Y-113716000D02*
X104648000Y-127396470D01*
X68200000Y-142700000D02*
X68200000Y-140971200D01*
X104648000Y-127396470D02*
X103698335Y-128346135D01*
X103721000Y-112789000D02*
X104648000Y-113716000D01*
X102578000Y-112789000D02*
X103721000Y-112789000D01*
X68200000Y-140971200D02*
X68135600Y-140906800D01*
%TO.N,SCK*%
X99949000Y-120087626D02*
X99949000Y-120199626D01*
X99725000Y-118183626D02*
X99173000Y-118183626D01*
X99949000Y-122439626D02*
X99949000Y-123315453D01*
X99725000Y-119303626D02*
X99173000Y-119303626D01*
X98949000Y-119527626D02*
X98949000Y-119639626D01*
X98949000Y-121767626D02*
X98949000Y-121879626D01*
X99173000Y-120983626D02*
X99725000Y-120983626D01*
X99173000Y-118743626D02*
X99725000Y-118743626D01*
X98949000Y-118407626D02*
X98949000Y-118519626D01*
X99173000Y-122103626D02*
X99725000Y-122103626D01*
X99949000Y-121207626D02*
X99949000Y-121319626D01*
X99949000Y-122327626D02*
X99949000Y-122439626D01*
X99949000Y-116713000D02*
X99949000Y-117959626D01*
X99949000Y-123315453D02*
X99949000Y-127596920D01*
X101333000Y-115329000D02*
X99949000Y-116713000D01*
X99725000Y-121543626D02*
X99173000Y-121543626D01*
X99949000Y-118967626D02*
X99949000Y-119079626D01*
X99725000Y-120423626D02*
X99173000Y-120423626D01*
X67200000Y-140936400D02*
X67170400Y-140906800D01*
X99949000Y-127596920D02*
X99113920Y-128432000D01*
X102578000Y-115329000D02*
X101333000Y-115329000D01*
X99173000Y-119863626D02*
X99725000Y-119863626D01*
X67200000Y-142700000D02*
X67200000Y-140936400D01*
X98949000Y-120647626D02*
X98949000Y-120759626D01*
X99725000Y-119863626D02*
G75*
G02*
X99948974Y-120087626I0J-223974D01*
G01*
X99725000Y-118743626D02*
G75*
G02*
X99948974Y-118967626I0J-223974D01*
G01*
X98949000Y-118519626D02*
G75*
G03*
X99173000Y-118743600I224000J26D01*
G01*
X99173000Y-118183626D02*
G75*
G03*
X98949026Y-118407626I0J-223974D01*
G01*
X99173000Y-120423626D02*
G75*
G03*
X98949026Y-120647626I0J-223974D01*
G01*
X99725000Y-120983626D02*
G75*
G02*
X99948974Y-121207626I0J-223974D01*
G01*
X99949000Y-119079626D02*
G75*
G02*
X99725000Y-119303600I-224000J26D01*
G01*
X99173000Y-119303626D02*
G75*
G03*
X98949026Y-119527626I0J-223974D01*
G01*
X99725000Y-122103626D02*
G75*
G02*
X99948974Y-122327626I0J-223974D01*
G01*
X98949000Y-120759626D02*
G75*
G03*
X99173000Y-120983600I224000J26D01*
G01*
X98949000Y-119639626D02*
G75*
G03*
X99173000Y-119863600I224000J26D01*
G01*
X99949000Y-120199626D02*
G75*
G02*
X99725000Y-120423600I-224000J26D01*
G01*
X99173000Y-121543626D02*
G75*
G03*
X98949026Y-121767626I0J-223974D01*
G01*
X98949000Y-121879626D02*
G75*
G03*
X99173000Y-122103600I224000J26D01*
G01*
X99949000Y-121319626D02*
G75*
G02*
X99725000Y-121543600I-224000J26D01*
G01*
X99949000Y-117959626D02*
G75*
G02*
X99725000Y-118183600I-224000J26D01*
G01*
%TO.N,FPGA_CS*%
X97568092Y-128871631D02*
X97568092Y-128111631D01*
X89011684Y-129091631D02*
X89648092Y-129091631D01*
X90418092Y-128111631D02*
X90418092Y-128871631D01*
X94268092Y-128871631D02*
X94268092Y-128111631D01*
X94818092Y-128111631D02*
X94818092Y-128871631D01*
X99302818Y-129091631D02*
X100349000Y-128045449D01*
X84359314Y-130823000D02*
X87280315Y-130823000D01*
X97788092Y-127891631D02*
X97898092Y-127891631D01*
X96688092Y-127891631D02*
X96798092Y-127891631D01*
X94488092Y-127891631D02*
X94598092Y-127891631D01*
X90638092Y-129091631D02*
X90748092Y-129091631D01*
X98118092Y-128111631D02*
X98118092Y-128871631D01*
X92838092Y-129091631D02*
X92948092Y-129091631D01*
X95588092Y-127891631D02*
X95698092Y-127891631D01*
X70200000Y-142700000D02*
X70200000Y-141357000D01*
X100349000Y-128045449D02*
X100349000Y-118574000D01*
X93938092Y-129091631D02*
X94048092Y-129091631D01*
X95368092Y-128871631D02*
X95368092Y-128111631D01*
X98621583Y-129091631D02*
X99302818Y-129091631D01*
X90968092Y-128871631D02*
X90968092Y-128111631D01*
X98338092Y-129091631D02*
X98448092Y-129091631D01*
X100349000Y-118574000D02*
X101054000Y-117869000D01*
X92288092Y-127891631D02*
X92398092Y-127891631D01*
X91188092Y-127891631D02*
X91298092Y-127891631D01*
X70955000Y-140602000D02*
X74580314Y-140602000D01*
X91738092Y-129091631D02*
X91848092Y-129091631D01*
X91518092Y-128111631D02*
X91518092Y-128871631D01*
X89868092Y-128871631D02*
X89868092Y-128111631D01*
X95918092Y-128111631D02*
X95918092Y-128871631D01*
X87280315Y-130823000D02*
X89011684Y-129091631D01*
X97238092Y-129091631D02*
X97348092Y-129091631D01*
X96468092Y-128871631D02*
X96468092Y-128111631D01*
X90088092Y-127891631D02*
X90198092Y-127891631D01*
X93168092Y-128871631D02*
X93168092Y-128111631D01*
X70200000Y-141357000D02*
X70955000Y-140602000D01*
X74580314Y-140602000D02*
X84359314Y-130823000D01*
X96138092Y-129091631D02*
X96248092Y-129091631D01*
X98448092Y-129091631D02*
X98621583Y-129091631D01*
X93388092Y-127891631D02*
X93498092Y-127891631D01*
X93718092Y-128111631D02*
X93718092Y-128871631D01*
X97018092Y-128111631D02*
X97018092Y-128871631D01*
X92618092Y-128111631D02*
X92618092Y-128871631D01*
X95038092Y-129091631D02*
X95148092Y-129091631D01*
X101054000Y-117869000D02*
X102578000Y-117869000D01*
X92068092Y-128871631D02*
X92068092Y-128111631D01*
X97348092Y-129091631D02*
G75*
G03*
X97568131Y-128871631I8J220031D01*
G01*
X94268092Y-128111631D02*
G75*
G02*
X94488092Y-127891592I220008J31D01*
G01*
X94818092Y-128871631D02*
G75*
G03*
X95038092Y-129091608I220008J31D01*
G01*
X91848092Y-129091631D02*
G75*
G03*
X92068131Y-128871631I8J220031D01*
G01*
X90968092Y-128111631D02*
G75*
G02*
X91188092Y-127891592I220008J31D01*
G01*
X97568092Y-128111631D02*
G75*
G02*
X97788092Y-127891592I220008J31D01*
G01*
X90198092Y-127891631D02*
G75*
G02*
X90418069Y-128111631I8J-219969D01*
G01*
X97018092Y-128871631D02*
G75*
G03*
X97238092Y-129091608I220008J31D01*
G01*
X92948092Y-129091631D02*
G75*
G03*
X93168131Y-128871631I8J220031D01*
G01*
X90418092Y-128871631D02*
G75*
G03*
X90638092Y-129091608I220008J31D01*
G01*
X95698092Y-127891631D02*
G75*
G02*
X95918069Y-128111631I8J-219969D01*
G01*
X94598092Y-127891631D02*
G75*
G02*
X94818069Y-128111631I8J-219969D01*
G01*
X97898092Y-127891631D02*
G75*
G02*
X98118069Y-128111631I8J-219969D01*
G01*
X93718092Y-128871631D02*
G75*
G03*
X93938092Y-129091608I220008J31D01*
G01*
X95148092Y-129091631D02*
G75*
G03*
X95368131Y-128871631I8J220031D01*
G01*
X95918092Y-128871631D02*
G75*
G03*
X96138092Y-129091608I220008J31D01*
G01*
X89648092Y-129091631D02*
G75*
G03*
X89868131Y-128871631I8J220031D01*
G01*
X93168092Y-128111631D02*
G75*
G02*
X93388092Y-127891592I220008J31D01*
G01*
X96468092Y-128111631D02*
G75*
G02*
X96688092Y-127891592I220008J31D01*
G01*
X95368092Y-128111631D02*
G75*
G02*
X95588092Y-127891592I220008J31D01*
G01*
X92618092Y-128871631D02*
G75*
G03*
X92838092Y-129091608I220008J31D01*
G01*
X90748092Y-129091631D02*
G75*
G03*
X90968131Y-128871631I8J220031D01*
G01*
X91298092Y-127891631D02*
G75*
G02*
X91518069Y-128111631I8J-219969D01*
G01*
X96248092Y-129091631D02*
G75*
G03*
X96468131Y-128871631I8J220031D01*
G01*
X92398092Y-127891631D02*
G75*
G02*
X92618069Y-128111631I8J-219969D01*
G01*
X93498092Y-127891631D02*
G75*
G02*
X93718069Y-128111631I8J-219969D01*
G01*
X98118092Y-128871631D02*
G75*
G03*
X98338092Y-129091608I220008J31D01*
G01*
X91518092Y-128871631D02*
G75*
G03*
X91738092Y-129091608I220008J31D01*
G01*
X92068092Y-128111631D02*
G75*
G02*
X92288092Y-127891592I220008J31D01*
G01*
X96798092Y-127891631D02*
G75*
G02*
X97018069Y-128111631I8J-219969D01*
G01*
X89868092Y-128111631D02*
G75*
G02*
X90088092Y-127891592I220008J31D01*
G01*
X94048092Y-129091631D02*
G75*
G03*
X94268131Y-128871631I8J220031D01*
G01*
%TO.N,MISO*%
X69200000Y-140868000D02*
X69202400Y-140865600D01*
X69200000Y-142700000D02*
X69200000Y-140868000D01*
%TO.N,FPGA_Int*%
X122898000Y-115329000D02*
X125394900Y-115329000D01*
X84525000Y-131223000D02*
X87446001Y-131223000D01*
X87446001Y-131223000D02*
X88989000Y-129680000D01*
X74746000Y-141002000D02*
X84525000Y-131223000D01*
X88989000Y-129680000D02*
X108547000Y-129680000D01*
X72200000Y-142700000D02*
X72200000Y-141500000D01*
X108547000Y-129680000D02*
X122898000Y-115329000D01*
%TO.N,Net-(U6-+5V)*%
D59*
X121973000Y-107455000D02*
X121973000Y-108435000D01*
D58*
X121948000Y-107430000D02*
X121973000Y-107455000D01*
X121948000Y-105611000D02*
X121948000Y-107430000D01*
D59*
X121973000Y-108435000D02*
X123787000Y-110249000D01*
X123787000Y-110249000D02*
X125394900Y-110249000D01*
%TO.N,Net-(D5-A)*%
D58*
X128945500Y-67069000D02*
X125394900Y-67069000D01*
%TO.N,Net-(D3-K)*%
X104963700Y-134556800D02*
X106466500Y-134556800D01*
%TO.N,Net-(C106-Pad1)*%
D59*
X119697600Y-142532400D02*
X119697600Y-143904000D01*
X123400000Y-138626800D02*
X124026800Y-138000000D01*
X123400000Y-140700000D02*
X123396400Y-140703600D01*
X124026800Y-138000000D02*
X126175000Y-138000000D01*
X123396400Y-140703600D02*
X121526400Y-140703600D01*
X123400000Y-140700000D02*
X123400000Y-138626800D01*
X121526400Y-140703600D02*
X119697600Y-142532400D01*
%TO.N,Net-(R82-Pad2)*%
D58*
X66092400Y-83296500D02*
X66088600Y-83300300D01*
X63520500Y-79430700D02*
X66090500Y-79430700D01*
X66429200Y-78220400D02*
X66429200Y-77584600D01*
X66090500Y-79430700D02*
X66090500Y-78559100D01*
X66090500Y-81368000D02*
X66092400Y-81369900D01*
X66090500Y-78559100D02*
X66429200Y-78220400D01*
X66092400Y-81369900D02*
X66092400Y-83296500D01*
X66090500Y-79430700D02*
X66090500Y-81368000D01*
X63081000Y-79870200D02*
X63520500Y-79430700D01*
X63081000Y-80663500D02*
X63081000Y-79870200D01*
%TO.N,Net-(J12-In)*%
X137386800Y-98179800D02*
X139284600Y-98179800D01*
X141465000Y-98177400D02*
X139310600Y-98177400D01*
X137411800Y-98154800D02*
X137386800Y-98179800D01*
X139310600Y-98177400D02*
X139296400Y-98191600D01*
X141440000Y-98202400D02*
X141465000Y-98177400D01*
X139284600Y-98179800D02*
X139296400Y-98191600D01*
%TO.N,10MHz_GPSDO_CLK4*%
X75200000Y-142700000D02*
X75200000Y-144358000D01*
X75200000Y-144358000D02*
X75196800Y-144361200D01*
%TO.N,Net-(J5-Pin_13)*%
X77200000Y-142700000D02*
X77200000Y-143900000D01*
X77200000Y-143900000D02*
X77559600Y-144259600D01*
X77559600Y-144259600D02*
X78981600Y-144259600D01*
%TO.N,RXD*%
X80200000Y-142700000D02*
X80200000Y-146976800D01*
X80200000Y-146976800D02*
X81800800Y-148577600D01*
%TO.N,TXD*%
X81200000Y-142700000D02*
X81200000Y-147113200D01*
X81200000Y-147113200D02*
X81800800Y-147714000D01*
%TO.N,Net-(U22-1Y1)*%
X133937000Y-100020400D02*
X133937000Y-98877400D01*
X130803000Y-103154400D02*
X133937000Y-100020400D01*
X130803000Y-104660900D02*
X130803000Y-103154400D01*
X134634600Y-98179800D02*
X135561800Y-98179800D01*
X133937000Y-98877400D02*
X134634600Y-98179800D01*
%TO.N,Net-(R112-Pad1)*%
D60*
X62131000Y-82938500D02*
X62131000Y-84788000D01*
X62131000Y-84788000D02*
X62827000Y-85484000D01*
X95974000Y-102248000D02*
X98006000Y-104280000D01*
X86576000Y-97549000D02*
X86576000Y-101232000D01*
X87211000Y-101867000D02*
X87592000Y-102248000D01*
X98006000Y-104280000D02*
X98006000Y-106185000D01*
X86576000Y-101232000D02*
X87211000Y-101867000D01*
X62827000Y-85484000D02*
X74511000Y-85484000D01*
X87592000Y-102248000D02*
X95974000Y-102248000D01*
X74511000Y-85484000D02*
X86576000Y-97549000D01*
%TO.N,Net-(J7-In)*%
X141465000Y-85162400D02*
X139320800Y-85162400D01*
D58*
X139249400Y-85139800D02*
X139296400Y-85186800D01*
D60*
X137386800Y-85139800D02*
X139249400Y-85139800D01*
D58*
X139320800Y-85162400D02*
X139296400Y-85186800D01*
%TO.N,/Power_supply/VBUS2_Fused*%
D62*
X90675728Y-130950000D02*
X88230000Y-133395728D01*
X116000000Y-140700000D02*
X116000000Y-138657000D01*
X115379600Y-132575600D02*
X113754000Y-130950000D01*
X113754000Y-130950000D02*
X90675728Y-130950000D01*
X115379600Y-138036600D02*
X115379600Y-132575600D01*
X88230000Y-133395728D02*
X88230000Y-136944400D01*
X116000000Y-138657000D02*
X115379600Y-138036600D01*
%TO.N,Net-(R81-S)*%
D58*
X65190800Y-75909600D02*
X64423600Y-75142400D01*
X64423600Y-75142400D02*
X63438800Y-75142400D01*
X66429200Y-75909600D02*
X65190800Y-75909600D01*
%TO.N,Net-(R75-S)*%
X74993600Y-95745600D02*
X74993600Y-94198400D01*
X74993600Y-94198400D02*
X75021200Y-94170800D01*
%TO.N,Net-(D4-K)*%
X127010900Y-134607600D02*
X128564500Y-134607600D01*
%TO.N,Net-(J14-In)*%
X141440000Y-108602400D02*
X141465000Y-108577400D01*
X139286600Y-108579800D02*
X139296400Y-108570000D01*
X139303800Y-108577400D02*
X139296400Y-108570000D01*
X137386800Y-108579800D02*
X139286600Y-108579800D01*
X141465000Y-108577400D02*
X139303800Y-108577400D01*
X137411800Y-108554800D02*
X137386800Y-108579800D01*
%TO.N,Net-(U22-1Y3)*%
X132753000Y-107625737D02*
X132753000Y-107774378D01*
X133343000Y-106585737D02*
X133013000Y-106585737D01*
X132753000Y-104660900D02*
X132753000Y-105675737D01*
X133603000Y-106195737D02*
X133603000Y-106325737D01*
X132753000Y-107495737D02*
X132753000Y-107625737D01*
X132493000Y-106585737D02*
X132163000Y-106585737D01*
X131903000Y-106845737D02*
X131903000Y-106975737D01*
X132753000Y-107774378D02*
X132753000Y-107853400D01*
X133479400Y-108579800D02*
X135561800Y-108579800D01*
X133013000Y-105935737D02*
X133343000Y-105935737D01*
X132163000Y-107235737D02*
X132493000Y-107235737D01*
X132753000Y-107853400D02*
X133479400Y-108579800D01*
X133013000Y-106585737D02*
X132493000Y-106585737D01*
X132163000Y-106585737D02*
G75*
G03*
X131903037Y-106845737I0J-259963D01*
G01*
X132753000Y-105675737D02*
G75*
G03*
X133013000Y-105935700I260000J37D01*
G01*
X133343000Y-105935737D02*
G75*
G02*
X133602963Y-106195737I0J-259963D01*
G01*
X133603000Y-106325737D02*
G75*
G02*
X133343000Y-106585700I-260000J37D01*
G01*
X132493000Y-107235737D02*
G75*
G02*
X132752963Y-107495737I0J-259963D01*
G01*
X131903000Y-106975737D02*
G75*
G03*
X132163000Y-107235700I260000J37D01*
G01*
%TO.N,Net-(D5-K)*%
X130820500Y-67069000D02*
X132399500Y-67069000D01*
%TO.N,10MHz_GPSDO_CLK2*%
D60*
X132753000Y-98935900D02*
X132753000Y-97600000D01*
X132753000Y-97600000D02*
X132804000Y-97549000D01*
%TO.N,Net-(U22-OE)*%
D58*
X131453000Y-103520400D02*
X131524000Y-103449400D01*
X131453000Y-106045400D02*
X131524000Y-106116400D01*
X132103000Y-98935900D02*
X132103000Y-100203400D01*
X131453000Y-104660900D02*
X131453000Y-103520400D01*
X132103000Y-100203400D02*
X132032000Y-100274400D01*
X131453000Y-104660900D02*
X131453000Y-106045400D01*
%TO.N,Net-(U22-1Y2)*%
X134745752Y-103379800D02*
X135561800Y-103379800D01*
X133238637Y-102079800D02*
X133368637Y-102079800D01*
X134538637Y-103379800D02*
X134668637Y-103379800D01*
X134668637Y-103379800D02*
X134745752Y-103379800D01*
X133628637Y-103119800D02*
X133628637Y-103639800D01*
X133628637Y-102339800D02*
X133628637Y-103119800D01*
X132103000Y-104660900D02*
X132103000Y-103759400D01*
X133888637Y-104679800D02*
X134018637Y-104679800D01*
X132482600Y-103379800D02*
X132718637Y-103379800D01*
X132103000Y-103759400D02*
X132482600Y-103379800D01*
X134278637Y-104419800D02*
X134278637Y-103639800D01*
X132978637Y-103119800D02*
X132978637Y-102339800D01*
X133628637Y-103639800D02*
X133628637Y-104419800D01*
X133368637Y-102079800D02*
G75*
G02*
X133628600Y-102339800I-37J-260000D01*
G01*
X132978637Y-102339800D02*
G75*
G02*
X133238637Y-102079837I259963J0D01*
G01*
X134278637Y-103639800D02*
G75*
G02*
X134538637Y-103379837I259963J0D01*
G01*
X132718637Y-103379800D02*
G75*
G03*
X132978600Y-103119800I-37J260000D01*
G01*
X133628637Y-104419800D02*
G75*
G03*
X133888637Y-104679763I259963J0D01*
G01*
X134018637Y-104679800D02*
G75*
G03*
X134278600Y-104419800I-37J260000D01*
G01*
%TO.N,GPS_CLK_Out*%
X132401400Y-128664000D02*
X140576400Y-128664000D01*
X131550400Y-127813000D02*
X132401400Y-128664000D01*
X131550400Y-127099500D02*
X131550400Y-127813000D01*
%TO.N,Net-(U9-CLK_6)*%
D60*
X115151000Y-99200000D02*
X118707000Y-99200000D01*
X118707000Y-99200000D02*
X124168000Y-93739000D01*
X124168000Y-93739000D02*
X128359000Y-93739000D01*
X135561800Y-86536200D02*
X135561800Y-85139800D01*
X128359000Y-93739000D02*
X135561800Y-86536200D01*
%TO.N,GPS_Ext_Int*%
D58*
X140576400Y-126124000D02*
X141821000Y-127368600D01*
X141821000Y-127368600D02*
X141821000Y-129553000D01*
X141821000Y-129553000D02*
X141186000Y-130188000D01*
X141186000Y-130188000D02*
X138011000Y-130188000D01*
%TO.N,Net-(U21-1Y2)*%
D60*
X114195200Y-78841600D02*
X114703200Y-79349600D01*
X106578400Y-85344000D02*
X113080800Y-78841600D01*
X113080800Y-78841600D02*
X114195200Y-78841600D01*
X106578400Y-102768400D02*
X106578400Y-85344000D01*
%TO.N,/GPSDO/OCXO_VC_Sense*%
D58*
X68669000Y-127394000D02*
X68923000Y-127140000D01*
X86322000Y-127140000D02*
X86957000Y-126505000D01*
X68923000Y-127140000D02*
X86322000Y-127140000D01*
%TO.N,Net-(U23-VCC)*%
X101968400Y-133134400D02*
X101968400Y-135395000D01*
%TO.N,/GPSDO/OCXO_VC*%
X92697400Y-119393000D02*
X93484800Y-118605600D01*
X87973000Y-119393000D02*
X92697400Y-119393000D01*
%TO.N,Net-(U21-1Y3)*%
X105537000Y-128524000D02*
X106045000Y-128016000D01*
X106045000Y-106105514D02*
X108458000Y-103692514D01*
X106045000Y-128016000D02*
X106045000Y-106105514D01*
X108458000Y-103692514D02*
X108458000Y-97536000D01*
%TO.N,Net-(R86-Pad1)*%
D60*
X118072000Y-86119000D02*
X108813600Y-86119000D01*
X119723000Y-84468000D02*
X118072000Y-86119000D01*
%TO.N,Net-(U24-VCC)*%
D58*
X123863200Y-133185200D02*
X123863200Y-135369600D01*
%TO.N,Net-(U21-1Y1)*%
D60*
X113881200Y-83579000D02*
X113042800Y-82740600D01*
X113042800Y-82740600D02*
X113042800Y-82080400D01*
X120485000Y-83579000D02*
X113881200Y-83579000D01*
%TO.N,GPS_CLK_Buff*%
D58*
X113766600Y-119176800D02*
X110566200Y-119176800D01*
X110490000Y-96520000D02*
X110540800Y-96570800D01*
X107823000Y-96520000D02*
X110490000Y-96520000D01*
X110566200Y-119176800D02*
X110540800Y-119151400D01*
%TO.N,FPGA_Int*%
X72200000Y-141500000D02*
X72698000Y-141002000D01*
X72698000Y-141002000D02*
X74746000Y-141002000D01*
%TD*%
%TA.AperFunction,Conductor*%
%TO.N,GND*%
G36*
X113529020Y-131719685D02*
G01*
X113549662Y-131736319D01*
X114642781Y-132829438D01*
X114676266Y-132890761D01*
X114679100Y-132917119D01*
X114679100Y-137967606D01*
X114679100Y-138105594D01*
X114679100Y-138105596D01*
X114679099Y-138105596D01*
X114706018Y-138240922D01*
X114706021Y-138240932D01*
X114758822Y-138368407D01*
X114835487Y-138483145D01*
X115024761Y-138672419D01*
X115058246Y-138733742D01*
X115053262Y-138803434D01*
X115035884Y-138835025D01*
X114965639Y-138927656D01*
X114910122Y-139068438D01*
X114904188Y-139117853D01*
X114899500Y-139156898D01*
X114899500Y-142243102D01*
X114903174Y-142273697D01*
X114910122Y-142331561D01*
X114965639Y-142472343D01*
X115057077Y-142592922D01*
X115177656Y-142684360D01*
X115177657Y-142684360D01*
X115177658Y-142684361D01*
X115318436Y-142739877D01*
X115406898Y-142750500D01*
X115406903Y-142750500D01*
X116593097Y-142750500D01*
X116593102Y-142750500D01*
X116681564Y-142739877D01*
X116822342Y-142684361D01*
X116942922Y-142592922D01*
X117034361Y-142472342D01*
X117089877Y-142331564D01*
X117100500Y-142243102D01*
X117100500Y-139156898D01*
X117089877Y-139068436D01*
X117034361Y-138927658D01*
X117034360Y-138927657D01*
X117034360Y-138927656D01*
X116942922Y-138807077D01*
X116822341Y-138715638D01*
X116822339Y-138715637D01*
X116779010Y-138698550D01*
X116769198Y-138690916D01*
X116757275Y-138687392D01*
X116742139Y-138669862D01*
X116723866Y-138655644D01*
X116718632Y-138642636D01*
X116711614Y-138634507D01*
X116707242Y-138614322D01*
X116701731Y-138600624D01*
X116700500Y-138591954D01*
X116700500Y-138588007D01*
X116699218Y-138581564D01*
X116673580Y-138452672D01*
X116671765Y-138448291D01*
X116630160Y-138347844D01*
X117775000Y-138347844D01*
X117781401Y-138407372D01*
X117781403Y-138407379D01*
X117831645Y-138542086D01*
X117831649Y-138542093D01*
X117917809Y-138657187D01*
X117917812Y-138657190D01*
X118032906Y-138743350D01*
X118032913Y-138743354D01*
X118167620Y-138793596D01*
X118167627Y-138793598D01*
X118227155Y-138799999D01*
X118227172Y-138800000D01*
X119500000Y-138800000D01*
X119500000Y-138553553D01*
X119499999Y-138553552D01*
X120000000Y-138553552D01*
X120000000Y-138800000D01*
X121272828Y-138800000D01*
X121272844Y-138799999D01*
X121332372Y-138793598D01*
X121332379Y-138793596D01*
X121467086Y-138743354D01*
X121467093Y-138743350D01*
X121582187Y-138657190D01*
X121582190Y-138657187D01*
X121668350Y-138542093D01*
X121668354Y-138542086D01*
X121718596Y-138407379D01*
X121718598Y-138407372D01*
X121724999Y-138347844D01*
X121725000Y-138347827D01*
X121725000Y-136100000D01*
X121153552Y-136100000D01*
X120753553Y-136500000D01*
X121146704Y-136893151D01*
X121180189Y-136954474D01*
X121175205Y-137024166D01*
X121146704Y-137068513D01*
X121065218Y-137149999D01*
X121146704Y-137231485D01*
X121180189Y-137292808D01*
X121175205Y-137362500D01*
X121146704Y-137406848D01*
X120576777Y-137976777D01*
X120000000Y-138553552D01*
X119499999Y-138553552D01*
X118923223Y-137976777D01*
X118716609Y-137770163D01*
X118950000Y-137770163D01*
X118950000Y-137829837D01*
X118972836Y-137884968D01*
X119015032Y-137927164D01*
X119070163Y-137950000D01*
X119129837Y-137950000D01*
X119184968Y-137927164D01*
X119227164Y-137884968D01*
X119250000Y-137829837D01*
X119250000Y-137800000D01*
X119453553Y-137800000D01*
X119499999Y-137846446D01*
X119500000Y-137846446D01*
X120000000Y-137846446D01*
X120046446Y-137800001D01*
X120046446Y-137799999D01*
X120016610Y-137770163D01*
X120250000Y-137770163D01*
X120250000Y-137829837D01*
X120272836Y-137884968D01*
X120315032Y-137927164D01*
X120370163Y-137950000D01*
X120429837Y-137950000D01*
X120484968Y-137927164D01*
X120527164Y-137884968D01*
X120550000Y-137829837D01*
X120550000Y-137770163D01*
X120527164Y-137715032D01*
X120484968Y-137672836D01*
X120429837Y-137650000D01*
X120370163Y-137650000D01*
X120315032Y-137672836D01*
X120272836Y-137715032D01*
X120250000Y-137770163D01*
X120016610Y-137770163D01*
X120000000Y-137753553D01*
X120000000Y-137846446D01*
X119500000Y-137846446D01*
X119500000Y-137753553D01*
X119453553Y-137800000D01*
X119250000Y-137800000D01*
X119250000Y-137770163D01*
X119227164Y-137715032D01*
X119184968Y-137672836D01*
X119129837Y-137650000D01*
X119070163Y-137650000D01*
X119015032Y-137672836D01*
X118972836Y-137715032D01*
X118950000Y-137770163D01*
X118716609Y-137770163D01*
X118353294Y-137406848D01*
X118319809Y-137345525D01*
X118324793Y-137275833D01*
X118353294Y-137231485D01*
X118434779Y-137150000D01*
X118803553Y-137150000D01*
X119100000Y-137446446D01*
X119100001Y-137446446D01*
X119396446Y-137150001D01*
X119396446Y-137150000D01*
X120103553Y-137150000D01*
X120400000Y-137446446D01*
X120400001Y-137446446D01*
X120696446Y-137150001D01*
X120696446Y-137149999D01*
X120400001Y-136853553D01*
X120400000Y-136853553D01*
X120103553Y-137150000D01*
X119396446Y-137150000D01*
X119396446Y-137149999D01*
X119100001Y-136853553D01*
X119100000Y-136853553D01*
X118803553Y-137150000D01*
X118434779Y-137150000D01*
X118434780Y-137149999D01*
X118353294Y-137068513D01*
X118319809Y-137007190D01*
X118324793Y-136937498D01*
X118353294Y-136893151D01*
X118746446Y-136499999D01*
X118716610Y-136470163D01*
X118950000Y-136470163D01*
X118950000Y-136529837D01*
X118972836Y-136584968D01*
X119015032Y-136627164D01*
X119070163Y-136650000D01*
X119129837Y-136650000D01*
X119184968Y-136627164D01*
X119227164Y-136584968D01*
X119250000Y-136529837D01*
X119250000Y-136500000D01*
X119453553Y-136500000D01*
X119499999Y-136546446D01*
X119500000Y-136546446D01*
X120000000Y-136546446D01*
X120046446Y-136500001D01*
X120046446Y-136499999D01*
X120016610Y-136470163D01*
X120250000Y-136470163D01*
X120250000Y-136529837D01*
X120272836Y-136584968D01*
X120315032Y-136627164D01*
X120370163Y-136650000D01*
X120429837Y-136650000D01*
X120484968Y-136627164D01*
X120527164Y-136584968D01*
X120550000Y-136529837D01*
X120550000Y-136470163D01*
X120527164Y-136415032D01*
X120484968Y-136372836D01*
X120429837Y-136350000D01*
X120370163Y-136350000D01*
X120315032Y-136372836D01*
X120272836Y-136415032D01*
X120250000Y-136470163D01*
X120016610Y-136470163D01*
X120000000Y-136453553D01*
X120000000Y-136546446D01*
X119500000Y-136546446D01*
X119500000Y-136453553D01*
X119453553Y-136500000D01*
X119250000Y-136500000D01*
X119250000Y-136470163D01*
X119227164Y-136415032D01*
X119184968Y-136372836D01*
X119129837Y-136350000D01*
X119070163Y-136350000D01*
X119015032Y-136372836D01*
X118972836Y-136415032D01*
X118950000Y-136470163D01*
X118716610Y-136470163D01*
X118346447Y-136100000D01*
X119053554Y-136100000D01*
X119100000Y-136146445D01*
X119146446Y-136100000D01*
X120353554Y-136100000D01*
X120400000Y-136146445D01*
X120446446Y-136100000D01*
X120353554Y-136100000D01*
X119146446Y-136100000D01*
X119053554Y-136100000D01*
X118346447Y-136100000D01*
X117775000Y-136100000D01*
X117775000Y-138347844D01*
X116630160Y-138347844D01*
X116620777Y-138325192D01*
X116544112Y-138210454D01*
X116116419Y-137782761D01*
X116082934Y-137721438D01*
X116080100Y-137695080D01*
X116080100Y-133352155D01*
X117775000Y-133352155D01*
X117775000Y-135600000D01*
X118346447Y-135600000D01*
X118346447Y-135599999D01*
X119053553Y-135599999D01*
X119053554Y-135600000D01*
X119146446Y-135600000D01*
X119146446Y-135599999D01*
X120353553Y-135599999D01*
X120353554Y-135600000D01*
X120446446Y-135600000D01*
X120446446Y-135599999D01*
X120400000Y-135553553D01*
X120353553Y-135599999D01*
X119146446Y-135599999D01*
X119100000Y-135553553D01*
X119053553Y-135599999D01*
X118346447Y-135599999D01*
X118463221Y-135483226D01*
X118746446Y-135200000D01*
X118716609Y-135170163D01*
X118950000Y-135170163D01*
X118950000Y-135229837D01*
X118972836Y-135284968D01*
X119015032Y-135327164D01*
X119070163Y-135350000D01*
X119129837Y-135350000D01*
X119184968Y-135327164D01*
X119227164Y-135284968D01*
X119250000Y-135229837D01*
X119250000Y-135200000D01*
X119453553Y-135200000D01*
X119499999Y-135246446D01*
X119500000Y-135246446D01*
X120000000Y-135246446D01*
X120046446Y-135200001D01*
X120046446Y-135199999D01*
X120016610Y-135170163D01*
X120250000Y-135170163D01*
X120250000Y-135229837D01*
X120272836Y-135284968D01*
X120315032Y-135327164D01*
X120370163Y-135350000D01*
X120429837Y-135350000D01*
X120484968Y-135327164D01*
X120527164Y-135284968D01*
X120550000Y-135229837D01*
X120550000Y-135170163D01*
X120527164Y-135115032D01*
X120484968Y-135072836D01*
X120429837Y-135050000D01*
X120370163Y-135050000D01*
X120315032Y-135072836D01*
X120272836Y-135115032D01*
X120250000Y-135170163D01*
X120016610Y-135170163D01*
X120000000Y-135153553D01*
X120000000Y-135246446D01*
X119500000Y-135246446D01*
X119500000Y-135153553D01*
X119453553Y-135200000D01*
X119250000Y-135200000D01*
X119250000Y-135170163D01*
X119227164Y-135115032D01*
X119184968Y-135072836D01*
X119129837Y-135050000D01*
X119070163Y-135050000D01*
X119015032Y-135072836D01*
X118972836Y-135115032D01*
X118950000Y-135170163D01*
X118716609Y-135170163D01*
X118353294Y-134806848D01*
X118319809Y-134745525D01*
X118324793Y-134675833D01*
X118353294Y-134631485D01*
X118434779Y-134550000D01*
X118803553Y-134550000D01*
X119100000Y-134846446D01*
X119100001Y-134846446D01*
X119396446Y-134550001D01*
X119396446Y-134550000D01*
X120103553Y-134550000D01*
X120400000Y-134846446D01*
X120400001Y-134846446D01*
X120696446Y-134550001D01*
X120696446Y-134549999D01*
X120400001Y-134253553D01*
X120400000Y-134253553D01*
X120103553Y-134550000D01*
X119396446Y-134550000D01*
X119396446Y-134549999D01*
X119100001Y-134253553D01*
X119100000Y-134253553D01*
X118803553Y-134550000D01*
X118434779Y-134550000D01*
X118434780Y-134549999D01*
X118353294Y-134468513D01*
X118319809Y-134407190D01*
X118324793Y-134337498D01*
X118353294Y-134293151D01*
X118776283Y-133870163D01*
X118950000Y-133870163D01*
X118950000Y-133929837D01*
X118972836Y-133984968D01*
X119015032Y-134027164D01*
X119070163Y-134050000D01*
X119129837Y-134050000D01*
X119184968Y-134027164D01*
X119227164Y-133984968D01*
X119250000Y-133929837D01*
X119250000Y-133900000D01*
X119453553Y-133900000D01*
X119499999Y-133946446D01*
X119500000Y-133946446D01*
X120000000Y-133946446D01*
X120046446Y-133900001D01*
X120046446Y-133899999D01*
X120016610Y-133870163D01*
X120250000Y-133870163D01*
X120250000Y-133929837D01*
X120272836Y-133984968D01*
X120315032Y-134027164D01*
X120370163Y-134050000D01*
X120429837Y-134050000D01*
X120484968Y-134027164D01*
X120527164Y-133984968D01*
X120550000Y-133929837D01*
X120550000Y-133870163D01*
X120527164Y-133815032D01*
X120484968Y-133772836D01*
X120429837Y-133750000D01*
X120370163Y-133750000D01*
X120315032Y-133772836D01*
X120272836Y-133815032D01*
X120250000Y-133870163D01*
X120016610Y-133870163D01*
X120000000Y-133853553D01*
X120000000Y-133946446D01*
X119500000Y-133946446D01*
X119500000Y-133853553D01*
X119453553Y-133900000D01*
X119250000Y-133900000D01*
X119250000Y-133870163D01*
X119227164Y-133815032D01*
X119184968Y-133772836D01*
X119129837Y-133750000D01*
X119070163Y-133750000D01*
X119015032Y-133772836D01*
X118972836Y-133815032D01*
X118950000Y-133870163D01*
X118776283Y-133870163D01*
X118885489Y-133760957D01*
X118923223Y-133723223D01*
X119499999Y-133146446D01*
X120000000Y-133146446D01*
X120576777Y-133723223D01*
X121146704Y-134293151D01*
X121180189Y-134354474D01*
X121175205Y-134424166D01*
X121146704Y-134468513D01*
X121065218Y-134549999D01*
X121146704Y-134631485D01*
X121180189Y-134692808D01*
X121175205Y-134762500D01*
X121146704Y-134806848D01*
X120753553Y-135199999D01*
X120753553Y-135200000D01*
X121153553Y-135600000D01*
X121725000Y-135600000D01*
X121725000Y-133352172D01*
X121724999Y-133352155D01*
X121718598Y-133292627D01*
X121718596Y-133292620D01*
X121668354Y-133157913D01*
X121668350Y-133157906D01*
X121629600Y-133106143D01*
X123262700Y-133106143D01*
X123262700Y-133264257D01*
X123302005Y-133410943D01*
X123303623Y-133416983D01*
X123303626Y-133416990D01*
X123382675Y-133553909D01*
X123382681Y-133553917D01*
X123426381Y-133597617D01*
X123459866Y-133658940D01*
X123462700Y-133685298D01*
X123462700Y-134869502D01*
X123443015Y-134936541D01*
X123426381Y-134957183D01*
X123382681Y-135000882D01*
X123382675Y-135000890D01*
X123303626Y-135137809D01*
X123303623Y-135137816D01*
X123262700Y-135290543D01*
X123262700Y-135448657D01*
X123302609Y-135597597D01*
X123303623Y-135601383D01*
X123303626Y-135601390D01*
X123382675Y-135738309D01*
X123382679Y-135738314D01*
X123382680Y-135738316D01*
X123494484Y-135850120D01*
X123494486Y-135850121D01*
X123494490Y-135850124D01*
X123538478Y-135875520D01*
X123631416Y-135929177D01*
X123784143Y-135970100D01*
X123784145Y-135970100D01*
X123942255Y-135970100D01*
X123942257Y-135970100D01*
X124094984Y-135929177D01*
X124231916Y-135850120D01*
X124343720Y-135738316D01*
X124346758Y-135733054D01*
X124397322Y-135684835D01*
X124465928Y-135671609D01*
X124519245Y-135689509D01*
X124604275Y-135741956D01*
X124604280Y-135741958D01*
X124770702Y-135797105D01*
X124770709Y-135797106D01*
X124873419Y-135807599D01*
X125435900Y-135807599D01*
X125498372Y-135807599D01*
X125498386Y-135807598D01*
X125601097Y-135797105D01*
X125767519Y-135741958D01*
X125767524Y-135741956D01*
X125916745Y-135649915D01*
X126040715Y-135525945D01*
X126112555Y-135409475D01*
X126164503Y-135362751D01*
X126233466Y-135351528D01*
X126297548Y-135379372D01*
X126316898Y-135399647D01*
X126355477Y-135450522D01*
X126476056Y-135541960D01*
X126476057Y-135541960D01*
X126476058Y-135541961D01*
X126616836Y-135597477D01*
X126705298Y-135608100D01*
X126705303Y-135608100D01*
X127316497Y-135608100D01*
X127316502Y-135608100D01*
X127404964Y-135597477D01*
X127545742Y-135541961D01*
X127666322Y-135450522D01*
X127699823Y-135406344D01*
X127756015Y-135364821D01*
X127825736Y-135360269D01*
X127886850Y-135394133D01*
X127897431Y-135406344D01*
X127932288Y-135452311D01*
X128051500Y-135542711D01*
X128051502Y-135542712D01*
X128121089Y-135570154D01*
X128190679Y-135597597D01*
X128278140Y-135608100D01*
X128278146Y-135608100D01*
X128850854Y-135608100D01*
X128850860Y-135608100D01*
X128938321Y-135597597D01*
X129077500Y-135542711D01*
X129196711Y-135452311D01*
X129287111Y-135333100D01*
X129341997Y-135193921D01*
X129352500Y-135106460D01*
X129352500Y-134108740D01*
X129341997Y-134021279D01*
X129295571Y-133903553D01*
X129287112Y-133882102D01*
X129287111Y-133882100D01*
X129196711Y-133762888D01*
X129077499Y-133672488D01*
X129077497Y-133672487D01*
X128938322Y-133617603D01*
X128925826Y-133616102D01*
X128850860Y-133607100D01*
X128278140Y-133607100D01*
X128212544Y-133614977D01*
X128190677Y-133617603D01*
X128051502Y-133672487D01*
X128051500Y-133672488D01*
X127932287Y-133762889D01*
X127897430Y-133808856D01*
X127841238Y-133850379D01*
X127771517Y-133854930D01*
X127710403Y-133821065D01*
X127699823Y-133808855D01*
X127666322Y-133764677D01*
X127545743Y-133673239D01*
X127404961Y-133617722D01*
X127359326Y-133612242D01*
X127316502Y-133607100D01*
X126705298Y-133607100D01*
X126666253Y-133611788D01*
X126616838Y-133617722D01*
X126476056Y-133673239D01*
X126355477Y-133764678D01*
X126316897Y-133815553D01*
X126260705Y-133857076D01*
X126190983Y-133861627D01*
X126129870Y-133827762D01*
X126112556Y-133805724D01*
X126040719Y-133689259D01*
X126040716Y-133689255D01*
X125916745Y-133565284D01*
X125767524Y-133473243D01*
X125767519Y-133473241D01*
X125601097Y-133418094D01*
X125601090Y-133418093D01*
X125498386Y-133407600D01*
X125435900Y-133407600D01*
X125435900Y-135807599D01*
X124873419Y-135807599D01*
X124935899Y-135807598D01*
X124935900Y-135807598D01*
X124935900Y-133407600D01*
X124935899Y-133407599D01*
X124873428Y-133407600D01*
X124873411Y-133407601D01*
X124770702Y-133418094D01*
X124606847Y-133472390D01*
X124537018Y-133474792D01*
X124476976Y-133439060D01*
X124445784Y-133376539D01*
X124448068Y-133322593D01*
X124463700Y-133264257D01*
X124463700Y-133106143D01*
X124422777Y-132953416D01*
X124391535Y-132899302D01*
X124343724Y-132816490D01*
X124343718Y-132816482D01*
X124231917Y-132704681D01*
X124231909Y-132704675D01*
X124094990Y-132625626D01*
X124094986Y-132625624D01*
X124094984Y-132625623D01*
X123942257Y-132584700D01*
X123784143Y-132584700D01*
X123631416Y-132625623D01*
X123631409Y-132625626D01*
X123494490Y-132704675D01*
X123494482Y-132704681D01*
X123382681Y-132816482D01*
X123382675Y-132816490D01*
X123303626Y-132953409D01*
X123303623Y-132953416D01*
X123262700Y-133106143D01*
X121629600Y-133106143D01*
X121582190Y-133042812D01*
X121582187Y-133042809D01*
X121467093Y-132956649D01*
X121467086Y-132956645D01*
X121332379Y-132906403D01*
X121332372Y-132906401D01*
X121272844Y-132900000D01*
X120000000Y-132900000D01*
X120000000Y-133146446D01*
X119499999Y-133146446D01*
X119500000Y-133146445D01*
X119500000Y-132900000D01*
X118227155Y-132900000D01*
X118167627Y-132906401D01*
X118167620Y-132906403D01*
X118032913Y-132956645D01*
X118032906Y-132956649D01*
X117917812Y-133042809D01*
X117917809Y-133042812D01*
X117831649Y-133157906D01*
X117831645Y-133157913D01*
X117781403Y-133292620D01*
X117781401Y-133292627D01*
X117775000Y-133352155D01*
X116080100Y-133352155D01*
X116080100Y-132506604D01*
X116055214Y-132381500D01*
X116055212Y-132381492D01*
X116053180Y-132371272D01*
X116046990Y-132356329D01*
X116000377Y-132243792D01*
X115923712Y-132129054D01*
X115923711Y-132129053D01*
X115706338Y-131911681D01*
X115672853Y-131850358D01*
X115677837Y-131780667D01*
X115719708Y-131724733D01*
X115785173Y-131700316D01*
X115794019Y-131700000D01*
X131875500Y-131700000D01*
X131942539Y-131719685D01*
X131988294Y-131772489D01*
X131999500Y-131824000D01*
X131999500Y-133478620D01*
X131979815Y-133545659D01*
X131927011Y-133591414D01*
X131920990Y-133593974D01*
X131802660Y-133640637D01*
X131802658Y-133640638D01*
X131682077Y-133732077D01*
X131590639Y-133852656D01*
X131535120Y-133993443D01*
X131533173Y-134001148D01*
X131531646Y-134000762D01*
X131521192Y-134023653D01*
X131507972Y-134054490D01*
X131506724Y-134055333D01*
X131506099Y-134056703D01*
X131477886Y-134074833D01*
X131450093Y-134093628D01*
X131448178Y-134093926D01*
X131447321Y-134094477D01*
X131412386Y-134099500D01*
X131332237Y-134099500D01*
X131265198Y-134079815D01*
X131219443Y-134027011D01*
X131216896Y-134021023D01*
X131162111Y-133882100D01*
X131162110Y-133882099D01*
X131162110Y-133882098D01*
X131071711Y-133762888D01*
X130952499Y-133672488D01*
X130952497Y-133672487D01*
X130813322Y-133617603D01*
X130800826Y-133616102D01*
X130725860Y-133607100D01*
X130153140Y-133607100D01*
X130087544Y-133614977D01*
X130065677Y-133617603D01*
X129926502Y-133672487D01*
X129926500Y-133672488D01*
X129807288Y-133762888D01*
X129716888Y-133882100D01*
X129716887Y-133882102D01*
X129662003Y-134021277D01*
X129661296Y-134027164D01*
X129651500Y-134108740D01*
X129651500Y-135106460D01*
X129660690Y-135182988D01*
X129662003Y-135193922D01*
X129716887Y-135333097D01*
X129716888Y-135333099D01*
X129807288Y-135452311D01*
X129926500Y-135542711D01*
X129926502Y-135542712D01*
X129996089Y-135570154D01*
X130065679Y-135597597D01*
X130153140Y-135608100D01*
X130153146Y-135608100D01*
X130725854Y-135608100D01*
X130725860Y-135608100D01*
X130813321Y-135597597D01*
X130952500Y-135542711D01*
X131071711Y-135452311D01*
X131162111Y-135333100D01*
X131216997Y-135193921D01*
X131227500Y-135106460D01*
X131227500Y-135024500D01*
X131230050Y-135015814D01*
X131228762Y-135006853D01*
X131239740Y-134982812D01*
X131247185Y-134957461D01*
X131254025Y-134951533D01*
X131257787Y-134943297D01*
X131280021Y-134929007D01*
X131299989Y-134911706D01*
X131310503Y-134909418D01*
X131316565Y-134905523D01*
X131351500Y-134900500D01*
X131412386Y-134900500D01*
X131479425Y-134920185D01*
X131525180Y-134972989D01*
X131532495Y-134999023D01*
X131533173Y-134998852D01*
X131535120Y-135006556D01*
X131590639Y-135147343D01*
X131682077Y-135267922D01*
X131802656Y-135359360D01*
X131802657Y-135359360D01*
X131802658Y-135359361D01*
X131943436Y-135414877D01*
X132031898Y-135425500D01*
X132031903Y-135425500D01*
X133368097Y-135425500D01*
X133368102Y-135425500D01*
X133456564Y-135414877D01*
X133597342Y-135359361D01*
X133717922Y-135267922D01*
X133809361Y-135147342D01*
X133864877Y-135006564D01*
X133875500Y-134918102D01*
X133875500Y-134081898D01*
X133864877Y-133993436D01*
X133809361Y-133852658D01*
X133809360Y-133852657D01*
X133809360Y-133852656D01*
X133717922Y-133732077D01*
X133597341Y-133640638D01*
X133597339Y-133640637D01*
X133479010Y-133593974D01*
X133423866Y-133551069D01*
X133400673Y-133485161D01*
X133400500Y-133478620D01*
X133400500Y-131824000D01*
X133420185Y-131756961D01*
X133472989Y-131711206D01*
X133524500Y-131700000D01*
X137076000Y-131700000D01*
X137143039Y-131719685D01*
X137188794Y-131772489D01*
X137200000Y-131824000D01*
X137200000Y-149576000D01*
X137180315Y-149643039D01*
X137127511Y-149688794D01*
X137076000Y-149700000D01*
X89924000Y-149700000D01*
X89856961Y-149680315D01*
X89811206Y-149627511D01*
X89800000Y-149576000D01*
X89800000Y-147849986D01*
X92500001Y-147849986D01*
X92510494Y-147952697D01*
X92565641Y-148119119D01*
X92565643Y-148119124D01*
X92657684Y-148268345D01*
X92781654Y-148392315D01*
X92930875Y-148484356D01*
X92930880Y-148484358D01*
X93097302Y-148539505D01*
X93097309Y-148539506D01*
X93200019Y-148549999D01*
X93549999Y-148549999D01*
X94050000Y-148549999D01*
X94399972Y-148549999D01*
X94399986Y-148549998D01*
X94502697Y-148539505D01*
X94669119Y-148484358D01*
X94669124Y-148484356D01*
X94818345Y-148392315D01*
X94942315Y-148268345D01*
X95034356Y-148119124D01*
X95034358Y-148119119D01*
X95089505Y-147952697D01*
X95089506Y-147952690D01*
X95099999Y-147849986D01*
X99900001Y-147849986D01*
X99910494Y-147952697D01*
X99965641Y-148119119D01*
X99965643Y-148119124D01*
X100057684Y-148268345D01*
X100181654Y-148392315D01*
X100330875Y-148484356D01*
X100330880Y-148484358D01*
X100497302Y-148539505D01*
X100497309Y-148539506D01*
X100600019Y-148549999D01*
X100949999Y-148549999D01*
X101450000Y-148549999D01*
X101799972Y-148549999D01*
X101799986Y-148549998D01*
X101902697Y-148539505D01*
X102069119Y-148484358D01*
X102069124Y-148484356D01*
X102218345Y-148392315D01*
X102342315Y-148268345D01*
X102434356Y-148119124D01*
X102434358Y-148119119D01*
X102489505Y-147952697D01*
X102489506Y-147952690D01*
X102499999Y-147849986D01*
X102500000Y-147849973D01*
X102500000Y-147749986D01*
X107300001Y-147749986D01*
X107310494Y-147852697D01*
X107365641Y-148019119D01*
X107365643Y-148019124D01*
X107457684Y-148168345D01*
X107581654Y-148292315D01*
X107730875Y-148384356D01*
X107730880Y-148384358D01*
X107897302Y-148439505D01*
X107897309Y-148439506D01*
X108000019Y-148449999D01*
X108349999Y-148449999D01*
X108850000Y-148449999D01*
X109199972Y-148449999D01*
X109199986Y-148449998D01*
X109302697Y-148439505D01*
X109469119Y-148384358D01*
X109469124Y-148384356D01*
X109618345Y-148292315D01*
X109742315Y-148168345D01*
X109834356Y-148019124D01*
X109834358Y-148019119D01*
X109889505Y-147852697D01*
X109889506Y-147852690D01*
X109889782Y-147849986D01*
X114700001Y-147849986D01*
X114710494Y-147952697D01*
X114765641Y-148119119D01*
X114765643Y-148119124D01*
X114857684Y-148268345D01*
X114981654Y-148392315D01*
X115130875Y-148484356D01*
X115130880Y-148484358D01*
X115297302Y-148539505D01*
X115297309Y-148539506D01*
X115400019Y-148549999D01*
X115749999Y-148549999D01*
X116250000Y-148549999D01*
X116599972Y-148549999D01*
X116599986Y-148549998D01*
X116702697Y-148539505D01*
X116869119Y-148484358D01*
X116869124Y-148484356D01*
X117018345Y-148392315D01*
X117142315Y-148268345D01*
X117234356Y-148119124D01*
X117234358Y-148119119D01*
X117289505Y-147952697D01*
X117289506Y-147952690D01*
X117299999Y-147849986D01*
X122100001Y-147849986D01*
X122110494Y-147952697D01*
X122165641Y-148119119D01*
X122165643Y-148119124D01*
X122257684Y-148268345D01*
X122381654Y-148392315D01*
X122530875Y-148484356D01*
X122530880Y-148484358D01*
X122697302Y-148539505D01*
X122697309Y-148539506D01*
X122800019Y-148549999D01*
X123149999Y-148549999D01*
X123650000Y-148549999D01*
X123999972Y-148549999D01*
X123999986Y-148549998D01*
X124102697Y-148539505D01*
X124269119Y-148484358D01*
X124269124Y-148484356D01*
X124418345Y-148392315D01*
X124542315Y-148268345D01*
X124634356Y-148119124D01*
X124634358Y-148119119D01*
X124689505Y-147952697D01*
X124689506Y-147952690D01*
X124699999Y-147849986D01*
X124700000Y-147849973D01*
X124700000Y-147749986D01*
X129500001Y-147749986D01*
X129510494Y-147852697D01*
X129565641Y-148019119D01*
X129565643Y-148019124D01*
X129657684Y-148168345D01*
X129781654Y-148292315D01*
X129930875Y-148384356D01*
X129930880Y-148384358D01*
X130097302Y-148439505D01*
X130097309Y-148439506D01*
X130200019Y-148449999D01*
X130549999Y-148449999D01*
X131050000Y-148449999D01*
X131399972Y-148449999D01*
X131399986Y-148449998D01*
X131502697Y-148439505D01*
X131669119Y-148384358D01*
X131669124Y-148384356D01*
X131818345Y-148292315D01*
X131942315Y-148168345D01*
X132034356Y-148019124D01*
X132034358Y-148019119D01*
X132089505Y-147852697D01*
X132089506Y-147852690D01*
X132099999Y-147749986D01*
X132100000Y-147749973D01*
X132100000Y-146450000D01*
X131050000Y-146450000D01*
X131050000Y-148449999D01*
X130549999Y-148449999D01*
X130550000Y-148449998D01*
X130550000Y-146450000D01*
X129500001Y-146450000D01*
X129500001Y-147749986D01*
X124700000Y-147749986D01*
X124700000Y-146550000D01*
X123650000Y-146550000D01*
X123650000Y-148549999D01*
X123149999Y-148549999D01*
X123150000Y-148549998D01*
X123150000Y-146550000D01*
X122100001Y-146550000D01*
X122100001Y-147849986D01*
X117299999Y-147849986D01*
X117300000Y-147849973D01*
X117300000Y-146550000D01*
X116250000Y-146550000D01*
X116250000Y-148549999D01*
X115749999Y-148549999D01*
X115750000Y-148549998D01*
X115750000Y-146550000D01*
X114700001Y-146550000D01*
X114700001Y-147849986D01*
X109889782Y-147849986D01*
X109899999Y-147749986D01*
X109900000Y-147749973D01*
X109900000Y-146450000D01*
X108850000Y-146450000D01*
X108850000Y-148449999D01*
X108349999Y-148449999D01*
X108350000Y-148449998D01*
X108350000Y-146450000D01*
X107300001Y-146450000D01*
X107300001Y-147749986D01*
X102500000Y-147749986D01*
X102500000Y-146550000D01*
X101450000Y-146550000D01*
X101450000Y-148549999D01*
X100949999Y-148549999D01*
X100950000Y-148549998D01*
X100950000Y-146550000D01*
X99900001Y-146550000D01*
X99900001Y-147849986D01*
X95099999Y-147849986D01*
X95100000Y-147849973D01*
X95100000Y-146550000D01*
X94050000Y-146550000D01*
X94050000Y-148549999D01*
X93549999Y-148549999D01*
X93550000Y-148549998D01*
X93550000Y-146550000D01*
X92500001Y-146550000D01*
X92500001Y-147849986D01*
X89800000Y-147849986D01*
X89800000Y-144750013D01*
X92500000Y-144750013D01*
X92500000Y-146050000D01*
X93550000Y-146050000D01*
X94050000Y-146050000D01*
X95099999Y-146050000D01*
X95099999Y-144750029D01*
X95099998Y-144750013D01*
X99900000Y-144750013D01*
X99900000Y-146050000D01*
X100950000Y-146050000D01*
X101450000Y-146050000D01*
X102499999Y-146050000D01*
X102499999Y-144750028D01*
X102499998Y-144750013D01*
X102490748Y-144659466D01*
X102490748Y-144659463D01*
X102489783Y-144650013D01*
X107300000Y-144650013D01*
X107300000Y-145950000D01*
X108350000Y-145950000D01*
X108850000Y-145950000D01*
X109899999Y-145950000D01*
X109899999Y-144750013D01*
X114700000Y-144750013D01*
X114700000Y-146050000D01*
X115750000Y-146050000D01*
X116250000Y-146050000D01*
X117299999Y-146050000D01*
X117299999Y-144750029D01*
X117299998Y-144750013D01*
X122100000Y-144750013D01*
X122100000Y-146050000D01*
X123150000Y-146050000D01*
X123650000Y-146050000D01*
X124699999Y-146050000D01*
X124699999Y-144750028D01*
X124699998Y-144750013D01*
X124690748Y-144659466D01*
X124690748Y-144659463D01*
X124689783Y-144650013D01*
X129500000Y-144650013D01*
X129500000Y-145950000D01*
X130550000Y-145950000D01*
X131050000Y-145950000D01*
X132099999Y-145950000D01*
X132099999Y-144650028D01*
X132099998Y-144650013D01*
X132089505Y-144547302D01*
X132034358Y-144380880D01*
X132034356Y-144380875D01*
X131942315Y-144231654D01*
X131818345Y-144107684D01*
X131669124Y-144015643D01*
X131669119Y-144015641D01*
X131502697Y-143960494D01*
X131502690Y-143960493D01*
X131399986Y-143950000D01*
X131050000Y-143950000D01*
X131050000Y-145950000D01*
X130550000Y-145950000D01*
X130550000Y-143950000D01*
X130200028Y-143950000D01*
X130200012Y-143950001D01*
X130097302Y-143960494D01*
X129930880Y-144015641D01*
X129930875Y-144015643D01*
X129781654Y-144107684D01*
X129657684Y-144231654D01*
X129565643Y-144380875D01*
X129565641Y-144380880D01*
X129510494Y-144547302D01*
X129510493Y-144547309D01*
X129500000Y-144650013D01*
X124689783Y-144650013D01*
X124689506Y-144647303D01*
X124634358Y-144480880D01*
X124634356Y-144480875D01*
X124542315Y-144331654D01*
X124418345Y-144207684D01*
X124269124Y-144115643D01*
X124269119Y-144115641D01*
X124102697Y-144060494D01*
X124102690Y-144060493D01*
X123999986Y-144050000D01*
X123650000Y-144050000D01*
X123650000Y-146050000D01*
X123150000Y-146050000D01*
X123150000Y-144050000D01*
X122800028Y-144050000D01*
X122800012Y-144050001D01*
X122697302Y-144060494D01*
X122530880Y-144115641D01*
X122530875Y-144115643D01*
X122381654Y-144207684D01*
X122257684Y-144331654D01*
X122165643Y-144480875D01*
X122165641Y-144480880D01*
X122110494Y-144647302D01*
X122110493Y-144647309D01*
X122100000Y-144750013D01*
X117299998Y-144750013D01*
X117299998Y-144750012D01*
X117289505Y-144647302D01*
X117234358Y-144480880D01*
X117234356Y-144480875D01*
X117142315Y-144331654D01*
X117018345Y-144207684D01*
X116869124Y-144115643D01*
X116869119Y-144115641D01*
X116702697Y-144060494D01*
X116702690Y-144060493D01*
X116599986Y-144050000D01*
X116250000Y-144050000D01*
X116250000Y-146050000D01*
X115750000Y-146050000D01*
X115750000Y-144050000D01*
X115400028Y-144050000D01*
X115400012Y-144050001D01*
X115297302Y-144060494D01*
X115130880Y-144115641D01*
X115130875Y-144115643D01*
X114981654Y-144207684D01*
X114857684Y-144331654D01*
X114765643Y-144480875D01*
X114765641Y-144480880D01*
X114710494Y-144647302D01*
X114710493Y-144647309D01*
X114700000Y-144750013D01*
X109899999Y-144750013D01*
X109899999Y-144650028D01*
X109899998Y-144650013D01*
X109889505Y-144547302D01*
X109834358Y-144380880D01*
X109834356Y-144380875D01*
X109742315Y-144231654D01*
X109618345Y-144107684D01*
X109469124Y-144015643D01*
X109469119Y-144015641D01*
X109302697Y-143960494D01*
X109302690Y-143960493D01*
X109199986Y-143950000D01*
X108850000Y-143950000D01*
X108850000Y-145950000D01*
X108350000Y-145950000D01*
X108350000Y-143950000D01*
X108000028Y-143950000D01*
X108000012Y-143950001D01*
X107897302Y-143960494D01*
X107730880Y-144015641D01*
X107730875Y-144015643D01*
X107581654Y-144107684D01*
X107457684Y-144231654D01*
X107365643Y-144380875D01*
X107365641Y-144380880D01*
X107310494Y-144547302D01*
X107310493Y-144547309D01*
X107300000Y-144650013D01*
X102489783Y-144650013D01*
X102489506Y-144647303D01*
X102434358Y-144480880D01*
X102434356Y-144480875D01*
X102342315Y-144331654D01*
X102218345Y-144207684D01*
X102069124Y-144115643D01*
X102069119Y-144115641D01*
X101902697Y-144060494D01*
X101902690Y-144060493D01*
X101799986Y-144050000D01*
X101450000Y-144050000D01*
X101450000Y-146050000D01*
X100950000Y-146050000D01*
X100950000Y-144050000D01*
X100600028Y-144050000D01*
X100600012Y-144050001D01*
X100497302Y-144060494D01*
X100330880Y-144115641D01*
X100330875Y-144115643D01*
X100181654Y-144207684D01*
X100057684Y-144331654D01*
X99965643Y-144480875D01*
X99965641Y-144480880D01*
X99910494Y-144647302D01*
X99910493Y-144647309D01*
X99900000Y-144750013D01*
X95099998Y-144750013D01*
X95099998Y-144750012D01*
X95089505Y-144647302D01*
X95034358Y-144480880D01*
X95034356Y-144480875D01*
X94942315Y-144331654D01*
X94818345Y-144207684D01*
X94669124Y-144115643D01*
X94669119Y-144115641D01*
X94502697Y-144060494D01*
X94502690Y-144060493D01*
X94399986Y-144050000D01*
X94050000Y-144050000D01*
X94050000Y-146050000D01*
X93550000Y-146050000D01*
X93550000Y-144050000D01*
X93200028Y-144050000D01*
X93200012Y-144050001D01*
X93097302Y-144060494D01*
X92930880Y-144115641D01*
X92930875Y-144115643D01*
X92781654Y-144207684D01*
X92657684Y-144331654D01*
X92565643Y-144480875D01*
X92565641Y-144480880D01*
X92510494Y-144647302D01*
X92510493Y-144647309D01*
X92500000Y-144750013D01*
X89800000Y-144750013D01*
X89800000Y-143160195D01*
X97305499Y-143160195D01*
X97332418Y-143295522D01*
X97332421Y-143295532D01*
X97385222Y-143423006D01*
X97388094Y-143428378D01*
X97386792Y-143429074D01*
X97390252Y-143440123D01*
X97400477Y-143456034D01*
X97404928Y-143486991D01*
X97405480Y-143488754D01*
X97405500Y-143490969D01*
X97405500Y-143504230D01*
X97387253Y-143566369D01*
X97388095Y-143566819D01*
X97385935Y-143570859D01*
X97385815Y-143571269D01*
X97385278Y-143572087D01*
X97385223Y-143572190D01*
X97332421Y-143699667D01*
X97332418Y-143699677D01*
X97305500Y-143835004D01*
X97305500Y-143835007D01*
X97305500Y-143972993D01*
X97305500Y-143972995D01*
X97305499Y-143972995D01*
X97332418Y-144108322D01*
X97332421Y-144108332D01*
X97385221Y-144235804D01*
X97385228Y-144235817D01*
X97461885Y-144350541D01*
X97461888Y-144350545D01*
X97559454Y-144448111D01*
X97559458Y-144448114D01*
X97674182Y-144524771D01*
X97674195Y-144524778D01*
X97801667Y-144577578D01*
X97801672Y-144577580D01*
X97801676Y-144577580D01*
X97801677Y-144577581D01*
X97937004Y-144604500D01*
X97937007Y-144604500D01*
X98074995Y-144604500D01*
X98166041Y-144586389D01*
X98210328Y-144577580D01*
X98337811Y-144524775D01*
X98452542Y-144448114D01*
X98550114Y-144350542D01*
X98626775Y-144235811D01*
X98679580Y-144108328D01*
X98691182Y-144050000D01*
X98706500Y-143972995D01*
X98706500Y-143835004D01*
X98679581Y-143699677D01*
X98679580Y-143699676D01*
X98679580Y-143699672D01*
X98679578Y-143699667D01*
X98626776Y-143572190D01*
X98623905Y-143566819D01*
X98625205Y-143566123D01*
X98621746Y-143555072D01*
X98611523Y-143539165D01*
X98607070Y-143508195D01*
X98606520Y-143506438D01*
X98606500Y-143504230D01*
X98606500Y-143490969D01*
X98624746Y-143428827D01*
X98623906Y-143428378D01*
X98626064Y-143424340D01*
X98626185Y-143423930D01*
X98626721Y-143423110D01*
X98626771Y-143423016D01*
X98626775Y-143423011D01*
X98679580Y-143295528D01*
X98706500Y-143160195D01*
X118997099Y-143160195D01*
X119024018Y-143295522D01*
X119024021Y-143295532D01*
X119076822Y-143423006D01*
X119079694Y-143428378D01*
X119078392Y-143429074D01*
X119081852Y-143440123D01*
X119092077Y-143456034D01*
X119096528Y-143486991D01*
X119097080Y-143488754D01*
X119097100Y-143490969D01*
X119097100Y-143504230D01*
X119078853Y-143566369D01*
X119079695Y-143566819D01*
X119077535Y-143570859D01*
X119077415Y-143571269D01*
X119076878Y-143572087D01*
X119076823Y-143572190D01*
X119024021Y-143699667D01*
X119024018Y-143699677D01*
X118997100Y-143835004D01*
X118997100Y-143835007D01*
X118997100Y-143972993D01*
X118997100Y-143972995D01*
X118997099Y-143972995D01*
X119024018Y-144108322D01*
X119024021Y-144108332D01*
X119076821Y-144235804D01*
X119076828Y-144235817D01*
X119153485Y-144350541D01*
X119153488Y-144350545D01*
X119251054Y-144448111D01*
X119251058Y-144448114D01*
X119365782Y-144524771D01*
X119365795Y-144524778D01*
X119493267Y-144577578D01*
X119493272Y-144577580D01*
X119493276Y-144577580D01*
X119493277Y-144577581D01*
X119628604Y-144604500D01*
X119628607Y-144604500D01*
X119766595Y-144604500D01*
X119857641Y-144586389D01*
X119901928Y-144577580D01*
X120029411Y-144524775D01*
X120144142Y-144448114D01*
X120241714Y-144350542D01*
X120318375Y-144235811D01*
X120371180Y-144108328D01*
X120382782Y-144050000D01*
X120398100Y-143972995D01*
X120398100Y-143835004D01*
X120371181Y-143699677D01*
X120371180Y-143699676D01*
X120371180Y-143699672D01*
X120371178Y-143699667D01*
X120318376Y-143572190D01*
X120315505Y-143566819D01*
X120316805Y-143566123D01*
X120313346Y-143555072D01*
X120303123Y-143539165D01*
X120298670Y-143508195D01*
X120298120Y-143506438D01*
X120298100Y-143504230D01*
X120298100Y-143490969D01*
X120316346Y-143428827D01*
X120315506Y-143428378D01*
X120317664Y-143424340D01*
X120317785Y-143423930D01*
X120318321Y-143423110D01*
X120318371Y-143423016D01*
X120318375Y-143423011D01*
X120371180Y-143295528D01*
X120398100Y-143160193D01*
X120398100Y-143022207D01*
X120398100Y-143022204D01*
X120371181Y-142886877D01*
X120371180Y-142886876D01*
X120371180Y-142886872D01*
X120350511Y-142836975D01*
X120343043Y-142767507D01*
X120374318Y-142705027D01*
X120377392Y-142701842D01*
X121738817Y-141340419D01*
X121800140Y-141306934D01*
X121826498Y-141304100D01*
X122175500Y-141304100D01*
X122242539Y-141323785D01*
X122288294Y-141376589D01*
X122299500Y-141428100D01*
X122299500Y-142243102D01*
X122303174Y-142273697D01*
X122310122Y-142331561D01*
X122365639Y-142472343D01*
X122457077Y-142592922D01*
X122577656Y-142684360D01*
X122577657Y-142684360D01*
X122577658Y-142684361D01*
X122718436Y-142739877D01*
X122806898Y-142750500D01*
X122806903Y-142750500D01*
X123993097Y-142750500D01*
X123993102Y-142750500D01*
X124081564Y-142739877D01*
X124222342Y-142684361D01*
X124342922Y-142592922D01*
X124434361Y-142472342D01*
X124489877Y-142331564D01*
X124500500Y-142243102D01*
X124500500Y-139156898D01*
X124489877Y-139068436D01*
X124434361Y-138927658D01*
X124434360Y-138927657D01*
X124434360Y-138927656D01*
X124337797Y-138800319D01*
X124340450Y-138798307D01*
X124314541Y-138750858D01*
X124319525Y-138681166D01*
X124361397Y-138625233D01*
X124426861Y-138600816D01*
X124435707Y-138600500D01*
X125295696Y-138600500D01*
X125362735Y-138620185D01*
X125408490Y-138672989D01*
X125411050Y-138679010D01*
X125428137Y-138722339D01*
X125428138Y-138722341D01*
X125519577Y-138842922D01*
X125640156Y-138934360D01*
X125640157Y-138934360D01*
X125640158Y-138934361D01*
X125780936Y-138989877D01*
X125869398Y-139000500D01*
X125869403Y-139000500D01*
X126480597Y-139000500D01*
X126480602Y-139000500D01*
X126569064Y-138989877D01*
X126709842Y-138934361D01*
X126830422Y-138842922D01*
X126921861Y-138722342D01*
X126972146Y-138594826D01*
X127015051Y-138539685D01*
X127080959Y-138516492D01*
X127148943Y-138532612D01*
X127197420Y-138582929D01*
X127202848Y-138594814D01*
X127233452Y-138672419D01*
X127253139Y-138722343D01*
X127344577Y-138842922D01*
X127465156Y-138934360D01*
X127465157Y-138934360D01*
X127465158Y-138934361D01*
X127605936Y-138989877D01*
X127694398Y-139000500D01*
X127694403Y-139000500D01*
X128305597Y-139000500D01*
X128305602Y-139000500D01*
X128394064Y-138989877D01*
X128534842Y-138934361D01*
X128655422Y-138842922D01*
X128746861Y-138722342D01*
X128752836Y-138707190D01*
X128763950Y-138679010D01*
X128806856Y-138623866D01*
X128872764Y-138600673D01*
X128879304Y-138600500D01*
X129375731Y-138600500D01*
X129375747Y-138600501D01*
X129383343Y-138600501D01*
X129541454Y-138600501D01*
X129541457Y-138600501D01*
X129694185Y-138559577D01*
X129744304Y-138530639D01*
X129831116Y-138480520D01*
X129942920Y-138368716D01*
X129942921Y-138368713D01*
X129987822Y-138323811D01*
X130049144Y-138290329D01*
X130118835Y-138295315D01*
X130174768Y-138337187D01*
X130199184Y-138402652D01*
X130199500Y-138411496D01*
X130199500Y-138643761D01*
X130179815Y-138710800D01*
X130127011Y-138756555D01*
X130120990Y-138759115D01*
X129977660Y-138815637D01*
X129977658Y-138815638D01*
X129857077Y-138907077D01*
X129765639Y-139027656D01*
X129710122Y-139168438D01*
X129704188Y-139217853D01*
X129699500Y-139256898D01*
X129699500Y-139256903D01*
X129699500Y-140180700D01*
X129696949Y-140189385D01*
X129698238Y-140198347D01*
X129687259Y-140222387D01*
X129679815Y-140247739D01*
X129672974Y-140253666D01*
X129669213Y-140261903D01*
X129646978Y-140276192D01*
X129627011Y-140293494D01*
X129616496Y-140295781D01*
X129610435Y-140299677D01*
X129575500Y-140304700D01*
X129361334Y-140304700D01*
X129299334Y-140288087D01*
X129225786Y-140245624D01*
X129225785Y-140245623D01*
X129225784Y-140245623D01*
X129073057Y-140204700D01*
X128914943Y-140204700D01*
X128762216Y-140245623D01*
X128762209Y-140245626D01*
X128625290Y-140324675D01*
X128625282Y-140324681D01*
X128513481Y-140436482D01*
X128513475Y-140436490D01*
X128434426Y-140573409D01*
X128434423Y-140573416D01*
X128393500Y-140726143D01*
X128393500Y-140884256D01*
X128434423Y-141036983D01*
X128434426Y-141036990D01*
X128513475Y-141173909D01*
X128513479Y-141173914D01*
X128513480Y-141173916D01*
X128625284Y-141285720D01*
X128625286Y-141285721D01*
X128625290Y-141285724D01*
X128739593Y-141351716D01*
X128762216Y-141364777D01*
X128914943Y-141405700D01*
X128914945Y-141405700D01*
X129073055Y-141405700D01*
X129073057Y-141405700D01*
X129225784Y-141364777D01*
X129299334Y-141322312D01*
X129314822Y-141318162D01*
X129326399Y-141310723D01*
X129361334Y-141305700D01*
X129575500Y-141305700D01*
X129642539Y-141325385D01*
X129688294Y-141378189D01*
X129699500Y-141429700D01*
X129699500Y-142343102D01*
X129705126Y-142389954D01*
X129710122Y-142431561D01*
X129765639Y-142572343D01*
X129857077Y-142692922D01*
X129977656Y-142784360D01*
X129977657Y-142784360D01*
X129977658Y-142784361D01*
X130118436Y-142839877D01*
X130206898Y-142850500D01*
X130206903Y-142850500D01*
X131393097Y-142850500D01*
X131393102Y-142850500D01*
X131481564Y-142839877D01*
X131622342Y-142784361D01*
X131742922Y-142692922D01*
X131834361Y-142572342D01*
X131889877Y-142431564D01*
X131900500Y-142343102D01*
X131900500Y-139256898D01*
X131889877Y-139168436D01*
X131834361Y-139027658D01*
X131834360Y-139027657D01*
X131834360Y-139027656D01*
X131742922Y-138907077D01*
X131622341Y-138815638D01*
X131622339Y-138815637D01*
X131479010Y-138759115D01*
X131423866Y-138716209D01*
X131400673Y-138650302D01*
X131400500Y-138643761D01*
X131400500Y-138065342D01*
X131420185Y-137998303D01*
X131472989Y-137952548D01*
X131542147Y-137942604D01*
X131605703Y-137971629D01*
X131623304Y-137990417D01*
X131682077Y-138067922D01*
X131802656Y-138159360D01*
X131802657Y-138159360D01*
X131802658Y-138159361D01*
X131943436Y-138214877D01*
X132031898Y-138225500D01*
X132031903Y-138225500D01*
X133368097Y-138225500D01*
X133368102Y-138225500D01*
X133456564Y-138214877D01*
X133597342Y-138159361D01*
X133717922Y-138067922D01*
X133809361Y-137947342D01*
X133864877Y-137806564D01*
X133875500Y-137718102D01*
X133875500Y-136881898D01*
X133864877Y-136793436D01*
X133809361Y-136652658D01*
X133809360Y-136652657D01*
X133809360Y-136652656D01*
X133717922Y-136532077D01*
X133597343Y-136440639D01*
X133456561Y-136385122D01*
X133410926Y-136379642D01*
X133368102Y-136374500D01*
X132031898Y-136374500D01*
X131992853Y-136379188D01*
X131943438Y-136385122D01*
X131802656Y-136440639D01*
X131682077Y-136532077D01*
X131592332Y-136650425D01*
X131536139Y-136691949D01*
X131493528Y-136699500D01*
X130083340Y-136699500D01*
X130042419Y-136710464D01*
X130042419Y-136710465D01*
X130005151Y-136720451D01*
X129930614Y-136740423D01*
X129930609Y-136740426D01*
X129793690Y-136819475D01*
X129793682Y-136819481D01*
X129731266Y-136881898D01*
X129681880Y-136931284D01*
X129681878Y-136931286D01*
X129456087Y-137157078D01*
X129249984Y-137363181D01*
X129188661Y-137396666D01*
X129162303Y-137399500D01*
X128879304Y-137399500D01*
X128812265Y-137379815D01*
X128766510Y-137327011D01*
X128763950Y-137320990D01*
X128746862Y-137277660D01*
X128746861Y-137277658D01*
X128655422Y-137157077D01*
X128534843Y-137065639D01*
X128394061Y-137010122D01*
X128348426Y-137004642D01*
X128305602Y-136999500D01*
X127694398Y-136999500D01*
X127655353Y-137004188D01*
X127605938Y-137010122D01*
X127465156Y-137065639D01*
X127344577Y-137157077D01*
X127253139Y-137277656D01*
X127223165Y-137353663D01*
X127202853Y-137405171D01*
X127159949Y-137460314D01*
X127094041Y-137483507D01*
X127026056Y-137467386D01*
X126977580Y-137417070D01*
X126972148Y-137405178D01*
X126921861Y-137277658D01*
X126921860Y-137277657D01*
X126921860Y-137277656D01*
X126830422Y-137157077D01*
X126709843Y-137065639D01*
X126569061Y-137010122D01*
X126523426Y-137004642D01*
X126480602Y-136999500D01*
X125869398Y-136999500D01*
X125830353Y-137004188D01*
X125780938Y-137010122D01*
X125640156Y-137065639D01*
X125519577Y-137157077D01*
X125428138Y-137277658D01*
X125428137Y-137277660D01*
X125411050Y-137320990D01*
X125368144Y-137376134D01*
X125302236Y-137399327D01*
X125295696Y-137399500D01*
X123947743Y-137399500D01*
X123795015Y-137440423D01*
X123795012Y-137440424D01*
X123749502Y-137466700D01*
X123658087Y-137519477D01*
X123658082Y-137519481D01*
X122919481Y-138258082D01*
X122919475Y-138258090D01*
X122880737Y-138325188D01*
X122880737Y-138325189D01*
X122855607Y-138368716D01*
X122840424Y-138395013D01*
X122799498Y-138547745D01*
X122798438Y-138555803D01*
X122796055Y-138555489D01*
X122779814Y-138610800D01*
X122727010Y-138656555D01*
X122720989Y-138659115D01*
X122577660Y-138715637D01*
X122577658Y-138715638D01*
X122457077Y-138807077D01*
X122365639Y-138927656D01*
X122310122Y-139068438D01*
X122304188Y-139117853D01*
X122299500Y-139156898D01*
X122299500Y-139156903D01*
X122299500Y-139979100D01*
X122279815Y-140046139D01*
X122227011Y-140091894D01*
X122175500Y-140103100D01*
X121613070Y-140103100D01*
X121613054Y-140103099D01*
X121605458Y-140103099D01*
X121447343Y-140103099D01*
X121370979Y-140123561D01*
X121294614Y-140144023D01*
X121294609Y-140144026D01*
X121157690Y-140223075D01*
X121157682Y-140223081D01*
X119217081Y-142163682D01*
X119217079Y-142163685D01*
X119192269Y-142206658D01*
X119171229Y-142243102D01*
X119166961Y-142250494D01*
X119166959Y-142250496D01*
X119138025Y-142300609D01*
X119138024Y-142300610D01*
X119138023Y-142300615D01*
X119097099Y-142453343D01*
X119097099Y-142453345D01*
X119097099Y-142621446D01*
X119097100Y-142621459D01*
X119097100Y-142691430D01*
X119078853Y-142753569D01*
X119079695Y-142754019D01*
X119077535Y-142758059D01*
X119077415Y-142758469D01*
X119076878Y-142759287D01*
X119076823Y-142759390D01*
X119024021Y-142886867D01*
X119024018Y-142886877D01*
X118997100Y-143022204D01*
X118997100Y-143022207D01*
X118997100Y-143160193D01*
X118997100Y-143160195D01*
X118997099Y-143160195D01*
X98706500Y-143160195D01*
X98706500Y-143160193D01*
X98706500Y-143022207D01*
X98706500Y-143022204D01*
X98679581Y-142886877D01*
X98679580Y-142886876D01*
X98679580Y-142886872D01*
X98660114Y-142839877D01*
X98626776Y-142759390D01*
X98623905Y-142754019D01*
X98625205Y-142753323D01*
X98606520Y-142693638D01*
X98606500Y-142691430D01*
X98606500Y-142273697D01*
X98626185Y-142206658D01*
X98642819Y-142186016D01*
X99492016Y-141336819D01*
X99553339Y-141303334D01*
X99579697Y-141300500D01*
X99975500Y-141300500D01*
X100042539Y-141320185D01*
X100088294Y-141372989D01*
X100099500Y-141424500D01*
X100099500Y-142243102D01*
X100103174Y-142273697D01*
X100110122Y-142331561D01*
X100165639Y-142472343D01*
X100257077Y-142592922D01*
X100377656Y-142684360D01*
X100377657Y-142684360D01*
X100377658Y-142684361D01*
X100518436Y-142739877D01*
X100606898Y-142750500D01*
X100606903Y-142750500D01*
X101793097Y-142750500D01*
X101793102Y-142750500D01*
X101881564Y-142739877D01*
X102022342Y-142684361D01*
X102142922Y-142592922D01*
X102234361Y-142472342D01*
X102289877Y-142331564D01*
X102300500Y-142243102D01*
X102300500Y-139156898D01*
X102289877Y-139068436D01*
X102234361Y-138927658D01*
X102234360Y-138927657D01*
X102234360Y-138927656D01*
X102137797Y-138800319D01*
X102140450Y-138798307D01*
X102114541Y-138750858D01*
X102119525Y-138681166D01*
X102161397Y-138625233D01*
X102226861Y-138600816D01*
X102235707Y-138600500D01*
X103095696Y-138600500D01*
X103162735Y-138620185D01*
X103208490Y-138672989D01*
X103211050Y-138679010D01*
X103228137Y-138722339D01*
X103228138Y-138722341D01*
X103319577Y-138842922D01*
X103440156Y-138934360D01*
X103440157Y-138934360D01*
X103440158Y-138934361D01*
X103580936Y-138989877D01*
X103669398Y-139000500D01*
X103669403Y-139000500D01*
X104280597Y-139000500D01*
X104280602Y-139000500D01*
X104369064Y-138989877D01*
X104509842Y-138934361D01*
X104630422Y-138842922D01*
X104721861Y-138722342D01*
X104772146Y-138594826D01*
X104815051Y-138539685D01*
X104880959Y-138516492D01*
X104948943Y-138532612D01*
X104997420Y-138582929D01*
X105002848Y-138594814D01*
X105033452Y-138672419D01*
X105053139Y-138722343D01*
X105144577Y-138842922D01*
X105265156Y-138934360D01*
X105265157Y-138934360D01*
X105265158Y-138934361D01*
X105405936Y-138989877D01*
X105494398Y-139000500D01*
X105494403Y-139000500D01*
X106105597Y-139000500D01*
X106105602Y-139000500D01*
X106194064Y-138989877D01*
X106334842Y-138934361D01*
X106455422Y-138842922D01*
X106546861Y-138722342D01*
X106552836Y-138707190D01*
X106563950Y-138679010D01*
X106606856Y-138623866D01*
X106672764Y-138600673D01*
X106679304Y-138600500D01*
X107692625Y-138600500D01*
X107759664Y-138620185D01*
X107805419Y-138672989D01*
X107815363Y-138742147D01*
X107786338Y-138805703D01*
X107767550Y-138823304D01*
X107657077Y-138907077D01*
X107565639Y-139027656D01*
X107510122Y-139168438D01*
X107504188Y-139217853D01*
X107499500Y-139256898D01*
X107499500Y-139256903D01*
X107499500Y-140275500D01*
X107479815Y-140342539D01*
X107427011Y-140388294D01*
X107375500Y-140399500D01*
X106927827Y-140399500D01*
X106895734Y-140395275D01*
X106848057Y-140382500D01*
X106689943Y-140382500D01*
X106537216Y-140423423D01*
X106537209Y-140423426D01*
X106400290Y-140502475D01*
X106400282Y-140502481D01*
X106288481Y-140614282D01*
X106288475Y-140614290D01*
X106209426Y-140751209D01*
X106209423Y-140751216D01*
X106168500Y-140903943D01*
X106168500Y-141062057D01*
X106198473Y-141173916D01*
X106209423Y-141214783D01*
X106209426Y-141214790D01*
X106288475Y-141351709D01*
X106288479Y-141351714D01*
X106288480Y-141351716D01*
X106400284Y-141463520D01*
X106400286Y-141463521D01*
X106400290Y-141463524D01*
X106537209Y-141542573D01*
X106537216Y-141542577D01*
X106689943Y-141583500D01*
X106689945Y-141583500D01*
X106848055Y-141583500D01*
X106848057Y-141583500D01*
X107000784Y-141542577D01*
X107137716Y-141463520D01*
X107249520Y-141351716D01*
X107268112Y-141319512D01*
X107318678Y-141271296D01*
X107387285Y-141258072D01*
X107452150Y-141284039D01*
X107492679Y-141340952D01*
X107499500Y-141381511D01*
X107499500Y-142343102D01*
X107505126Y-142389954D01*
X107510122Y-142431561D01*
X107565639Y-142572343D01*
X107657077Y-142692922D01*
X107777656Y-142784360D01*
X107777657Y-142784360D01*
X107777658Y-142784361D01*
X107918436Y-142839877D01*
X108006898Y-142850500D01*
X108006903Y-142850500D01*
X109193097Y-142850500D01*
X109193102Y-142850500D01*
X109281564Y-142839877D01*
X109422342Y-142784361D01*
X109542922Y-142692922D01*
X109634361Y-142572342D01*
X109689877Y-142431564D01*
X109700500Y-142343102D01*
X109700500Y-139256898D01*
X109689877Y-139168436D01*
X109634361Y-139027658D01*
X109634360Y-139027657D01*
X109634360Y-139027656D01*
X109542922Y-138907077D01*
X109422341Y-138815638D01*
X109422339Y-138815637D01*
X109279010Y-138759115D01*
X109223866Y-138716209D01*
X109200673Y-138650302D01*
X109200500Y-138643761D01*
X109200500Y-138232896D01*
X109209143Y-138203459D01*
X109215667Y-138173470D01*
X109219422Y-138168452D01*
X109220185Y-138165857D01*
X109236810Y-138145224D01*
X109310417Y-138071617D01*
X109371735Y-138038135D01*
X109441427Y-138043119D01*
X109474246Y-138064211D01*
X109475319Y-138062797D01*
X109602656Y-138159360D01*
X109602657Y-138159360D01*
X109602658Y-138159361D01*
X109743436Y-138214877D01*
X109831898Y-138225500D01*
X109831903Y-138225500D01*
X111168097Y-138225500D01*
X111168102Y-138225500D01*
X111256564Y-138214877D01*
X111397342Y-138159361D01*
X111517922Y-138067922D01*
X111609361Y-137947342D01*
X111664877Y-137806564D01*
X111675500Y-137718102D01*
X111675500Y-136881898D01*
X111664877Y-136793436D01*
X111609361Y-136652658D01*
X111609360Y-136652657D01*
X111609360Y-136652656D01*
X111517922Y-136532077D01*
X111397343Y-136440639D01*
X111256561Y-136385122D01*
X111210926Y-136379642D01*
X111168102Y-136374500D01*
X109831898Y-136374500D01*
X109792853Y-136379188D01*
X109743438Y-136385122D01*
X109602656Y-136440639D01*
X109482077Y-136532077D01*
X109392332Y-136650425D01*
X109336139Y-136691949D01*
X109293528Y-136699500D01*
X109153740Y-136699500D01*
X109112819Y-136710464D01*
X109112819Y-136710465D01*
X109075551Y-136720451D01*
X109001014Y-136740423D01*
X109001009Y-136740426D01*
X108864090Y-136819475D01*
X108864082Y-136819481D01*
X108801666Y-136881898D01*
X108752280Y-136931284D01*
X108752278Y-136931286D01*
X108526487Y-137157078D01*
X108320384Y-137363181D01*
X108259061Y-137396666D01*
X108232703Y-137399500D01*
X106679304Y-137399500D01*
X106612265Y-137379815D01*
X106566510Y-137327011D01*
X106563950Y-137320990D01*
X106546862Y-137277660D01*
X106546861Y-137277658D01*
X106455422Y-137157077D01*
X106334843Y-137065639D01*
X106194061Y-137010122D01*
X106148426Y-137004642D01*
X106105602Y-136999500D01*
X105494398Y-136999500D01*
X105455353Y-137004188D01*
X105405938Y-137010122D01*
X105265156Y-137065639D01*
X105144577Y-137157077D01*
X105053139Y-137277656D01*
X105023165Y-137353663D01*
X105002853Y-137405171D01*
X104959949Y-137460314D01*
X104894041Y-137483507D01*
X104826056Y-137467386D01*
X104777580Y-137417070D01*
X104772148Y-137405178D01*
X104721861Y-137277658D01*
X104721860Y-137277657D01*
X104721860Y-137277656D01*
X104630422Y-137157077D01*
X104509843Y-137065639D01*
X104369061Y-137010122D01*
X104323426Y-137004642D01*
X104280602Y-136999500D01*
X103669398Y-136999500D01*
X103630353Y-137004188D01*
X103580938Y-137010122D01*
X103440156Y-137065639D01*
X103319577Y-137157077D01*
X103228138Y-137277658D01*
X103228137Y-137277660D01*
X103211050Y-137320990D01*
X103168144Y-137376134D01*
X103102236Y-137399327D01*
X103095696Y-137399500D01*
X101863070Y-137399500D01*
X101863054Y-137399499D01*
X101855458Y-137399499D01*
X101697343Y-137399499D01*
X101648824Y-137412500D01*
X101544614Y-137440423D01*
X101544609Y-137440426D01*
X101407690Y-137519475D01*
X101407682Y-137519481D01*
X100824217Y-138102946D01*
X100824214Y-138102948D01*
X100824215Y-138102949D01*
X100719477Y-138207687D01*
X100704924Y-138232896D01*
X100700287Y-138240928D01*
X100671765Y-138290329D01*
X100644712Y-138337187D01*
X100640423Y-138344615D01*
X100599499Y-138497343D01*
X100599499Y-138497345D01*
X100599499Y-138543761D01*
X100579814Y-138610800D01*
X100527010Y-138656555D01*
X100520989Y-138659115D01*
X100377660Y-138715637D01*
X100377658Y-138715638D01*
X100257077Y-138807077D01*
X100165639Y-138927656D01*
X100110122Y-139068438D01*
X100104188Y-139117853D01*
X100099500Y-139156898D01*
X100099500Y-139156903D01*
X100099500Y-139975500D01*
X100079815Y-140042539D01*
X100027011Y-140088294D01*
X99975500Y-140099500D01*
X99200540Y-140099500D01*
X99159619Y-140110464D01*
X99159619Y-140110465D01*
X99122351Y-140120451D01*
X99047814Y-140140423D01*
X99047809Y-140140426D01*
X98910890Y-140219475D01*
X98910882Y-140219481D01*
X97525481Y-141604882D01*
X97525479Y-141604885D01*
X97475361Y-141691694D01*
X97475359Y-141691696D01*
X97446425Y-141741809D01*
X97446424Y-141741810D01*
X97446423Y-141741815D01*
X97405499Y-141894543D01*
X97405499Y-141894545D01*
X97405499Y-142062646D01*
X97405500Y-142062659D01*
X97405500Y-142691430D01*
X97387253Y-142753569D01*
X97388095Y-142754019D01*
X97385935Y-142758059D01*
X97385815Y-142758469D01*
X97385278Y-142759287D01*
X97385223Y-142759390D01*
X97332421Y-142886867D01*
X97332418Y-142886877D01*
X97305500Y-143022204D01*
X97305500Y-143022207D01*
X97305500Y-143160193D01*
X97305500Y-143160195D01*
X97305499Y-143160195D01*
X89800000Y-143160195D01*
X89800000Y-140093976D01*
X89819685Y-140026937D01*
X89872489Y-139981182D01*
X89924000Y-139969976D01*
X90263520Y-139969976D01*
X90354564Y-139951865D01*
X90398852Y-139943056D01*
X90462593Y-139916653D01*
X90526331Y-139890253D01*
X90526332Y-139890252D01*
X90526335Y-139890251D01*
X90641067Y-139813590D01*
X92838318Y-137616336D01*
X92846263Y-137611998D01*
X92851689Y-137604751D01*
X92876448Y-137595516D01*
X92899641Y-137582852D01*
X92908670Y-137583497D01*
X92917153Y-137580334D01*
X92942973Y-137585950D01*
X92969332Y-137587836D01*
X92978385Y-137593654D01*
X92985426Y-137595186D01*
X93013680Y-137616337D01*
X93063181Y-137665838D01*
X93096666Y-137727161D01*
X93099500Y-137753519D01*
X93099500Y-138583196D01*
X93079815Y-138650235D01*
X93027011Y-138695990D01*
X93020990Y-138698550D01*
X92977660Y-138715637D01*
X92977658Y-138715638D01*
X92857077Y-138807077D01*
X92765639Y-138927656D01*
X92710122Y-139068438D01*
X92704188Y-139117853D01*
X92699500Y-139156898D01*
X92699500Y-142243102D01*
X92703174Y-142273697D01*
X92710122Y-142331561D01*
X92765639Y-142472343D01*
X92857077Y-142592922D01*
X92977656Y-142684360D01*
X92977657Y-142684360D01*
X92977658Y-142684361D01*
X93118436Y-142739877D01*
X93206898Y-142750500D01*
X93206903Y-142750500D01*
X94393097Y-142750500D01*
X94393102Y-142750500D01*
X94481564Y-142739877D01*
X94622342Y-142684361D01*
X94742922Y-142592922D01*
X94834361Y-142472342D01*
X94889877Y-142331564D01*
X94900500Y-142243102D01*
X94900500Y-139156898D01*
X94889877Y-139068436D01*
X94834361Y-138927658D01*
X94834360Y-138927657D01*
X94834360Y-138927656D01*
X94742922Y-138807077D01*
X94622341Y-138715638D01*
X94622339Y-138715637D01*
X94579010Y-138698550D01*
X94523866Y-138655644D01*
X94500673Y-138589736D01*
X94500500Y-138583196D01*
X94500500Y-138397844D01*
X95975000Y-138397844D01*
X95981401Y-138457372D01*
X95981403Y-138457379D01*
X96031645Y-138592086D01*
X96031649Y-138592093D01*
X96117809Y-138707187D01*
X96117812Y-138707190D01*
X96232906Y-138793350D01*
X96232913Y-138793354D01*
X96367620Y-138843596D01*
X96367627Y-138843598D01*
X96427155Y-138849999D01*
X96427172Y-138850000D01*
X97700000Y-138850000D01*
X97700000Y-138603553D01*
X97699999Y-138603552D01*
X98200000Y-138603552D01*
X98200000Y-138850000D01*
X99472828Y-138850000D01*
X99472844Y-138849999D01*
X99532372Y-138843598D01*
X99532379Y-138843596D01*
X99667086Y-138793354D01*
X99667093Y-138793350D01*
X99782187Y-138707190D01*
X99782190Y-138707187D01*
X99868350Y-138592093D01*
X99868354Y-138592086D01*
X99918596Y-138457379D01*
X99918598Y-138457372D01*
X99924999Y-138397844D01*
X99925000Y-138397827D01*
X99925000Y-136150000D01*
X99353552Y-136150000D01*
X98953553Y-136550000D01*
X99346704Y-136943151D01*
X99380189Y-137004474D01*
X99375205Y-137074166D01*
X99346704Y-137118513D01*
X99265218Y-137199999D01*
X99346704Y-137281485D01*
X99380189Y-137342808D01*
X99375205Y-137412500D01*
X99346704Y-137456848D01*
X98776777Y-138026777D01*
X98200000Y-138603552D01*
X97699999Y-138603552D01*
X97123223Y-138026777D01*
X96916609Y-137820163D01*
X97150000Y-137820163D01*
X97150000Y-137879837D01*
X97172836Y-137934968D01*
X97215032Y-137977164D01*
X97270163Y-138000000D01*
X97329837Y-138000000D01*
X97384968Y-137977164D01*
X97427164Y-137934968D01*
X97450000Y-137879837D01*
X97450000Y-137850000D01*
X97653553Y-137850000D01*
X97699999Y-137896446D01*
X97700000Y-137896446D01*
X98200000Y-137896446D01*
X98246446Y-137850001D01*
X98246446Y-137849999D01*
X98216610Y-137820163D01*
X98450000Y-137820163D01*
X98450000Y-137879837D01*
X98472836Y-137934968D01*
X98515032Y-137977164D01*
X98570163Y-138000000D01*
X98629837Y-138000000D01*
X98684968Y-137977164D01*
X98727164Y-137934968D01*
X98750000Y-137879837D01*
X98750000Y-137820163D01*
X98727164Y-137765032D01*
X98684968Y-137722836D01*
X98629837Y-137700000D01*
X98570163Y-137700000D01*
X98515032Y-137722836D01*
X98472836Y-137765032D01*
X98450000Y-137820163D01*
X98216610Y-137820163D01*
X98200000Y-137803553D01*
X98200000Y-137896446D01*
X97700000Y-137896446D01*
X97700000Y-137803553D01*
X97653553Y-137850000D01*
X97450000Y-137850000D01*
X97450000Y-137820163D01*
X97427164Y-137765032D01*
X97384968Y-137722836D01*
X97329837Y-137700000D01*
X97270163Y-137700000D01*
X97215032Y-137722836D01*
X97172836Y-137765032D01*
X97150000Y-137820163D01*
X96916609Y-137820163D01*
X96553294Y-137456848D01*
X96519809Y-137395525D01*
X96524793Y-137325833D01*
X96553294Y-137281485D01*
X96634779Y-137200000D01*
X97003553Y-137200000D01*
X97300000Y-137496446D01*
X97300001Y-137496446D01*
X97596446Y-137200001D01*
X97596446Y-137200000D01*
X98303553Y-137200000D01*
X98600000Y-137496446D01*
X98600001Y-137496446D01*
X98896446Y-137200001D01*
X98896446Y-137199999D01*
X98600001Y-136903553D01*
X98600000Y-136903553D01*
X98303553Y-137200000D01*
X97596446Y-137200000D01*
X97596446Y-137199999D01*
X97300001Y-136903553D01*
X97300000Y-136903553D01*
X97003553Y-137200000D01*
X96634779Y-137200000D01*
X96634780Y-137199999D01*
X96553294Y-137118513D01*
X96519809Y-137057190D01*
X96524793Y-136987498D01*
X96553294Y-136943151D01*
X96946446Y-136549999D01*
X96916610Y-136520163D01*
X97150000Y-136520163D01*
X97150000Y-136579837D01*
X97172836Y-136634968D01*
X97215032Y-136677164D01*
X97270163Y-136700000D01*
X97329837Y-136700000D01*
X97384968Y-136677164D01*
X97427164Y-136634968D01*
X97450000Y-136579837D01*
X97450000Y-136550000D01*
X97653553Y-136550000D01*
X97699999Y-136596446D01*
X97700000Y-136596446D01*
X98200000Y-136596446D01*
X98246446Y-136550001D01*
X98246446Y-136549999D01*
X98216610Y-136520163D01*
X98450000Y-136520163D01*
X98450000Y-136579837D01*
X98472836Y-136634968D01*
X98515032Y-136677164D01*
X98570163Y-136700000D01*
X98629837Y-136700000D01*
X98684968Y-136677164D01*
X98727164Y-136634968D01*
X98750000Y-136579837D01*
X98750000Y-136520163D01*
X98727164Y-136465032D01*
X98684968Y-136422836D01*
X98629837Y-136400000D01*
X98570163Y-136400000D01*
X98515032Y-136422836D01*
X98472836Y-136465032D01*
X98450000Y-136520163D01*
X98216610Y-136520163D01*
X98200000Y-136503553D01*
X98200000Y-136596446D01*
X97700000Y-136596446D01*
X97700000Y-136503553D01*
X97653553Y-136550000D01*
X97450000Y-136550000D01*
X97450000Y-136520163D01*
X97427164Y-136465032D01*
X97384968Y-136422836D01*
X97329837Y-136400000D01*
X97270163Y-136400000D01*
X97215032Y-136422836D01*
X97172836Y-136465032D01*
X97150000Y-136520163D01*
X96916610Y-136520163D01*
X96546447Y-136150000D01*
X97253554Y-136150000D01*
X97300000Y-136196445D01*
X97346446Y-136150000D01*
X98553554Y-136150000D01*
X98600000Y-136196445D01*
X98646446Y-136150000D01*
X98553554Y-136150000D01*
X97346446Y-136150000D01*
X97253554Y-136150000D01*
X96546447Y-136150000D01*
X95975000Y-136150000D01*
X95975000Y-138397844D01*
X94500500Y-138397844D01*
X94500500Y-137343004D01*
X94473581Y-137207677D01*
X94473580Y-137207676D01*
X94473580Y-137207672D01*
X94420775Y-137080189D01*
X94388118Y-137031314D01*
X94344114Y-136965457D01*
X94344111Y-136965453D01*
X93564976Y-136186319D01*
X93550039Y-136171382D01*
X93516554Y-136110059D01*
X93521538Y-136040367D01*
X93563410Y-135984434D01*
X93592223Y-135968350D01*
X93673342Y-135936361D01*
X93793922Y-135844922D01*
X93885361Y-135724342D01*
X93940877Y-135583564D01*
X93951500Y-135495102D01*
X93951500Y-134908898D01*
X93940877Y-134820436D01*
X93885361Y-134679658D01*
X93885360Y-134679657D01*
X93885360Y-134679656D01*
X93793922Y-134559077D01*
X93666584Y-134462514D01*
X93667970Y-134460685D01*
X93627679Y-134419372D01*
X93613683Y-134350919D01*
X93638918Y-134285765D01*
X93695372Y-134244598D01*
X93698245Y-134243606D01*
X93720122Y-134236356D01*
X93720124Y-134236356D01*
X93869345Y-134144315D01*
X93993315Y-134020345D01*
X94085356Y-133871124D01*
X94085358Y-133871119D01*
X94140505Y-133704697D01*
X94140506Y-133704690D01*
X94150999Y-133601986D01*
X94151000Y-133601973D01*
X94151000Y-133552000D01*
X91701001Y-133552000D01*
X91701001Y-133601986D01*
X91711494Y-133704697D01*
X91766641Y-133871119D01*
X91766643Y-133871124D01*
X91858684Y-134020345D01*
X91982654Y-134144315D01*
X92131876Y-134236356D01*
X92153755Y-134243606D01*
X92211201Y-134283378D01*
X92238025Y-134347893D01*
X92225711Y-134416669D01*
X92184393Y-134461166D01*
X92185416Y-134462514D01*
X92058077Y-134559077D01*
X91966639Y-134679656D01*
X91911122Y-134820438D01*
X91906750Y-134856848D01*
X91900500Y-134908898D01*
X91900500Y-135495102D01*
X91904204Y-135525945D01*
X91911122Y-135583561D01*
X91966639Y-135724343D01*
X92058077Y-135844922D01*
X92149516Y-135914261D01*
X92178658Y-135936361D01*
X92259770Y-135968347D01*
X92314912Y-136011251D01*
X92338106Y-136077159D01*
X92321986Y-136145144D01*
X92301960Y-136171382D01*
X90011681Y-138461662D01*
X89950358Y-138495147D01*
X89880666Y-138490163D01*
X89824733Y-138448291D01*
X89800316Y-138382827D01*
X89800000Y-138373981D01*
X89800000Y-133402155D01*
X95975000Y-133402155D01*
X95975000Y-135650000D01*
X96546447Y-135650000D01*
X96546447Y-135649999D01*
X97253553Y-135649999D01*
X97253554Y-135650000D01*
X97346446Y-135650000D01*
X97346446Y-135649999D01*
X98553553Y-135649999D01*
X98553554Y-135650000D01*
X98646446Y-135650000D01*
X98646446Y-135649999D01*
X98600000Y-135603553D01*
X98553553Y-135649999D01*
X97346446Y-135649999D01*
X97300000Y-135603553D01*
X97253553Y-135649999D01*
X96546447Y-135649999D01*
X96663221Y-135533226D01*
X96946446Y-135250001D01*
X96946446Y-135249999D01*
X96916610Y-135220163D01*
X97150000Y-135220163D01*
X97150000Y-135279837D01*
X97172836Y-135334968D01*
X97215032Y-135377164D01*
X97270163Y-135400000D01*
X97329837Y-135400000D01*
X97384968Y-135377164D01*
X97427164Y-135334968D01*
X97450000Y-135279837D01*
X97450000Y-135250000D01*
X97653553Y-135250000D01*
X97699999Y-135296446D01*
X97700000Y-135296446D01*
X98200000Y-135296446D01*
X98246446Y-135250001D01*
X98246446Y-135249999D01*
X98216610Y-135220163D01*
X98450000Y-135220163D01*
X98450000Y-135279837D01*
X98472836Y-135334968D01*
X98515032Y-135377164D01*
X98570163Y-135400000D01*
X98629837Y-135400000D01*
X98684968Y-135377164D01*
X98727164Y-135334968D01*
X98750000Y-135279837D01*
X98750000Y-135220163D01*
X98727164Y-135165032D01*
X98684968Y-135122836D01*
X98629837Y-135100000D01*
X98570163Y-135100000D01*
X98515032Y-135122836D01*
X98472836Y-135165032D01*
X98450000Y-135220163D01*
X98216610Y-135220163D01*
X98200000Y-135203553D01*
X98200000Y-135296446D01*
X97700000Y-135296446D01*
X97700000Y-135203553D01*
X97653553Y-135250000D01*
X97450000Y-135250000D01*
X97450000Y-135220163D01*
X97427164Y-135165032D01*
X97384968Y-135122836D01*
X97329837Y-135100000D01*
X97270163Y-135100000D01*
X97215032Y-135122836D01*
X97172836Y-135165032D01*
X97150000Y-135220163D01*
X96916610Y-135220163D01*
X96553295Y-134856848D01*
X96519810Y-134795525D01*
X96524794Y-134725833D01*
X96553295Y-134681486D01*
X96634781Y-134600000D01*
X97003553Y-134600000D01*
X97300000Y-134896446D01*
X97300001Y-134896446D01*
X97596446Y-134600001D01*
X97596446Y-134600000D01*
X98303553Y-134600000D01*
X98600000Y-134896446D01*
X98600001Y-134896446D01*
X98896446Y-134600001D01*
X98896446Y-134599999D01*
X98600001Y-134303553D01*
X98600000Y-134303553D01*
X98303553Y-134600000D01*
X97596446Y-134600000D01*
X97596446Y-134599999D01*
X97300001Y-134303553D01*
X97300000Y-134303553D01*
X97003553Y-134600000D01*
X96634781Y-134600000D01*
X96553294Y-134518513D01*
X96519809Y-134457190D01*
X96524793Y-134387498D01*
X96553294Y-134343151D01*
X96976283Y-133920163D01*
X97150000Y-133920163D01*
X97150000Y-133979837D01*
X97172836Y-134034968D01*
X97215032Y-134077164D01*
X97270163Y-134100000D01*
X97329837Y-134100000D01*
X97384968Y-134077164D01*
X97427164Y-134034968D01*
X97450000Y-133979837D01*
X97450000Y-133950000D01*
X97653553Y-133950000D01*
X97699999Y-133996446D01*
X97700000Y-133996446D01*
X98200000Y-133996446D01*
X98246446Y-133950001D01*
X98246446Y-133949999D01*
X98216610Y-133920163D01*
X98450000Y-133920163D01*
X98450000Y-133979837D01*
X98472836Y-134034968D01*
X98515032Y-134077164D01*
X98570163Y-134100000D01*
X98629837Y-134100000D01*
X98684968Y-134077164D01*
X98727164Y-134034968D01*
X98750000Y-133979837D01*
X98750000Y-133920163D01*
X98727164Y-133865032D01*
X98684968Y-133822836D01*
X98629837Y-133800000D01*
X98570163Y-133800000D01*
X98515032Y-133822836D01*
X98472836Y-133865032D01*
X98450000Y-133920163D01*
X98216610Y-133920163D01*
X98200000Y-133903553D01*
X98200000Y-133996446D01*
X97700000Y-133996446D01*
X97700000Y-133903553D01*
X97653553Y-133950000D01*
X97450000Y-133950000D01*
X97450000Y-133920163D01*
X97427164Y-133865032D01*
X97384968Y-133822836D01*
X97329837Y-133800000D01*
X97270163Y-133800000D01*
X97215032Y-133822836D01*
X97172836Y-133865032D01*
X97150000Y-133920163D01*
X96976283Y-133920163D01*
X97085489Y-133810957D01*
X97123223Y-133773223D01*
X97699999Y-133196446D01*
X98200000Y-133196446D01*
X98776777Y-133773223D01*
X99346704Y-134343151D01*
X99380189Y-134404474D01*
X99375205Y-134474166D01*
X99346704Y-134518513D01*
X99265218Y-134599999D01*
X99346704Y-134681485D01*
X99380189Y-134742808D01*
X99375205Y-134812500D01*
X99346704Y-134856848D01*
X98953553Y-135249999D01*
X98953553Y-135250000D01*
X99353553Y-135650000D01*
X99925000Y-135650000D01*
X99925000Y-133402172D01*
X99924999Y-133402155D01*
X99918598Y-133342627D01*
X99918596Y-133342620D01*
X99868354Y-133207913D01*
X99868352Y-133207910D01*
X99803686Y-133121528D01*
X99803685Y-133121527D01*
X99782186Y-133092808D01*
X99732139Y-133055343D01*
X101367900Y-133055343D01*
X101367900Y-133213457D01*
X101406309Y-133356799D01*
X101408823Y-133366183D01*
X101408826Y-133366190D01*
X101487875Y-133503109D01*
X101487881Y-133503117D01*
X101531581Y-133546817D01*
X101565066Y-133608140D01*
X101567900Y-133634498D01*
X101567900Y-134894902D01*
X101548215Y-134961941D01*
X101531581Y-134982583D01*
X101487881Y-135026282D01*
X101487875Y-135026290D01*
X101408826Y-135163209D01*
X101408823Y-135163216D01*
X101367900Y-135315943D01*
X101367900Y-135474057D01*
X101402599Y-135603553D01*
X101408823Y-135626783D01*
X101408826Y-135626790D01*
X101487875Y-135763709D01*
X101487879Y-135763714D01*
X101487880Y-135763716D01*
X101599684Y-135875520D01*
X101599686Y-135875521D01*
X101599690Y-135875524D01*
X101736609Y-135954573D01*
X101736616Y-135954577D01*
X101889343Y-135995500D01*
X101889345Y-135995500D01*
X102047455Y-135995500D01*
X102047457Y-135995500D01*
X102200184Y-135954577D01*
X102337116Y-135875520D01*
X102448920Y-135763716D01*
X102450944Y-135760209D01*
X102453427Y-135757842D01*
X102453870Y-135757265D01*
X102453959Y-135757334D01*
X102501506Y-135711993D01*
X102570112Y-135698765D01*
X102597338Y-135704498D01*
X102723502Y-135746305D01*
X102723509Y-135746306D01*
X102826219Y-135756799D01*
X103388700Y-135756799D01*
X103451172Y-135756799D01*
X103451186Y-135756798D01*
X103553897Y-135746305D01*
X103720319Y-135691158D01*
X103720324Y-135691156D01*
X103869545Y-135599115D01*
X103993515Y-135475145D01*
X104065355Y-135358675D01*
X104117303Y-135311951D01*
X104186266Y-135300728D01*
X104250348Y-135328572D01*
X104269698Y-135348847D01*
X104308277Y-135399722D01*
X104428856Y-135491160D01*
X104428857Y-135491160D01*
X104428858Y-135491161D01*
X104569636Y-135546677D01*
X104658098Y-135557300D01*
X104658103Y-135557300D01*
X105269297Y-135557300D01*
X105269302Y-135557300D01*
X105357764Y-135546677D01*
X105498542Y-135491161D01*
X105619122Y-135399722D01*
X105627222Y-135389039D01*
X105683413Y-135347516D01*
X105753134Y-135342963D01*
X105814249Y-135376827D01*
X105824832Y-135389040D01*
X105834289Y-135401511D01*
X105953500Y-135491911D01*
X105953502Y-135491912D01*
X106023089Y-135519354D01*
X106092679Y-135546797D01*
X106180140Y-135557300D01*
X106180146Y-135557300D01*
X106752854Y-135557300D01*
X106752860Y-135557300D01*
X106840321Y-135546797D01*
X106979500Y-135491911D01*
X107098711Y-135401511D01*
X107189111Y-135282300D01*
X107243997Y-135143121D01*
X107254500Y-135055660D01*
X107254500Y-134057940D01*
X107553500Y-134057940D01*
X107553500Y-135055660D01*
X107560630Y-135115032D01*
X107564003Y-135143122D01*
X107618887Y-135282297D01*
X107618888Y-135282299D01*
X107709288Y-135401511D01*
X107828500Y-135491911D01*
X107828502Y-135491912D01*
X107898089Y-135519354D01*
X107967679Y-135546797D01*
X108055140Y-135557300D01*
X108055146Y-135557300D01*
X108627854Y-135557300D01*
X108627860Y-135557300D01*
X108715321Y-135546797D01*
X108854500Y-135491911D01*
X108973711Y-135401511D01*
X109064111Y-135282300D01*
X109118997Y-135143121D01*
X109123525Y-135105413D01*
X109151060Y-135041201D01*
X109208941Y-135002066D01*
X109278792Y-135000438D01*
X109338435Y-135036832D01*
X109361994Y-135074706D01*
X109390638Y-135147341D01*
X109482077Y-135267922D01*
X109602656Y-135359360D01*
X109602657Y-135359360D01*
X109602658Y-135359361D01*
X109743436Y-135414877D01*
X109831898Y-135425500D01*
X109831903Y-135425500D01*
X111168097Y-135425500D01*
X111168102Y-135425500D01*
X111256564Y-135414877D01*
X111397342Y-135359361D01*
X111517922Y-135267922D01*
X111531837Y-135249573D01*
X111588030Y-135208051D01*
X111630640Y-135200500D01*
X112419995Y-135200500D01*
X112511041Y-135182389D01*
X112555328Y-135173580D01*
X112682811Y-135120775D01*
X112797542Y-135044114D01*
X112895114Y-134946542D01*
X112971775Y-134831811D01*
X113024580Y-134704328D01*
X113033389Y-134660041D01*
X113051500Y-134568995D01*
X113051500Y-134431004D01*
X113024581Y-134295677D01*
X113024580Y-134295676D01*
X113024580Y-134295672D01*
X113023536Y-134293151D01*
X112969444Y-134162560D01*
X112970453Y-134162141D01*
X112957500Y-134110421D01*
X112957500Y-133410945D01*
X112957500Y-133410943D01*
X112916577Y-133258216D01*
X112916573Y-133258209D01*
X112837524Y-133121290D01*
X112837518Y-133121282D01*
X112725717Y-133009481D01*
X112725709Y-133009475D01*
X112588790Y-132930426D01*
X112588786Y-132930424D01*
X112588784Y-132930423D01*
X112436057Y-132889500D01*
X112277943Y-132889500D01*
X112125216Y-132930423D01*
X112125209Y-132930426D01*
X111988290Y-133009475D01*
X111988282Y-133009481D01*
X111876481Y-133121282D01*
X111876475Y-133121290D01*
X111797426Y-133258209D01*
X111797423Y-133258216D01*
X111756500Y-133410943D01*
X111756500Y-133675500D01*
X111753949Y-133684185D01*
X111755238Y-133693147D01*
X111744259Y-133717187D01*
X111736815Y-133742539D01*
X111729974Y-133748466D01*
X111726213Y-133756703D01*
X111703978Y-133770992D01*
X111684011Y-133788294D01*
X111673496Y-133790581D01*
X111667435Y-133794477D01*
X111632500Y-133799500D01*
X111630640Y-133799500D01*
X111563601Y-133779815D01*
X111531837Y-133750427D01*
X111517921Y-133732077D01*
X111397343Y-133640639D01*
X111279008Y-133593974D01*
X111256564Y-133585123D01*
X111256563Y-133585122D01*
X111256561Y-133585122D01*
X111210926Y-133579642D01*
X111168102Y-133574500D01*
X109831898Y-133574500D01*
X109792853Y-133579188D01*
X109743438Y-133585122D01*
X109602656Y-133640639D01*
X109482077Y-133732077D01*
X109390638Y-133852658D01*
X109346940Y-133963468D01*
X109304034Y-134018611D01*
X109238126Y-134041804D01*
X109170142Y-134025683D01*
X109121666Y-133975366D01*
X109116232Y-133963467D01*
X109064112Y-133831302D01*
X109064111Y-133831300D01*
X108973711Y-133712088D01*
X108854499Y-133621688D01*
X108854497Y-133621687D01*
X108715322Y-133566803D01*
X108702672Y-133565284D01*
X108627860Y-133556300D01*
X108055140Y-133556300D01*
X107989544Y-133564177D01*
X107967677Y-133566803D01*
X107828502Y-133621687D01*
X107828500Y-133621688D01*
X107709288Y-133712088D01*
X107618888Y-133831300D01*
X107618887Y-133831302D01*
X107564003Y-133970477D01*
X107564003Y-133970479D01*
X107553500Y-134057940D01*
X107254500Y-134057940D01*
X107243997Y-133970479D01*
X107209144Y-133882100D01*
X107189112Y-133831302D01*
X107189111Y-133831300D01*
X107098711Y-133712088D01*
X106979499Y-133621688D01*
X106979497Y-133621687D01*
X106840322Y-133566803D01*
X106827672Y-133565284D01*
X106752860Y-133556300D01*
X106180140Y-133556300D01*
X106114544Y-133564177D01*
X106092677Y-133566803D01*
X105953502Y-133621687D01*
X105953500Y-133621688D01*
X105834289Y-133712088D01*
X105824830Y-133724562D01*
X105768637Y-133766084D01*
X105698915Y-133770635D01*
X105637802Y-133736769D01*
X105627223Y-133724561D01*
X105619122Y-133713878D01*
X105619120Y-133713877D01*
X105619120Y-133713876D01*
X105498543Y-133622439D01*
X105357761Y-133566922D01*
X105312126Y-133561442D01*
X105269302Y-133556300D01*
X104658098Y-133556300D01*
X104619053Y-133560988D01*
X104569638Y-133566922D01*
X104428856Y-133622439D01*
X104308277Y-133713878D01*
X104269697Y-133764753D01*
X104213505Y-133806276D01*
X104143783Y-133810827D01*
X104082670Y-133776962D01*
X104065356Y-133754924D01*
X103993519Y-133638459D01*
X103993516Y-133638455D01*
X103869545Y-133514484D01*
X103720324Y-133422443D01*
X103720319Y-133422441D01*
X103553897Y-133367294D01*
X103553890Y-133367293D01*
X103451186Y-133356800D01*
X103388700Y-133356800D01*
X103388700Y-135756799D01*
X102826219Y-135756799D01*
X102888699Y-135756798D01*
X102888700Y-135756798D01*
X102888700Y-133356800D01*
X102888699Y-133356799D01*
X102826228Y-133356800D01*
X102826211Y-133356801D01*
X102723498Y-133367294D01*
X102716881Y-133368711D01*
X102716414Y-133366529D01*
X102657068Y-133368570D01*
X102597027Y-133332838D01*
X102565835Y-133270317D01*
X102567900Y-133221521D01*
X102567839Y-133221513D01*
X102567930Y-133220816D01*
X102568118Y-133216372D01*
X102568900Y-133213457D01*
X102568900Y-133055343D01*
X102527977Y-132902616D01*
X102469141Y-132800708D01*
X102448924Y-132765690D01*
X102448918Y-132765682D01*
X102337117Y-132653881D01*
X102337109Y-132653875D01*
X102200190Y-132574826D01*
X102200186Y-132574824D01*
X102200184Y-132574823D01*
X102047457Y-132533900D01*
X101889343Y-132533900D01*
X101736616Y-132574823D01*
X101736609Y-132574826D01*
X101599690Y-132653875D01*
X101599682Y-132653881D01*
X101487881Y-132765682D01*
X101487875Y-132765690D01*
X101408826Y-132902609D01*
X101408823Y-132902616D01*
X101367900Y-133055343D01*
X99732139Y-133055343D01*
X99667093Y-133006649D01*
X99667086Y-133006645D01*
X99532379Y-132956403D01*
X99532372Y-132956401D01*
X99472844Y-132950000D01*
X98200000Y-132950000D01*
X98200000Y-133196446D01*
X97699999Y-133196446D01*
X97700000Y-133196445D01*
X97700000Y-132950000D01*
X96427155Y-132950000D01*
X96367627Y-132956401D01*
X96367620Y-132956403D01*
X96232913Y-133006645D01*
X96232906Y-133006649D01*
X96117812Y-133092809D01*
X96117809Y-133092812D01*
X96031649Y-133207906D01*
X96031645Y-133207913D01*
X95981403Y-133342620D01*
X95981401Y-133342627D01*
X95975000Y-133402155D01*
X89800000Y-133402155D01*
X89800000Y-133002013D01*
X91701000Y-133002013D01*
X91701000Y-133052000D01*
X92676000Y-133052000D01*
X93176000Y-133052000D01*
X94150999Y-133052000D01*
X94150999Y-133002028D01*
X94150998Y-133002013D01*
X94140505Y-132899302D01*
X94085358Y-132732880D01*
X94085356Y-132732875D01*
X93993315Y-132583654D01*
X93869345Y-132459684D01*
X93720124Y-132367643D01*
X93720119Y-132367641D01*
X93553697Y-132312494D01*
X93553690Y-132312493D01*
X93450986Y-132302000D01*
X93176000Y-132302000D01*
X93176000Y-133052000D01*
X92676000Y-133052000D01*
X92676000Y-132302000D01*
X92401029Y-132302000D01*
X92401012Y-132302001D01*
X92298302Y-132312494D01*
X92131880Y-132367641D01*
X92131875Y-132367643D01*
X91982654Y-132459684D01*
X91858684Y-132583654D01*
X91766643Y-132732875D01*
X91766641Y-132732880D01*
X91711494Y-132899302D01*
X91711493Y-132899309D01*
X91701000Y-133002013D01*
X89800000Y-133002013D01*
X89800000Y-132867747D01*
X89819685Y-132800708D01*
X89836319Y-132780066D01*
X90880066Y-131736319D01*
X90941389Y-131702834D01*
X90967747Y-131700000D01*
X113461981Y-131700000D01*
X113529020Y-131719685D01*
G37*
%TD.AperFunction*%
%TD*%
M02*
