M48
; DRILL file KiCad 10.0.4 date 2026-09-13T18:01:14
; FORMAT={-:-/ absolute / metric / decimal}
; #@! TF.CreationDate,2026-09-13T18:01:14+02:00
; #@! TF.GenerationSoftware,Kicad,Pcbnew,10.0.4
; #@! TF.FileFunction,Plated,1,4,PTH
FMAT,2
METRIC
; #@! TA.AperFunction,Plated,PTH,ViaDrill
T1C0.300
; #@! TA.AperFunction,Plated,PTH,ComponentDrill
T2C0.300
; #@! TA.AperFunction,Plated,PTH,ViaDrill
T3C0.500
; #@! TA.AperFunction,Plated,PTH,ComponentDrill
T4C0.500
; #@! TA.AperFunction,Plated,PTH,ComponentDrill
T5C0.800
; #@! TA.AperFunction,Plated,PTH,ComponentDrill
T6C0.900
; #@! TA.AperFunction,Plated,PTH,ComponentDrill
T7C1.000
; #@! TA.AperFunction,Plated,PTH,ComponentDrill
T8C1.500
; #@! TA.AperFunction,Plated,PTH,ComponentDrill
T9C1.700
; #@! TA.AperFunction,Plated,PTH,ComponentDrill
T10C3.200
%
G90
G05
T1
X51.0Y-63.6
X51.0Y-65.6
X51.0Y-67.6
X51.0Y-69.6
X51.0Y-71.6
X51.0Y-75.4
X51.0Y-77.4
X51.0Y-81.4
X51.0Y-83.4
X51.0Y-85.4
X51.0Y-89.4
X51.0Y-91.4
X51.0Y-95.4
X51.0Y-97.4
X51.0Y-99.2
X51.0Y-101.2
X51.0Y-103.2
X51.0Y-105.2
X51.0Y-107.2
X51.0Y-109.2
X51.0Y-111.2
X51.0Y-113.2
X51.0Y-115.2
X51.0Y-117.2
X51.0Y-119.2
X51.0Y-121.2
X51.0Y-123.0
X51.0Y-125.0
X51.0Y-127.0
X51.0Y-129.0
X51.0Y-131.0
X51.0Y-135.0
X51.0Y-137.0
X51.0Y-139.0
X51.0Y-141.0
X51.0Y-143.0
X51.0Y-145.0
X51.0Y-146.8
X51.003Y-132.994
X51.016Y-73.546
X51.016Y-79.388
X51.016Y-87.389
X51.016Y-93.358
X51.3Y-148.6
X51.8Y-62.2
X52.54Y-133.871
X52.8Y-149.2
X54.0Y-61.7
X54.699Y-105.347
X54.8Y-149.2
X55.334Y-75.705
X55.588Y-132.474
X55.588Y-134.252
X55.588Y-135.268
X55.7Y-115.8
X55.7Y-116.8
X56.0Y-61.7
X56.096Y-97.803
X56.223Y-85.865
X56.8Y-149.2
X58.0Y-61.7
X58.128Y-79.769
X58.8Y-149.2
X59.144Y-73.927
X59.144Y-128.791
X59.195Y-115.786
X59.195Y-116.802
X59.195Y-123.813
X59.2Y-124.8
X59.779Y-129.807
X59.779Y-140.094
X60.0Y-61.7
X60.16Y-79.769
X60.287Y-84.595
X60.287Y-87.389
X60.414Y-93.612
X60.414Y-131.153
X60.414Y-135.903
X60.8Y-149.2
X60.973Y-70.774
X61.049Y-77.864
X61.8Y-61.7
X62.128Y-79.388
X62.8Y-149.2
X63.8Y-61.7
X64.097Y-129.553
X64.224Y-91.453
X64.376Y-68.894
X64.389Y-131.953
X64.478Y-135.132
X64.478Y-136.538
X64.732Y-115.202
X64.732Y-122.949
X64.8Y-149.2
X64.859Y-103.137
X64.859Y-109.106
X64.935Y-65.49
X65.2Y-140.916
X65.2Y-144.4
X65.583Y-76.759
X65.621Y-127.648
X65.799Y-75.125
X65.8Y-61.7
X65.878Y-133.47
X66.2Y-140.916
X66.2Y-144.4
X66.8Y-149.2
X67.018Y-88.532
X67.17Y-140.907
X67.653Y-133.617
X67.653Y-134.506
X67.8Y-61.7
X68.136Y-140.907
X68.161Y-95.39
X68.669Y-127.394
X68.8Y-149.2
X68.923Y-135.776
X69.05Y-83.325
X69.202Y-140.866
X69.685Y-79.515
X69.71Y-71.79
X69.71Y-74.787
X69.8Y-61.7
X70.231Y-139.192
X70.231Y-139.992
X70.422Y-106.566
X70.447Y-96.914
X70.472Y-146.317
X70.51Y-92.913
X70.625Y-65.49
X70.701Y-113.932
X70.8Y-149.2
X71.509Y-135.534
X71.692Y-74.787
X71.717Y-127.775
X71.8Y-61.7
X72.263Y-124.206
X72.8Y-149.2
X73.152Y-117.805
X73.216Y-144.361
X73.406Y-119.99
X73.49Y-135.534
X73.8Y-61.7
X74.041Y-123.063
X74.206Y-144.361
X74.432Y-121.251
X74.511Y-83.325
X74.511Y-88.532
X74.511Y-97.93
X74.536Y-107.074
X74.8Y-149.2
X74.994Y-95.746
X75.197Y-144.361
X75.452Y-121.261
X75.502Y-102.248
X75.527Y-113.043
X75.527Y-138.189
X75.781Y-74.816
X75.8Y-61.7
X76.467Y-96.508
X76.568Y-107.074
X76.8Y-149.2
X77.178Y-122.822
X77.305Y-130.213
X77.686Y-102.502
X77.8Y-61.7
X77.94Y-117.488
X78.194Y-135.522
X78.194Y-140.805
X78.8Y-149.2
X78.829Y-131.077
X78.982Y-144.26
X79.21Y-139.459
X79.218Y-140.764
X79.718Y-107.074
X79.718Y-131.077
X79.8Y-61.7
X79.972Y-126.378
X80.226Y-78.88
X80.226Y-87.008
X80.226Y-128.791
X80.226Y-132.728
X80.302Y-99.53
X80.467Y-111.252
X80.48Y-109.106
X80.8Y-149.2
X81.14Y-122.111
X81.699Y-96.508
X81.8Y-61.7
X81.801Y-147.714
X81.801Y-148.578
X81.852Y-107.074
X81.877Y-117.488
X82.042Y-144.78
X82.258Y-113.094
X82.258Y-136.538
X82.8Y-149.2
X83.172Y-122.111
X83.401Y-128.791
X83.6Y-61.7
X83.769Y-107.086
X83.909Y-117.996
X84.29Y-91.072
X84.417Y-133.744
X84.671Y-67.323
X84.8Y-149.2
X85.1Y-142.7
X85.433Y-113.094
X85.6Y-61.7
X85.687Y-74.943
X85.865Y-114.592
X85.966Y-121.552
X86.8Y-149.2
X86.957Y-84.468
X86.957Y-126.505
X87.211Y-101.867
X87.6Y-61.7
X87.795Y-103.315
X87.846Y-114.592
X87.973Y-98.438
X87.973Y-119.393
X88.202Y-141.161
X88.506Y-122.924
X88.8Y-149.2
X88.989Y-106.82
X89.192Y-146.622
X89.6Y-61.7
X89.624Y-89.929
X89.929Y-101.451
X90.513Y-140.348
X90.513Y-141.745
X90.513Y-143.65
X90.513Y-145.555
X90.513Y-146.952
X90.569Y-137.3
X90.64Y-78.88
X90.64Y-114.237
X90.8Y-149.2
X90.894Y-122.924
X91.148Y-110.376
X91.6Y-61.7
X92.037Y-101.105
X92.291Y-146.317
X92.799Y-138.189
X92.8Y-149.2
X93.18Y-94.628
X93.485Y-118.606
X93.6Y-61.7
X93.688Y-88.786
X93.815Y-143.396
X94.8Y-149.2
X95.339Y-146.317
X95.466Y-73.419
X95.517Y-126.124
X95.593Y-138.824
X95.6Y-61.7
X95.72Y-84.595
X96.401Y-106.434
X96.401Y-108.44
X96.8Y-149.2
X96.863Y-111.646
X96.99Y-98.819
X97.092Y-123.787
X97.371Y-69.863
X97.6Y-61.7
X98.006Y-106.185
X98.133Y-65.291
X98.8Y-149.2
X99.114Y-128.432
X99.6Y-61.7
X99.657Y-141.999
X99.657Y-144.031
X99.784Y-146.317
X100.419Y-68.339
X100.419Y-70.879
X100.419Y-73.419
X100.419Y-79.769
X100.419Y-81.039
X100.419Y-83.579
X100.419Y-88.659
X100.419Y-91.199
X100.419Y-93.739
X100.419Y-96.279
X100.419Y-98.819
X100.419Y-101.359
X100.419Y-111.519
X100.419Y-114.059
X100.546Y-132.601
X100.8Y-149.2
X100.965Y-128.233
X101.6Y-61.7
X101.968Y-133.134
X101.968Y-135.395
X102.705Y-132.22
X102.8Y-149.2
X103.213Y-147.05
X103.6Y-61.7
X103.698Y-128.346
X103.847Y-132.22
X104.356Y-68.339
X104.356Y-70.879
X104.356Y-73.419
X104.356Y-88.659
X104.356Y-96.279
X104.356Y-108.979
X104.356Y-111.519
X104.483Y-140.348
X104.8Y-149.2
X105.4Y-61.7
X105.499Y-83.96
X105.537Y-128.524
X105.626Y-79.007
X105.753Y-132.22
X106.578Y-102.768
X106.642Y-145.555
X106.769Y-140.983
X106.8Y-149.2
X107.023Y-139.205
X107.15Y-146.19
X107.4Y-61.7
X107.404Y-125.743
X107.404Y-128.029
X107.531Y-111.519
X107.658Y-132.22
X107.658Y-136.411
X107.785Y-75.324
X107.785Y-77.229
X107.785Y-82.309
X107.785Y-121.044
X107.823Y-96.52
X107.848Y-106.172
X108.166Y-116.599
X108.458Y-97.536
X108.547Y-88.659
X108.547Y-143.396
X108.674Y-107.455
X108.8Y-149.2
X108.814Y-86.119
X109.182Y-123.838
X109.4Y-61.7
X109.563Y-132.22
X110.071Y-146.19
X110.198Y-94.247
X110.503Y-74.41
X110.503Y-76.391
X110.503Y-78.372
X110.541Y-96.571
X110.541Y-119.151
X110.579Y-125.743
X110.8Y-149.2
X110.833Y-121.425
X111.087Y-114.059
X111.087Y-128.664
X111.087Y-132.22
X111.4Y-61.7
X111.468Y-96.279
X111.595Y-97.803
X111.862Y-86.995
X112.281Y-95.542
X112.357Y-99.327
X112.357Y-133.49
X112.357Y-134.506
X112.357Y-137.427
X112.357Y-138.824
X112.357Y-143.015
X112.8Y-149.2
X113.043Y-82.08
X113.043Y-85.043
X113.055Y-93.37
X113.246Y-99.327
X113.348Y-114.059
X113.4Y-61.7
X113.627Y-128.664
X113.627Y-132.22
X113.767Y-119.177
X113.868Y-82.067
X114.135Y-117.488
X114.314Y-98.437
X114.351Y-85.09
X114.389Y-146.317
X114.414Y-92.648
X114.44Y-114.059
X114.516Y-68.339
X114.516Y-70.879
X114.703Y-79.35
X114.8Y-149.2
X115.151Y-99.2
X115.329Y-77.737
X115.4Y-61.7
X115.786Y-130.315
X115.888Y-80.658
X115.913Y-124.981
X115.989Y-103.289
X116.04Y-109.868
X116.04Y-143.396
X116.632Y-132.176
X116.675Y-109.233
X116.8Y-149.2
X116.904Y-92.648
X117.158Y-93.612
X117.183Y-77.864
X117.183Y-98.438
X117.183Y-115.837
X117.4Y-61.7
X117.437Y-138.697
X117.564Y-146.317
X117.691Y-127.902
X117.945Y-90.183
X117.97Y-103.289
X118.072Y-94.78
X118.123Y-88.278
X118.224Y-97.168
X118.682Y-93.155
X118.8Y-149.2
X118.961Y-121.679
X119.342Y-109.36
X119.4Y-61.7
X119.469Y-112.789
X119.647Y-86.449
X119.723Y-84.468
X119.723Y-88.278
X120.485Y-83.579
X120.8Y-149.2
X121.171Y-80.658
X121.247Y-125.616
X121.4Y-61.7
X121.755Y-85.23
X121.882Y-75.705
X121.882Y-142.126
X121.882Y-146.317
X121.933Y-102.553
X122.8Y-149.2
X122.885Y-97.079
X123.0Y-98.946
X123.4Y-61.7
X123.533Y-68.339
X123.533Y-70.879
X123.533Y-73.419
X123.533Y-101.359
X123.533Y-103.899
X123.533Y-107.709
X123.533Y-111.519
X123.533Y-117.869
X123.533Y-121.679
X123.533Y-124.219
X123.863Y-133.185
X123.863Y-135.37
X124.8Y-149.2
X125.184Y-132.22
X125.4Y-61.7
X126.111Y-140.5
X126.454Y-145.809
X126.8Y-149.2
X127.2Y-61.7
X127.216Y-132.22
X127.47Y-68.339
X127.47Y-70.879
X127.47Y-73.419
X127.47Y-78.499
X127.47Y-81.039
X127.47Y-91.199
X127.47Y-96.279
X127.47Y-98.819
X127.47Y-101.359
X127.47Y-103.899
X127.47Y-108.979
X127.47Y-111.519
X127.47Y-115.329
X127.47Y-117.869
X127.47Y-121.679
X127.47Y-124.219
X128.486Y-83.325
X128.74Y-120.282
X128.74Y-145.428
X128.8Y-149.2
X128.994Y-140.805
X129.121Y-139.205
X129.2Y-61.7
X129.248Y-129.934
X129.248Y-132.22
X129.248Y-146.317
X129.629Y-94.12
X130.01Y-89.675
X130.391Y-74.689
X130.391Y-77.483
X130.508Y-110.282
X130.762Y-100.274
X130.8Y-149.2
X130.813Y-97.531
X131.2Y-61.7
X131.407Y-132.22
X131.524Y-103.449
X131.524Y-106.116
X131.55Y-120.472
X131.788Y-115.329
X131.788Y-117.869
X132.032Y-100.274
X132.423Y-138.824
X132.423Y-146.317
X132.54Y-110.282
X132.677Y-131.077
X132.7Y-132.982
X132.8Y-149.2
X132.804Y-97.549
X132.804Y-143.523
X132.871Y-120.828
X133.2Y-61.7
X133.227Y-127.28
X133.439Y-70.879
X133.439Y-73.8
X133.439Y-77.737
X133.439Y-81.166
X133.439Y-86.246
X133.439Y-91.072
X133.566Y-113.551
X133.947Y-129.934
X133.947Y-132.22
X134.572Y-110.282
X134.8Y-149.2
X135.09Y-99.708
X135.2Y-61.7
X135.471Y-67.069
X136.233Y-132.22
X136.36Y-115.329
X136.36Y-117.869
X136.741Y-133.998
X136.741Y-136.284
X136.741Y-137.681
X136.741Y-139.586
X136.741Y-141.491
X136.741Y-143.396
X136.741Y-145.301
X136.741Y-147.333
X136.8Y-149.2
X136.995Y-89.675
X136.995Y-94.628
X136.995Y-99.708
X136.995Y-105.042
X136.995Y-110.249
X137.2Y-61.7
X138.011Y-122.441
X138.011Y-124.854
X138.011Y-127.267
X138.011Y-130.188
X138.077Y-101.189
X138.8Y-149.2
X139.2Y-61.7
X139.281Y-77.864
X139.281Y-88.151
X139.296Y-83.002
X139.296Y-95.956
X139.296Y-101.189
X139.296Y-106.37
X139.296Y-111.552
X140.8Y-149.2
X140.89Y-107.102
X141.2Y-61.7
X141.29Y-78.462
X141.29Y-81.462
X141.29Y-83.662
X141.29Y-86.662
X141.29Y-91.502
X141.29Y-94.502
X141.29Y-96.702
X141.29Y-99.702
X141.29Y-101.902
X141.29Y-104.802
X141.29Y-110.002
X141.567Y-115.329
X141.821Y-118.885
X142.8Y-149.2
X142.964Y-71.895
X142.964Y-90.183
X142.99Y-77.362
X142.99Y-82.562
X142.99Y-87.762
X142.99Y-95.602
X142.99Y-100.802
X142.99Y-105.902
X142.99Y-111.302
X143.091Y-118.885
X143.2Y-61.7
X144.361Y-118.885
X144.8Y-149.2
X145.2Y-61.7
X145.758Y-124.854
X145.758Y-127.267
X146.6Y-61.9
X146.6Y-148.8
X147.2Y-63.2
X147.2Y-65.2
X147.2Y-67.2
X147.2Y-69.2
X147.2Y-71.2
X147.2Y-73.2
X147.2Y-75.2
X147.2Y-77.2
X147.2Y-79.2
X147.2Y-81.2
X147.2Y-83.2
X147.2Y-85.2
X147.2Y-87.2
X147.2Y-89.2
X147.2Y-91.25
X147.2Y-93.2
X147.2Y-95.2
X147.2Y-97.2
X147.2Y-99.2
X147.2Y-101.2
X147.2Y-103.2
X147.2Y-105.2
X147.2Y-107.2
X147.2Y-109.2
X147.2Y-111.2
X147.2Y-113.2
X147.2Y-115.2
X147.2Y-117.2
X147.2Y-119.2
X147.2Y-121.2
X147.2Y-123.2
X147.2Y-125.2
X147.2Y-127.2
X147.2Y-129.2
X147.2Y-131.2
X147.2Y-133.2
X147.2Y-135.25
X147.2Y-137.2
X147.2Y-139.2
X147.2Y-141.2
X147.2Y-143.2
X147.2Y-145.2
X147.2Y-147.2
T2
X97.3Y-133.95
X97.3Y-135.25
X97.3Y-136.55
X97.3Y-137.85
X98.6Y-133.95
X98.6Y-135.25
X98.6Y-136.55
X98.6Y-137.85
X114.299Y-94.646
X114.299Y-95.546
X114.299Y-96.446
X115.199Y-94.646
X115.199Y-95.546
X115.199Y-96.446
X116.099Y-94.646
X116.099Y-95.546
X116.099Y-96.446
X119.1Y-133.9
X119.1Y-135.2
X119.1Y-136.5
X119.1Y-137.8
X120.4Y-133.9
X120.4Y-135.2
X120.4Y-136.5
X120.4Y-137.8
T3
X83.655Y-137.173
X83.655Y-138.189
X92.266Y-137.198
X92.926Y-136.538
X98.006Y-143.091
X98.006Y-143.904
X115.38Y-136.487
X115.38Y-137.402
X119.698Y-143.091
X119.698Y-143.904
T4
X52.6Y-66.0
X52.6Y-145.0
X53.303Y-64.303
X53.303Y-67.697
X53.303Y-143.303
X53.303Y-146.697
X55.0Y-63.6
X55.0Y-68.4
X55.0Y-142.6
X55.0Y-147.4
X56.697Y-64.303
X56.697Y-67.697
X56.697Y-143.303
X56.697Y-146.697
X57.4Y-66.0
X57.4Y-145.0
X140.6Y-66.0
X140.6Y-145.0
X141.303Y-64.303
X141.303Y-67.697
X141.303Y-143.303
X141.303Y-146.697
X143.0Y-63.6
X143.0Y-68.4
X143.0Y-142.6
X143.0Y-147.4
X144.697Y-64.303
X144.697Y-67.697
X144.697Y-143.303
X144.697Y-146.697
X145.4Y-66.0
X145.4Y-145.0
T5
X85.916Y-128.744
X85.916Y-133.744
T6
X67.768Y-103.903
X67.768Y-121.903
X93.268Y-103.903
X93.268Y-112.903
X93.268Y-121.903
T7
X102.578Y-67.069
X102.578Y-69.609
X102.578Y-72.149
X102.578Y-74.689
X102.578Y-77.229
X102.578Y-79.769
X102.578Y-82.309
X102.578Y-84.849
X102.578Y-87.389
X102.578Y-89.929
X102.578Y-92.469
X102.578Y-95.009
X102.578Y-97.549
X102.578Y-100.089
X102.578Y-102.629
X102.578Y-105.169
X102.578Y-107.709
X102.578Y-110.249
X102.578Y-112.789
X102.578Y-115.329
X102.578Y-117.869
X102.578Y-120.409
X102.578Y-122.949
X102.578Y-125.489
X125.395Y-67.069
X125.395Y-69.609
X125.395Y-72.149
X125.395Y-74.689
X125.395Y-77.229
X125.395Y-79.769
X125.395Y-82.309
X125.395Y-84.849
X125.395Y-87.389
X125.395Y-89.929
X125.395Y-92.469
X125.395Y-95.009
X125.395Y-97.549
X125.395Y-100.089
X125.395Y-102.629
X125.395Y-105.169
X125.395Y-107.709
X125.395Y-110.249
X125.395Y-112.789
X125.395Y-115.329
X125.395Y-117.869
X125.395Y-120.409
X125.395Y-122.949
X125.395Y-125.489
X140.576Y-123.584
X140.576Y-126.124
X140.576Y-128.664
X143.116Y-123.584
X143.116Y-126.124
X143.116Y-128.664
T8
X78.421Y-67.323
X91.275Y-67.323
T9
X75.881Y-64.783
X75.881Y-69.863
X80.961Y-64.783
X80.961Y-69.863
X88.735Y-64.783
X88.735Y-69.863
X93.815Y-64.783
X93.815Y-69.863
T10
X55.0Y-66.0
X55.0Y-145.0
X143.0Y-66.0
X143.0Y-145.0
M30
