M48
; DRILL file {KiCad 8.0.8} date 2025-02-24T20:15:56+0100
; FORMAT={3:3/ absolute / metric / suppress leading zeros}
; #@! TF.CreationDate,2025-02-24T20:15:56+01:00
; #@! TF.GenerationSoftware,Kicad,Pcbnew,8.0.8
; #@! TF.FileFunction,Plated,1,2,PTH
FMAT,2
METRIC,TZ
; #@! TA.AperFunction,Plated,PTH,ViaDrill
T1C0.300
; #@! TA.AperFunction,Plated,PTH,ComponentDrill
T2C0.500
; #@! TA.AperFunction,Plated,PTH,ComponentDrill
T3C1.500
; #@! TA.AperFunction,Plated,PTH,ComponentDrill
T4C1.700
; #@! TA.AperFunction,Plated,PTH,ComponentDrill
T5C3.200
%
G90
G05
T1
X51300Y-103600
X51300Y-106600
X51300Y-108800
X51300Y-111000
X51300Y-113000
X51300Y-118200
X51300Y-123800
X51300Y-125800
X51300Y-128000
X51300Y-130000
X51300Y-132200
X51300Y-134400
X51300Y-136600
X51300Y-138600
X51300Y-140800
X51300Y-142800
X51300Y-145000
X51300Y-147000
X51700Y-148200
X51900Y-101600
X52500Y-131000
X52700Y-149000
X53500Y-100800
X54500Y-149200
X55100Y-126600
X55100Y-129400
X55100Y-132600
X55500Y-100800
X56500Y-135200
X56700Y-149200
X57700Y-100800
X58100Y-123400
X58700Y-112000
X58700Y-134000
X58700Y-149200
X59300Y-126600
X59300Y-129400
X59300Y-132600
X59700Y-100800
X60250Y-138250
X60500Y-123400
X60500Y-135400
X60700Y-107200
X60900Y-118600
X60900Y-120800
X60900Y-149200
X61100Y-112000
X61300Y-104800
X61300Y-115800
X61700Y-131000
X61700Y-143200
X61900Y-100800
X61900Y-137200
X61900Y-139400
X62500Y-102000
X62500Y-113000
X62900Y-149200
X63100Y-136600
X63500Y-126200
X63500Y-129200
X64100Y-109800
X64500Y-107400
X64500Y-115800
X64500Y-118600
X64500Y-120800
X64500Y-134400
X64500Y-140800
X64892Y-142537
X64900Y-123800
X65100Y-149200
X66100Y-100800
X66300Y-141000
X66300Y-146600
X66300Y-147400
X66583Y-138125
X67100Y-149200
X67300Y-127800
X67300Y-146600
X67300Y-147400
X67500Y-116800
X67500Y-121800
X67700Y-106000
X67700Y-108400
X67700Y-111400
X68100Y-139600
X68250Y-146000
X68900Y-135800
X69000Y-102000
X69000Y-113000
X69300Y-124600
X69300Y-125600
X69300Y-149200
X69900Y-100800
X70500Y-128200
X71100Y-113000
X71250Y-145000
X71300Y-149200
X71900Y-104800
X72100Y-100800
X72100Y-107000
X72700Y-120800
X72700Y-135800
X73250Y-113000
X73300Y-124800
X73300Y-127200
X73500Y-149200
X74000Y-122000
X74100Y-100800
X74500Y-131600
X74500Y-145000
X74500Y-145800
X74700Y-114600
X75300Y-145000
X75300Y-145800
X75500Y-149200
X76100Y-116600
X76100Y-145000
X76100Y-145800
X76300Y-100800
X77700Y-149200
X77900Y-114600
X78100Y-107200
X78100Y-108800
X78100Y-131600
X78250Y-122000
X78250Y-141000
X78300Y-100800
X78700Y-111800
X79250Y-113000
X79700Y-105600
X79700Y-123400
X79700Y-149200
X80500Y-100800
X80700Y-103800
X80700Y-140200
X80773Y-138648
X81300Y-108600
X81900Y-149200
X82300Y-123400
X82300Y-126000
X82300Y-130000
X82300Y-132000
X82500Y-100800
X83100Y-105200
X83500Y-111800
X83500Y-113000
X83500Y-133800
X83500Y-137800
X83900Y-149200
X84100Y-128800
X84300Y-141200
X84500Y-122000
X84700Y-100800
X85100Y-114600
X85300Y-128200
X85300Y-139800
X85900Y-145200
X86100Y-149200
X86700Y-100800
X86700Y-116600
X86700Y-131800
X86700Y-133600
X86900Y-104400
X86900Y-113000
X88100Y-111600
X88100Y-149200
X88500Y-122000
X88500Y-136200
X88500Y-143200
X88900Y-100800
X89250Y-107750
X89500Y-113000
X89900Y-141800
X90100Y-125800
X90100Y-137000
X90100Y-138200
X90300Y-149200
X90900Y-100800
X90900Y-104400
X91300Y-130000
X91900Y-118000
X92100Y-120600
X92100Y-123200
X92100Y-133400
X92100Y-141400
X92100Y-144200
X92300Y-131200
X92300Y-149200
X92900Y-116200
X93100Y-100800
X93250Y-128250
X93250Y-139750
X93300Y-138600
X94500Y-104600
X94500Y-149200
X95100Y-100800
X95900Y-102600
X96300Y-128800
X96300Y-133600
X96300Y-138600
X96500Y-104200
X96500Y-105000
X96500Y-149200
X96750Y-113250
X97300Y-100800
X97300Y-118600
X97300Y-138400
X97500Y-123200
X97500Y-127200
X97500Y-141400
X98000Y-109000
X98300Y-106800
X98300Y-107600
X98700Y-144200
X98700Y-149200
X99250Y-114500
X99300Y-100800
X99500Y-125600
X99500Y-137000
X99700Y-133200
X100300Y-139600
X100500Y-118600
X100700Y-149200
X101500Y-100800
X101700Y-123400
X102100Y-131000
X102500Y-107100
X102500Y-120500
X102500Y-133750
X102700Y-109000
X102900Y-149200
X103500Y-100800
X103700Y-136800
X103900Y-122000
X103900Y-125600
X103900Y-129200
X103900Y-132200
X103900Y-141000
X104500Y-113000
X104700Y-118800
X104900Y-149200
X105700Y-100800
X105700Y-103900
X105700Y-144600
X105900Y-121400
X106000Y-106500
X106250Y-108250
X106500Y-110600
X106700Y-124000
X107100Y-132200
X107100Y-136800
X107100Y-141000
X107100Y-149200
X107300Y-104000
X107300Y-126400
X107500Y-116200
X107700Y-100800
X108500Y-120500
X108500Y-133750
X108900Y-102600
X109100Y-114200
X109100Y-149200
X109500Y-117800
X109900Y-100800
X110100Y-105200
X110700Y-126200
X110700Y-128400
X110900Y-139400
X110900Y-143800
X111300Y-149200
X111900Y-100800
X112300Y-112400
X112300Y-113600
X113100Y-109200
X113300Y-149200
X114100Y-100800
X114100Y-115600
X114900Y-128400
X115300Y-111400
X115500Y-149200
X116100Y-100800
X117500Y-149200
X118300Y-100800
X118300Y-109200
X118300Y-113400
X119700Y-149200
X120900Y-101800
X121100Y-148400
X121700Y-103600
X121700Y-106600
X121700Y-108600
X121700Y-110600
X121700Y-112600
X121700Y-114600
X121700Y-116800
X121700Y-118800
X121700Y-120800
X121700Y-122800
X121700Y-124800
X121700Y-127000
X121700Y-129000
X121700Y-131000
X121700Y-133000
X121700Y-135000
X121700Y-137200
X121700Y-139200
X121700Y-141200
X121700Y-143200
X121700Y-146800
T2
X52850Y-105000
X53100Y-145000
X53553Y-103303
X53553Y-106697
X53803Y-143303
X53803Y-146697
X55250Y-102600
X55250Y-107400
X55500Y-142600
X55500Y-147400
X56947Y-103303
X56947Y-106697
X57197Y-143303
X57197Y-146697
X57650Y-105000
X57900Y-145000
X115300Y-105000
X115300Y-145000
X116003Y-103303
X116003Y-106697
X116003Y-143303
X116003Y-146697
X117700Y-102600
X117700Y-107400
X117700Y-142600
X117700Y-147400
X119397Y-103303
X119397Y-106697
X119397Y-143303
X119397Y-146697
X120100Y-105000
X120100Y-145000
T3
X55210Y-118040
X116250Y-121000
X116250Y-134250
T4
X52670Y-115500
X52670Y-120580
X57750Y-115500
X57750Y-120580
X113710Y-118460
X113710Y-123540
X113710Y-131710
X113710Y-136790
X118790Y-118460
X118790Y-123540
X118790Y-131710
X118790Y-136790
T5
X55250Y-105000
X55500Y-145000
X117700Y-105000
X117700Y-145000
M30
